<?xml version="1.0" encoding="UTF-8"?>
<svg xmlns="http://www.w3.org/2000/svg" width="120" height="24" viewBox="0 0 120 24"><metadata>{"schema":"looper.ui.master.v1","asset_id":"ui_icon_loading","asset_version":"v001","visual_status":"Approved","states":["default","pressed","disabled","focused"],"style_lock":"Looper UI Style Lock v1.0 Approved","scalable":true,"transparent":true}</metadata><svg x="0" y="0" width="24" height="24" viewBox="0 0 24 24"><defs><linearGradient id="ui_icon_loadingdefaultmasterg" x1="0" y1="0" x2="1" y2="1"><stop stop-color="#FFFDF7"/><stop offset="1" stop-color="#F8EEDB"/></linearGradient><filter id="ui_icon_loadingdefaultmasters" x="-30%" y="-30%" width="160%" height="180%"><feGaussianBlur stdDeviation="1.1"/></filter></defs><g transform="translate(0 0)" opacity="1"><ellipse cx="12" cy="21" rx="7.2" ry="1.8" fill="#2B241C" opacity="0.13" filter="url(#ui_icon_loadingdefaultmasters)"/><circle cx="12" cy="11.5" r="9" fill="url(#ui_icon_loadingdefaultmasterg)" stroke="#D8AA70" stroke-width="1.1"/><path d="M12 4.7a6.8 6.8 0 0 1 5.7 3.1" fill="none" stroke="#4D724E" stroke-width="3" stroke-linecap="round"/><path d="M18.5 10.1a6.8 6.8 0 0 1-.9 5.6" fill="none" stroke="#FFB743" stroke-width="3" stroke-linecap="round"/><path d="M15.4 17.4a6.8 6.8 0 0 1-5.5.7" fill="none" stroke="#99643B" stroke-width="3" stroke-linecap="round"/><circle cx="7" cy="15.8" r="1.5" fill="#233F2D"/></g></svg><svg x="32" y="0" width="24" height="24" viewBox="0 0 24 24"><defs><linearGradient id="ui_icon_loadingpressedmasterg" x1="0" y1="0" x2="1" y2="1"><stop stop-color="#FFFDF7"/><stop offset="1" stop-color="#F8EEDB"/></linearGradient><filter id="ui_icon_loadingpressedmasters" x="-30%" y="-30%" width="160%" height="180%"><feGaussianBlur stdDeviation="1.1"/></filter></defs><g transform="translate(0 1)" opacity="1"><ellipse cx="12" cy="21" rx="7.2" ry="1.8" fill="#2B241C" opacity="0.07" filter="url(#ui_icon_loadingpressedmasters)"/><circle cx="12" cy="11.5" r="9" fill="url(#ui_icon_loadingpressedmasterg)" stroke="#D8AA70" stroke-width="1.1"/><path d="M12 4.7a6.8 6.8 0 0 1 5.7 3.1" fill="none" stroke="#4D724E" stroke-width="3" stroke-linecap="round"/><path d="M18.5 10.1a6.8 6.8 0 0 1-.9 5.6" fill="none" stroke="#FFB743" stroke-width="3" stroke-linecap="round"/><path d="M15.4 17.4a6.8 6.8 0 0 1-5.5.7" fill="none" stroke="#99643B" stroke-width="3" stroke-linecap="round"/><circle cx="7" cy="15.8" r="1.5" fill="#233F2D"/></g></svg><svg x="64" y="0" width="24" height="24" viewBox="0 0 24 24"><defs><linearGradient id="ui_icon_loadingdisabledmasterg" x1="0" y1="0" x2="1" y2="1"><stop stop-color="#FFFDF7"/><stop offset="1" stop-color="#F8EEDB"/></linearGradient><filter id="ui_icon_loadingdisabledmasters" x="-30%" y="-30%" width="160%" height="180%"><feGaussianBlur stdDeviation="1.1"/></filter></defs><g transform="translate(0 0)" opacity="0.42"><ellipse cx="12" cy="21" rx="7.2" ry="1.8" fill="#2B241C" opacity="0.04" filter="url(#ui_icon_loadingdisabledmasters)"/><circle cx="12" cy="11.5" r="9" fill="url(#ui_icon_loadingdisabledmasterg)" stroke="#D8AA70" stroke-width="1.1"/><path d="M12 4.7a6.8 6.8 0 0 1 5.7 3.1" fill="none" stroke="#4D724E" stroke-width="3" stroke-linecap="round"/><path d="M18.5 10.1a6.8 6.8 0 0 1-.9 5.6" fill="none" stroke="#FFB743" stroke-width="3" stroke-linecap="round"/><path d="M15.4 17.4a6.8 6.8 0 0 1-5.5.7" fill="none" stroke="#99643B" stroke-width="3" stroke-linecap="round"/><circle cx="7" cy="15.8" r="1.5" fill="#233F2D"/></g></svg><svg x="96" y="0" width="24" height="24" viewBox="0 0 24 24"><defs><linearGradient id="ui_icon_loadingfocusedmasterg" x1="0" y1="0" x2="1" y2="1"><stop stop-color="#FFFDF7"/><stop offset="1" stop-color="#F8EEDB"/></linearGradient><filter id="ui_icon_loadingfocusedmasters" x="-30%" y="-30%" width="160%" height="180%"><feGaussianBlur stdDeviation="1.1"/></filter></defs><g transform="translate(0 0)" opacity="1"><ellipse cx="12" cy="21" rx="7.2" ry="1.8" fill="#2B241C" opacity="0.13" filter="url(#ui_icon_loadingfocusedmasters)"/><circle cx="12" cy="11.5" r="9" fill="url(#ui_icon_loadingfocusedmasterg)" stroke="#D8AA70" stroke-width="1.1"/><path d="M12 4.7a6.8 6.8 0 0 1 5.7 3.1" fill="none" stroke="#4D724E" stroke-width="3" stroke-linecap="round"/><path d="M18.5 10.1a6.8 6.8 0 0 1-.9 5.6" fill="none" stroke="#FFB743" stroke-width="3" stroke-linecap="round"/><path d="M15.4 17.4a6.8 6.8 0 0 1-5.5.7" fill="none" stroke="#99643B" stroke-width="3" stroke-linecap="round"/><circle cx="7" cy="15.8" r="1.5" fill="#233F2D"/></g></svg></svg>
