<?xml version="1.0" encoding="UTF-8"?>
<svg xmlns="http://www.w3.org/2000/svg" width="120" height="24" viewBox="0 0 120 24"><metadata>{"schema":"looper.ui.master.v1","asset_id":"ui_icon_success","asset_version":"v001","visual_status":"Approved","states":["default","pressed","disabled","focused"],"style_lock":"Looper UI Style Lock v1.0 Approved","scalable":true,"transparent":true}</metadata><svg x="0" y="0" width="24" height="24" viewBox="0 0 24 24"><defs><filter id="ui_icon_successdefaultmasters" x="-30%" y="-30%" width="160%" height="180%"><feGaussianBlur stdDeviation="1.1"/></filter></defs><g transform="translate(0 0)" opacity="1"><ellipse cx="12" cy="21" rx="7.3" ry="1.8" fill="#2B241C" opacity="0.13" filter="url(#ui_icon_successdefaultmasters)"/><defs><linearGradient id="ui_icon_successdefaultmasterg" x1="0" y1="0" x2="1" y2="1"><stop stop-color="#738F6B"/><stop offset="1" stop-color="#4D724E"/></linearGradient></defs><path d="M12 2.5 21.5 12 12 21.5 2.5 12z" rx="5" fill="url(#ui_icon_successdefaultmasterg)" stroke="#233F2D" stroke-width="1.1" stroke-linejoin="round"/><path d="M6.8 7.9A7.6 7.6 0 0 1 14.4 4.5" fill="none" stroke="#FFFDF7" stroke-width="1.3" stroke-linecap="round" opacity=".34"/><path d="m7.3 12.2 3.1 3.1 6.5-7" fill="none" stroke="#FFFDF7" stroke-width="2.8" stroke-linecap="round" stroke-linejoin="round"/></g></svg><svg x="32" y="0" width="24" height="24" viewBox="0 0 24 24"><defs><filter id="ui_icon_successpressedmasters" x="-30%" y="-30%" width="160%" height="180%"><feGaussianBlur stdDeviation="1.1"/></filter></defs><g transform="translate(0 1)" opacity="1"><ellipse cx="12" cy="21" rx="7.3" ry="1.8" fill="#2B241C" opacity="0.07" filter="url(#ui_icon_successpressedmasters)"/><defs><linearGradient id="ui_icon_successpressedmasterg" x1="0" y1="0" x2="1" y2="1"><stop stop-color="#738F6B"/><stop offset="1" stop-color="#4D724E"/></linearGradient></defs><path d="M12 2.5 21.5 12 12 21.5 2.5 12z" rx="5" fill="url(#ui_icon_successpressedmasterg)" stroke="#233F2D" stroke-width="1.1" stroke-linejoin="round"/><path d="M6.8 7.9A7.6 7.6 0 0 1 14.4 4.5" fill="none" stroke="#FFFDF7" stroke-width="1.3" stroke-linecap="round" opacity=".34"/><path d="m7.3 12.2 3.1 3.1 6.5-7" fill="none" stroke="#FFFDF7" stroke-width="2.8" stroke-linecap="round" stroke-linejoin="round"/></g></svg><svg x="64" y="0" width="24" height="24" viewBox="0 0 24 24"><defs><filter id="ui_icon_successdisabledmasters" x="-30%" y="-30%" width="160%" height="180%"><feGaussianBlur stdDeviation="1.1"/></filter></defs><g transform="translate(0 0)" opacity="0.42"><ellipse cx="12" cy="21" rx="7.3" ry="1.8" fill="#2B241C" opacity="0.04" filter="url(#ui_icon_successdisabledmasters)"/><defs><linearGradient id="ui_icon_successdisabledmasterg" x1="0" y1="0" x2="1" y2="1"><stop stop-color="#738F6B"/><stop offset="1" stop-color="#4D724E"/></linearGradient></defs><path d="M12 2.5 21.5 12 12 21.5 2.5 12z" rx="5" fill="url(#ui_icon_successdisabledmasterg)" stroke="#233F2D" stroke-width="1.1" stroke-linejoin="round"/><path d="M6.8 7.9A7.6 7.6 0 0 1 14.4 4.5" fill="none" stroke="#FFFDF7" stroke-width="1.3" stroke-linecap="round" opacity=".34"/><path d="m7.3 12.2 3.1 3.1 6.5-7" fill="none" stroke="#FFFDF7" stroke-width="2.8" stroke-linecap="round" stroke-linejoin="round"/></g></svg><svg x="96" y="0" width="24" height="24" viewBox="0 0 24 24"><defs><filter id="ui_icon_successfocusedmasters" x="-30%" y="-30%" width="160%" height="180%"><feGaussianBlur stdDeviation="1.1"/></filter></defs><g transform="translate(0 0)" opacity="1"><ellipse cx="12" cy="21" rx="7.3" ry="1.8" fill="#2B241C" opacity="0.13" filter="url(#ui_icon_successfocusedmasters)"/><defs><linearGradient id="ui_icon_successfocusedmasterg" x1="0" y1="0" x2="1" y2="1"><stop stop-color="#738F6B"/><stop offset="1" stop-color="#4D724E"/></linearGradient></defs><path d="M12 2.5 21.5 12 12 21.5 2.5 12z" rx="5" fill="url(#ui_icon_successfocusedmasterg)" stroke="#233F2D" stroke-width="1.1" stroke-linejoin="round"/><path d="M6.8 7.9A7.6 7.6 0 0 1 14.4 4.5" fill="none" stroke="#FFFDF7" stroke-width="1.3" stroke-linecap="round" opacity=".34"/><path d="m7.3 12.2 3.1 3.1 6.5-7" fill="none" stroke="#FFFDF7" stroke-width="2.8" stroke-linecap="round" stroke-linejoin="round"/></g></svg></svg>
