<?xml version="1.0" encoding="UTF-8"?>
<svg xmlns="http://www.w3.org/2000/svg" width="120" height="24" viewBox="0 0 120 24"><metadata>{"schema":"looper.ui.master.v1","asset_id":"ui_icon_sync","asset_version":"v001","visual_status":"Approved","states":["default","pressed","disabled","focused"],"style_lock":"Looper UI Style Lock v1.0 Approved","scalable":true,"transparent":true}</metadata><svg x="0" y="0" width="24" height="24" viewBox="0 0 24 24"><defs><filter id="ui_icon_syncdefaultmasters" x="-30%" y="-30%" width="160%" height="180%"><feGaussianBlur stdDeviation="1.1"/></filter></defs><g transform="translate(0 0)" opacity="1"><ellipse cx="12" cy="21" rx="7.4" ry="1.8" fill="#2B241C" opacity="0.13" filter="url(#ui_icon_syncdefaultmasters)"/><defs><linearGradient id="ui_icon_syncdefaultmasterg" x1="0" y1="0" x2="1" y2="1"><stop stop-color="#738F6B"/><stop offset="1" stop-color="#4D724E"/></linearGradient></defs><rect x="5" y="4" width="14" height="16" rx="5" fill="#F8EEDB" stroke="#D8AA70" stroke-width="1.1"/><path d="M8 7.2v8.2" stroke="url(#ui_icon_syncdefaultmasterg)" stroke-width="2.8" stroke-linecap="round"/><path d="m5.5 12.8 2.5 3 2.5-3" fill="none" stroke="#4D724E" stroke-width="2" stroke-linecap="round" stroke-linejoin="round"/><path d="M16 16.8V8.6" stroke="#99643B" stroke-width="2.8" stroke-linecap="round"/><path d="m13.5 11.2 2.5-3 2.5 3" fill="none" stroke="#99643B" stroke-width="2" stroke-linecap="round" stroke-linejoin="round"/></g></svg><svg x="32" y="0" width="24" height="24" viewBox="0 0 24 24"><defs><filter id="ui_icon_syncpressedmasters" x="-30%" y="-30%" width="160%" height="180%"><feGaussianBlur stdDeviation="1.1"/></filter></defs><g transform="translate(0 1)" opacity="1"><ellipse cx="12" cy="21" rx="7.4" ry="1.8" fill="#2B241C" opacity="0.07" filter="url(#ui_icon_syncpressedmasters)"/><defs><linearGradient id="ui_icon_syncpressedmasterg" x1="0" y1="0" x2="1" y2="1"><stop stop-color="#738F6B"/><stop offset="1" stop-color="#4D724E"/></linearGradient></defs><rect x="5" y="4" width="14" height="16" rx="5" fill="#F8EEDB" stroke="#D8AA70" stroke-width="1.1"/><path d="M8 7.2v8.2" stroke="url(#ui_icon_syncpressedmasterg)" stroke-width="2.8" stroke-linecap="round"/><path d="m5.5 12.8 2.5 3 2.5-3" fill="none" stroke="#4D724E" stroke-width="2" stroke-linecap="round" stroke-linejoin="round"/><path d="M16 16.8V8.6" stroke="#99643B" stroke-width="2.8" stroke-linecap="round"/><path d="m13.5 11.2 2.5-3 2.5 3" fill="none" stroke="#99643B" stroke-width="2" stroke-linecap="round" stroke-linejoin="round"/></g></svg><svg x="64" y="0" width="24" height="24" viewBox="0 0 24 24"><defs><filter id="ui_icon_syncdisabledmasters" x="-30%" y="-30%" width="160%" height="180%"><feGaussianBlur stdDeviation="1.1"/></filter></defs><g transform="translate(0 0)" opacity="0.42"><ellipse cx="12" cy="21" rx="7.4" ry="1.8" fill="#2B241C" opacity="0.04" filter="url(#ui_icon_syncdisabledmasters)"/><defs><linearGradient id="ui_icon_syncdisabledmasterg" x1="0" y1="0" x2="1" y2="1"><stop stop-color="#738F6B"/><stop offset="1" stop-color="#4D724E"/></linearGradient></defs><rect x="5" y="4" width="14" height="16" rx="5" fill="#F8EEDB" stroke="#D8AA70" stroke-width="1.1"/><path d="M8 7.2v8.2" stroke="url(#ui_icon_syncdisabledmasterg)" stroke-width="2.8" stroke-linecap="round"/><path d="m5.5 12.8 2.5 3 2.5-3" fill="none" stroke="#4D724E" stroke-width="2" stroke-linecap="round" stroke-linejoin="round"/><path d="M16 16.8V8.6" stroke="#99643B" stroke-width="2.8" stroke-linecap="round"/><path d="m13.5 11.2 2.5-3 2.5 3" fill="none" stroke="#99643B" stroke-width="2" stroke-linecap="round" stroke-linejoin="round"/></g></svg><svg x="96" y="0" width="24" height="24" viewBox="0 0 24 24"><defs><filter id="ui_icon_syncfocusedmasters" x="-30%" y="-30%" width="160%" height="180%"><feGaussianBlur stdDeviation="1.1"/></filter></defs><g transform="translate(0 0)" opacity="1"><ellipse cx="12" cy="21" rx="7.4" ry="1.8" fill="#2B241C" opacity="0.13" filter="url(#ui_icon_syncfocusedmasters)"/><defs><linearGradient id="ui_icon_syncfocusedmasterg" x1="0" y1="0" x2="1" y2="1"><stop stop-color="#738F6B"/><stop offset="1" stop-color="#4D724E"/></linearGradient></defs><rect x="5" y="4" width="14" height="16" rx="5" fill="#F8EEDB" stroke="#D8AA70" stroke-width="1.1"/><path d="M8 7.2v8.2" stroke="url(#ui_icon_syncfocusedmasterg)" stroke-width="2.8" stroke-linecap="round"/><path d="m5.5 12.8 2.5 3 2.5-3" fill="none" stroke="#4D724E" stroke-width="2" stroke-linecap="round" stroke-linejoin="round"/><path d="M16 16.8V8.6" stroke="#99643B" stroke-width="2.8" stroke-linecap="round"/><path d="m13.5 11.2 2.5-3 2.5 3" fill="none" stroke="#99643B" stroke-width="2" stroke-linecap="round" stroke-linejoin="round"/></g></svg></svg>
