<?xml version="1.0" encoding="UTF-8"?>
<svg xmlns="http://www.w3.org/2000/svg" width="120" height="24" viewBox="0 0 120 24"><metadata>{"schema":"looper.ui.master.v1","asset_id":"ui_icon_unlock","asset_version":"v001","visual_status":"Approved","states":["default","pressed","disabled","focused"],"style_lock":"Looper UI Style Lock v1.0 Approved","scalable":true,"transparent":true}</metadata><svg x="0" y="0" width="24" height="24" viewBox="0 0 24 24"><defs><filter id="ui_icon_unlockdefaultmasters" x="-30%" y="-30%" width="160%" height="180%"><feGaussianBlur stdDeviation="1.1"/></filter></defs><g transform="translate(0 0)" opacity="1"><ellipse cx="12" cy="21" rx="7.4" ry="1.8" fill="#2B241C" opacity="0.13" filter="url(#ui_icon_unlockdefaultmasters)"/><defs><linearGradient id="ui_icon_unlockdefaultmasterg" x1="0" y1="0" x2="1" y2="1"><stop stop-color="#D8AA70"/><stop offset="1" stop-color="#99643B"/></linearGradient></defs><path d="M7.2 10V7.8a4.8 4.8 0 0 1 8.2-3.4" fill="none" stroke="#233F2D" stroke-width="2.7" stroke-linecap="round"/><path d="M15.4 4.4 18 3.1" stroke="#233F2D" stroke-width="2.7" stroke-linecap="round"/><rect x="4.2" y="9" width="15.6" height="12" rx="3.4" fill="url(#ui_icon_unlockdefaultmasterg)" stroke="#99643B" stroke-width="1.1"/><path d="M7 11.5h8" stroke="#FFFDF7" stroke-width="1.3" stroke-linecap="round" opacity=".38"/><circle cx="12" cy="14.7" r="1.65" fill="#233F2D"/><path d="M12 16v2.1" stroke="#233F2D" stroke-width="2" stroke-linecap="round"/></g></svg><svg x="32" y="0" width="24" height="24" viewBox="0 0 24 24"><defs><filter id="ui_icon_unlockpressedmasters" x="-30%" y="-30%" width="160%" height="180%"><feGaussianBlur stdDeviation="1.1"/></filter></defs><g transform="translate(0 1)" opacity="1"><ellipse cx="12" cy="21" rx="7.4" ry="1.8" fill="#2B241C" opacity="0.07" filter="url(#ui_icon_unlockpressedmasters)"/><defs><linearGradient id="ui_icon_unlockpressedmasterg" x1="0" y1="0" x2="1" y2="1"><stop stop-color="#D8AA70"/><stop offset="1" stop-color="#99643B"/></linearGradient></defs><path d="M7.2 10V7.8a4.8 4.8 0 0 1 8.2-3.4" fill="none" stroke="#233F2D" stroke-width="2.7" stroke-linecap="round"/><path d="M15.4 4.4 18 3.1" stroke="#233F2D" stroke-width="2.7" stroke-linecap="round"/><rect x="4.2" y="9" width="15.6" height="12" rx="3.4" fill="url(#ui_icon_unlockpressedmasterg)" stroke="#99643B" stroke-width="1.1"/><path d="M7 11.5h8" stroke="#FFFDF7" stroke-width="1.3" stroke-linecap="round" opacity=".38"/><circle cx="12" cy="14.7" r="1.65" fill="#233F2D"/><path d="M12 16v2.1" stroke="#233F2D" stroke-width="2" stroke-linecap="round"/></g></svg><svg x="64" y="0" width="24" height="24" viewBox="0 0 24 24"><defs><filter id="ui_icon_unlockdisabledmasters" x="-30%" y="-30%" width="160%" height="180%"><feGaussianBlur stdDeviation="1.1"/></filter></defs><g transform="translate(0 0)" opacity="0.42"><ellipse cx="12" cy="21" rx="7.4" ry="1.8" fill="#2B241C" opacity="0.04" filter="url(#ui_icon_unlockdisabledmasters)"/><defs><linearGradient id="ui_icon_unlockdisabledmasterg" x1="0" y1="0" x2="1" y2="1"><stop stop-color="#D8AA70"/><stop offset="1" stop-color="#99643B"/></linearGradient></defs><path d="M7.2 10V7.8a4.8 4.8 0 0 1 8.2-3.4" fill="none" stroke="#233F2D" stroke-width="2.7" stroke-linecap="round"/><path d="M15.4 4.4 18 3.1" stroke="#233F2D" stroke-width="2.7" stroke-linecap="round"/><rect x="4.2" y="9" width="15.6" height="12" rx="3.4" fill="url(#ui_icon_unlockdisabledmasterg)" stroke="#99643B" stroke-width="1.1"/><path d="M7 11.5h8" stroke="#FFFDF7" stroke-width="1.3" stroke-linecap="round" opacity=".38"/><circle cx="12" cy="14.7" r="1.65" fill="#233F2D"/><path d="M12 16v2.1" stroke="#233F2D" stroke-width="2" stroke-linecap="round"/></g></svg><svg x="96" y="0" width="24" height="24" viewBox="0 0 24 24"><defs><filter id="ui_icon_unlockfocusedmasters" x="-30%" y="-30%" width="160%" height="180%"><feGaussianBlur stdDeviation="1.1"/></filter></defs><g transform="translate(0 0)" opacity="1"><ellipse cx="12" cy="21" rx="7.4" ry="1.8" fill="#2B241C" opacity="0.13" filter="url(#ui_icon_unlockfocusedmasters)"/><defs><linearGradient id="ui_icon_unlockfocusedmasterg" x1="0" y1="0" x2="1" y2="1"><stop stop-color="#D8AA70"/><stop offset="1" stop-color="#99643B"/></linearGradient></defs><path d="M7.2 10V7.8a4.8 4.8 0 0 1 8.2-3.4" fill="none" stroke="#233F2D" stroke-width="2.7" stroke-linecap="round"/><path d="M15.4 4.4 18 3.1" stroke="#233F2D" stroke-width="2.7" stroke-linecap="round"/><rect x="4.2" y="9" width="15.6" height="12" rx="3.4" fill="url(#ui_icon_unlockfocusedmasterg)" stroke="#99643B" stroke-width="1.1"/><path d="M7 11.5h8" stroke="#FFFDF7" stroke-width="1.3" stroke-linecap="round" opacity=".38"/><circle cx="12" cy="14.7" r="1.65" fill="#233F2D"/><path d="M12 16v2.1" stroke="#233F2D" stroke-width="2" stroke-linecap="round"/></g></svg></svg>
