<?xml version="1.0" encoding="UTF-8"?>
<svg xmlns="http://www.w3.org/2000/svg" width="120" height="24" viewBox="0 0 120 24"><metadata>{"schema":"looper.ui.master.v1","asset_id":"ui_icon_equip","asset_version":"v001","visual_status":"Approved","states":["default","pressed","disabled","focused"],"style_lock":"Looper UI Style Lock v1.0 Approved","scalable":true,"transparent":true}</metadata><svg x="0" y="0" width="24" height="24" viewBox="0 0 24 24"><defs><filter id="ui_icon_equipdefaultmasters" x="-30%" y="-30%" width="160%" height="180%"><feGaussianBlur stdDeviation="1.05"/></filter></defs><g transform="translate(0 0)" opacity="1"><ellipse cx="12" cy="21" rx="7.6" ry="1.8" fill="#2B241C" opacity="0.13" filter="url(#ui_icon_equipdefaultmasters)"/><defs><linearGradient id="ui_icon_equipdefaultmasterw" x1="0" y1="0" x2="1" y2="1"><stop stop-color="#D8AA70"/><stop offset="1" stop-color="#99643B"/></linearGradient><linearGradient id="ui_icon_equipdefaultmasterg" x1="0" y1="0" x2="1" y2="1"><stop stop-color="#738F6B"/><stop offset="1" stop-color="#4D724E"/></linearGradient></defs><path d="M12 4.1a2 2 0 1 1-1.4 3.4" fill="none" stroke="#99643B" stroke-width="1.6" stroke-linecap="round"/><path d="m4.2 16.2 7.8-7 7.8 7-1.5 2H5.7z" fill="none" stroke="url(#ui_icon_equipdefaultmasterw)" stroke-width="2.2" stroke-linejoin="round"/><path d="M7.4 12.9c2.7 1.2 6.5 1.2 9.2 0v5.7H7.4z" fill="url(#ui_icon_equipdefaultmasterg)" stroke="#233F2D" stroke-width=".9"/><path d="M8.6 14.3h6.8" stroke="#DCE9C9" stroke-width="1" opacity=".55"/></g></svg><svg x="32" y="0" width="24" height="24" viewBox="0 0 24 24"><defs><filter id="ui_icon_equippressedmasters" x="-30%" y="-30%" width="160%" height="180%"><feGaussianBlur stdDeviation="1.05"/></filter></defs><g transform="translate(0 1)" opacity="1"><ellipse cx="12" cy="21" rx="7.6" ry="1.8" fill="#2B241C" opacity="0.07" filter="url(#ui_icon_equippressedmasters)"/><defs><linearGradient id="ui_icon_equippressedmasterw" x1="0" y1="0" x2="1" y2="1"><stop stop-color="#D8AA70"/><stop offset="1" stop-color="#99643B"/></linearGradient><linearGradient id="ui_icon_equippressedmasterg" x1="0" y1="0" x2="1" y2="1"><stop stop-color="#738F6B"/><stop offset="1" stop-color="#4D724E"/></linearGradient></defs><path d="M12 4.1a2 2 0 1 1-1.4 3.4" fill="none" stroke="#99643B" stroke-width="1.6" stroke-linecap="round"/><path d="m4.2 16.2 7.8-7 7.8 7-1.5 2H5.7z" fill="none" stroke="url(#ui_icon_equippressedmasterw)" stroke-width="2.2" stroke-linejoin="round"/><path d="M7.4 12.9c2.7 1.2 6.5 1.2 9.2 0v5.7H7.4z" fill="url(#ui_icon_equippressedmasterg)" stroke="#233F2D" stroke-width=".9"/><path d="M8.6 14.3h6.8" stroke="#DCE9C9" stroke-width="1" opacity=".55"/></g></svg><svg x="64" y="0" width="24" height="24" viewBox="0 0 24 24"><defs><filter id="ui_icon_equipdisabledmasters" x="-30%" y="-30%" width="160%" height="180%"><feGaussianBlur stdDeviation="1.05"/></filter></defs><g transform="translate(0 0)" opacity="0.42"><ellipse cx="12" cy="21" rx="7.6" ry="1.8" fill="#2B241C" opacity="0.04" filter="url(#ui_icon_equipdisabledmasters)"/><defs><linearGradient id="ui_icon_equipdisabledmasterw" x1="0" y1="0" x2="1" y2="1"><stop stop-color="#D8AA70"/><stop offset="1" stop-color="#99643B"/></linearGradient><linearGradient id="ui_icon_equipdisabledmasterg" x1="0" y1="0" x2="1" y2="1"><stop stop-color="#738F6B"/><stop offset="1" stop-color="#4D724E"/></linearGradient></defs><path d="M12 4.1a2 2 0 1 1-1.4 3.4" fill="none" stroke="#99643B" stroke-width="1.6" stroke-linecap="round"/><path d="m4.2 16.2 7.8-7 7.8 7-1.5 2H5.7z" fill="none" stroke="url(#ui_icon_equipdisabledmasterw)" stroke-width="2.2" stroke-linejoin="round"/><path d="M7.4 12.9c2.7 1.2 6.5 1.2 9.2 0v5.7H7.4z" fill="url(#ui_icon_equipdisabledmasterg)" stroke="#233F2D" stroke-width=".9"/><path d="M8.6 14.3h6.8" stroke="#DCE9C9" stroke-width="1" opacity=".55"/></g></svg><svg x="96" y="0" width="24" height="24" viewBox="0 0 24 24"><defs><filter id="ui_icon_equipfocusedmasters" x="-30%" y="-30%" width="160%" height="180%"><feGaussianBlur stdDeviation="1.05"/></filter></defs><g transform="translate(0 0)" opacity="1"><ellipse cx="12" cy="21" rx="7.6" ry="1.8" fill="#2B241C" opacity="0.13" filter="url(#ui_icon_equipfocusedmasters)"/><defs><linearGradient id="ui_icon_equipfocusedmasterw" x1="0" y1="0" x2="1" y2="1"><stop stop-color="#D8AA70"/><stop offset="1" stop-color="#99643B"/></linearGradient><linearGradient id="ui_icon_equipfocusedmasterg" x1="0" y1="0" x2="1" y2="1"><stop stop-color="#738F6B"/><stop offset="1" stop-color="#4D724E"/></linearGradient></defs><path d="M12 4.1a2 2 0 1 1-1.4 3.4" fill="none" stroke="#99643B" stroke-width="1.6" stroke-linecap="round"/><path d="m4.2 16.2 7.8-7 7.8 7-1.5 2H5.7z" fill="none" stroke="url(#ui_icon_equipfocusedmasterw)" stroke-width="2.2" stroke-linejoin="round"/><path d="M7.4 12.9c2.7 1.2 6.5 1.2 9.2 0v5.7H7.4z" fill="url(#ui_icon_equipfocusedmasterg)" stroke="#233F2D" stroke-width=".9"/><path d="M8.6 14.3h6.8" stroke="#DCE9C9" stroke-width="1" opacity=".55"/></g></svg></svg>
