<?xml version="1.0" encoding="UTF-8"?>
<svg xmlns="http://www.w3.org/2000/svg" width="120" height="24" viewBox="0 0 120 24"><metadata>{"schema":"looper.ui.master.v1","asset_id":"ui_icon_nav_exchange","asset_version":"v001","visual_status":"Approved","states":["default","pressed","disabled","focused"],"style_lock":"Looper UI Style Lock v1.0 Approved","scalable":true,"transparent":true}</metadata><svg x="0" y="0" width="24" height="24" viewBox="0 0 24 24"><defs><filter id="ui_icon_nav_exchangedefaultmasters" x="-30%" y="-30%" width="160%" height="180%"><feGaussianBlur stdDeviation="1.05"/></filter></defs><g transform="translate(0 0)" opacity="1"><ellipse cx="12" cy="21" rx="7.6" ry="1.8" fill="#2B241C" opacity="0.13" filter="url(#ui_icon_nav_exchangedefaultmasters)"/><defs><linearGradient id="ui_icon_nav_exchangedefaultmastery" x1="0" y1="0" x2="1" y2="1"><stop stop-color="#FFE27A"/><stop offset="1" stop-color="#E2A638"/></linearGradient></defs><path d="m12 4.2 2.1 4.2 4.7.7-3.4 3.3.8 4.7-4.2-2.2-4.2 2.2.8-4.7-3.4-3.3 4.7-.7z" fill="url(#ui_icon_nav_exchangedefaultmastery)" stroke="#B5792C" stroke-width="1" stroke-linejoin="round"/><path d="M5.1 6.6A8.5 8.5 0 0 0 3.6 12M18.9 17.4A8.5 8.5 0 0 0 20.4 12" fill="none" stroke="#233F2D" stroke-width="1.5" stroke-linecap="round"/><path d="m3.4 9.7.2 2.7 2.5-1M20.6 14.3l-.2-2.7-2.5 1" fill="#4D724E"/></g></svg><svg x="32" y="0" width="24" height="24" viewBox="0 0 24 24"><defs><filter id="ui_icon_nav_exchangepressedmasters" x="-30%" y="-30%" width="160%" height="180%"><feGaussianBlur stdDeviation="1.05"/></filter></defs><g transform="translate(0 1)" opacity="1"><ellipse cx="12" cy="21" rx="7.6" ry="1.8" fill="#2B241C" opacity="0.07" filter="url(#ui_icon_nav_exchangepressedmasters)"/><defs><linearGradient id="ui_icon_nav_exchangepressedmastery" x1="0" y1="0" x2="1" y2="1"><stop stop-color="#FFE27A"/><stop offset="1" stop-color="#E2A638"/></linearGradient></defs><path d="m12 4.2 2.1 4.2 4.7.7-3.4 3.3.8 4.7-4.2-2.2-4.2 2.2.8-4.7-3.4-3.3 4.7-.7z" fill="url(#ui_icon_nav_exchangepressedmastery)" stroke="#B5792C" stroke-width="1" stroke-linejoin="round"/><path d="M5.1 6.6A8.5 8.5 0 0 0 3.6 12M18.9 17.4A8.5 8.5 0 0 0 20.4 12" fill="none" stroke="#233F2D" stroke-width="1.5" stroke-linecap="round"/><path d="m3.4 9.7.2 2.7 2.5-1M20.6 14.3l-.2-2.7-2.5 1" fill="#4D724E"/></g></svg><svg x="64" y="0" width="24" height="24" viewBox="0 0 24 24"><defs><filter id="ui_icon_nav_exchangedisabledmasters" x="-30%" y="-30%" width="160%" height="180%"><feGaussianBlur stdDeviation="1.05"/></filter></defs><g transform="translate(0 0)" opacity="0.42"><ellipse cx="12" cy="21" rx="7.6" ry="1.8" fill="#2B241C" opacity="0.04" filter="url(#ui_icon_nav_exchangedisabledmasters)"/><defs><linearGradient id="ui_icon_nav_exchangedisabledmastery" x1="0" y1="0" x2="1" y2="1"><stop stop-color="#FFE27A"/><stop offset="1" stop-color="#E2A638"/></linearGradient></defs><path d="m12 4.2 2.1 4.2 4.7.7-3.4 3.3.8 4.7-4.2-2.2-4.2 2.2.8-4.7-3.4-3.3 4.7-.7z" fill="url(#ui_icon_nav_exchangedisabledmastery)" stroke="#B5792C" stroke-width="1" stroke-linejoin="round"/><path d="M5.1 6.6A8.5 8.5 0 0 0 3.6 12M18.9 17.4A8.5 8.5 0 0 0 20.4 12" fill="none" stroke="#233F2D" stroke-width="1.5" stroke-linecap="round"/><path d="m3.4 9.7.2 2.7 2.5-1M20.6 14.3l-.2-2.7-2.5 1" fill="#4D724E"/></g></svg><svg x="96" y="0" width="24" height="24" viewBox="0 0 24 24"><defs><filter id="ui_icon_nav_exchangefocusedmasters" x="-30%" y="-30%" width="160%" height="180%"><feGaussianBlur stdDeviation="1.05"/></filter></defs><g transform="translate(0 0)" opacity="1"><ellipse cx="12" cy="21" rx="7.6" ry="1.8" fill="#2B241C" opacity="0.13" filter="url(#ui_icon_nav_exchangefocusedmasters)"/><defs><linearGradient id="ui_icon_nav_exchangefocusedmastery" x1="0" y1="0" x2="1" y2="1"><stop stop-color="#FFE27A"/><stop offset="1" stop-color="#E2A638"/></linearGradient></defs><path d="m12 4.2 2.1 4.2 4.7.7-3.4 3.3.8 4.7-4.2-2.2-4.2 2.2.8-4.7-3.4-3.3 4.7-.7z" fill="url(#ui_icon_nav_exchangefocusedmastery)" stroke="#B5792C" stroke-width="1" stroke-linejoin="round"/><path d="M5.1 6.6A8.5 8.5 0 0 0 3.6 12M18.9 17.4A8.5 8.5 0 0 0 20.4 12" fill="none" stroke="#233F2D" stroke-width="1.5" stroke-linecap="round"/><path d="m3.4 9.7.2 2.7 2.5-1M20.6 14.3l-.2-2.7-2.5 1" fill="#4D724E"/></g></svg></svg>
