<?xml version="1.0" encoding="UTF-8"?>
<svg xmlns="http://www.w3.org/2000/svg" width="120" height="24" viewBox="0 0 120 24"><metadata>{"schema":"looper.ui.master.v1","asset_id":"ui_icon_nav_forest","asset_version":"v001","visual_status":"Approved","states":["default","pressed","disabled","focused"],"style_lock":"Looper UI Style Lock v1.0 Approved","scalable":true,"transparent":true}</metadata><svg x="0" y="0" width="24" height="24" viewBox="0 0 24 24"><defs><filter id="ui_icon_nav_forestdefaultmasters" x="-30%" y="-30%" width="160%" height="180%"><feGaussianBlur stdDeviation="1.05"/></filter></defs><g transform="translate(0 0)" opacity="1"><ellipse cx="12" cy="21" rx="7.6" ry="1.8" fill="#2B241C" opacity="0.13" filter="url(#ui_icon_nav_forestdefaultmasters)"/><defs><linearGradient id="ui_icon_nav_forestdefaultmasterg" x1="0" y1="0" x2="1" y2="1"><stop stop-color="#738F6B"/><stop offset="1" stop-color="#4D724E"/></linearGradient><linearGradient id="ui_icon_nav_forestdefaultmasterw" x1="0" y1="0" x2="1" y2="1"><stop stop-color="#D8AA70"/><stop offset="1" stop-color="#99643B"/></linearGradient></defs><path d="m5.3 14.5 3.3-6 3.3 6z" fill="url(#ui_icon_nav_forestdefaultmasterg)" stroke="#233F2D" stroke-width=".8"/><path d="m10 13 3.5-7 3.5 7z" fill="url(#ui_icon_nav_forestdefaultmasterg)" stroke="#233F2D" stroke-width=".8"/><path d="m14.1 15 2.8-5.3 2.8 5.3z" fill="url(#ui_icon_nav_forestdefaultmasterg)" stroke="#233F2D" stroke-width=".8"/><path d="M8.6 14v3M13.5 12.5v4.5M16.9 14.5V17" stroke="#99643B" stroke-width="1.2"/><path d="M4.2 18.4h15.6" stroke="url(#ui_icon_nav_forestdefaultmasterw)" stroke-width="2.3" stroke-linecap="round"/></g></svg><svg x="32" y="0" width="24" height="24" viewBox="0 0 24 24"><defs><filter id="ui_icon_nav_forestpressedmasters" x="-30%" y="-30%" width="160%" height="180%"><feGaussianBlur stdDeviation="1.05"/></filter></defs><g transform="translate(0 1)" opacity="1"><ellipse cx="12" cy="21" rx="7.6" ry="1.8" fill="#2B241C" opacity="0.07" filter="url(#ui_icon_nav_forestpressedmasters)"/><defs><linearGradient id="ui_icon_nav_forestpressedmasterg" x1="0" y1="0" x2="1" y2="1"><stop stop-color="#738F6B"/><stop offset="1" stop-color="#4D724E"/></linearGradient><linearGradient id="ui_icon_nav_forestpressedmasterw" x1="0" y1="0" x2="1" y2="1"><stop stop-color="#D8AA70"/><stop offset="1" stop-color="#99643B"/></linearGradient></defs><path d="m5.3 14.5 3.3-6 3.3 6z" fill="url(#ui_icon_nav_forestpressedmasterg)" stroke="#233F2D" stroke-width=".8"/><path d="m10 13 3.5-7 3.5 7z" fill="url(#ui_icon_nav_forestpressedmasterg)" stroke="#233F2D" stroke-width=".8"/><path d="m14.1 15 2.8-5.3 2.8 5.3z" fill="url(#ui_icon_nav_forestpressedmasterg)" stroke="#233F2D" stroke-width=".8"/><path d="M8.6 14v3M13.5 12.5v4.5M16.9 14.5V17" stroke="#99643B" stroke-width="1.2"/><path d="M4.2 18.4h15.6" stroke="url(#ui_icon_nav_forestpressedmasterw)" stroke-width="2.3" stroke-linecap="round"/></g></svg><svg x="64" y="0" width="24" height="24" viewBox="0 0 24 24"><defs><filter id="ui_icon_nav_forestdisabledmasters" x="-30%" y="-30%" width="160%" height="180%"><feGaussianBlur stdDeviation="1.05"/></filter></defs><g transform="translate(0 0)" opacity="0.42"><ellipse cx="12" cy="21" rx="7.6" ry="1.8" fill="#2B241C" opacity="0.04" filter="url(#ui_icon_nav_forestdisabledmasters)"/><defs><linearGradient id="ui_icon_nav_forestdisabledmasterg" x1="0" y1="0" x2="1" y2="1"><stop stop-color="#738F6B"/><stop offset="1" stop-color="#4D724E"/></linearGradient><linearGradient id="ui_icon_nav_forestdisabledmasterw" x1="0" y1="0" x2="1" y2="1"><stop stop-color="#D8AA70"/><stop offset="1" stop-color="#99643B"/></linearGradient></defs><path d="m5.3 14.5 3.3-6 3.3 6z" fill="url(#ui_icon_nav_forestdisabledmasterg)" stroke="#233F2D" stroke-width=".8"/><path d="m10 13 3.5-7 3.5 7z" fill="url(#ui_icon_nav_forestdisabledmasterg)" stroke="#233F2D" stroke-width=".8"/><path d="m14.1 15 2.8-5.3 2.8 5.3z" fill="url(#ui_icon_nav_forestdisabledmasterg)" stroke="#233F2D" stroke-width=".8"/><path d="M8.6 14v3M13.5 12.5v4.5M16.9 14.5V17" stroke="#99643B" stroke-width="1.2"/><path d="M4.2 18.4h15.6" stroke="url(#ui_icon_nav_forestdisabledmasterw)" stroke-width="2.3" stroke-linecap="round"/></g></svg><svg x="96" y="0" width="24" height="24" viewBox="0 0 24 24"><defs><filter id="ui_icon_nav_forestfocusedmasters" x="-30%" y="-30%" width="160%" height="180%"><feGaussianBlur stdDeviation="1.05"/></filter></defs><g transform="translate(0 0)" opacity="1"><ellipse cx="12" cy="21" rx="7.6" ry="1.8" fill="#2B241C" opacity="0.13" filter="url(#ui_icon_nav_forestfocusedmasters)"/><defs><linearGradient id="ui_icon_nav_forestfocusedmasterg" x1="0" y1="0" x2="1" y2="1"><stop stop-color="#738F6B"/><stop offset="1" stop-color="#4D724E"/></linearGradient><linearGradient id="ui_icon_nav_forestfocusedmasterw" x1="0" y1="0" x2="1" y2="1"><stop stop-color="#D8AA70"/><stop offset="1" stop-color="#99643B"/></linearGradient></defs><path d="m5.3 14.5 3.3-6 3.3 6z" fill="url(#ui_icon_nav_forestfocusedmasterg)" stroke="#233F2D" stroke-width=".8"/><path d="m10 13 3.5-7 3.5 7z" fill="url(#ui_icon_nav_forestfocusedmasterg)" stroke="#233F2D" stroke-width=".8"/><path d="m14.1 15 2.8-5.3 2.8 5.3z" fill="url(#ui_icon_nav_forestfocusedmasterg)" stroke="#233F2D" stroke-width=".8"/><path d="M8.6 14v3M13.5 12.5v4.5M16.9 14.5V17" stroke="#99643B" stroke-width="1.2"/><path d="M4.2 18.4h15.6" stroke="url(#ui_icon_nav_forestfocusedmasterw)" stroke-width="2.3" stroke-linecap="round"/></g></svg></svg>
