<?xml version="1.0" encoding="UTF-8"?>
<svg xmlns="http://www.w3.org/2000/svg" width="120" height="24" viewBox="0 0 120 24"><metadata>{"schema":"looper.ui.master.v1","asset_id":"ui_icon_knowledge","asset_version":"v001","visual_status":"Approved","states":["default","pressed","disabled","focused"],"style_lock":"Looper UI Style Lock v1.0 Approved","scalable":true,"transparent":true}</metadata><svg x="0" y="0" width="24" height="24" viewBox="0 0 24 24"><defs><filter id="ui_icon_knowledgedefaultmasters" x="-30%" y="-30%" width="160%" height="180%"><feGaussianBlur stdDeviation="1.05"/></filter></defs><g transform="translate(0 0)" opacity="1"><ellipse cx="12" cy="21" rx="7.6" ry="1.8" fill="#2B241C" opacity="0.13" filter="url(#ui_icon_knowledgedefaultmasters)"/><defs><linearGradient id="ui_icon_knowledgedefaultmasterc" x1="0" y1="0" x2="1" y2="1"><stop stop-color="#FFFDF7"/><stop offset="1" stop-color="#F8EEDB"/></linearGradient><linearGradient id="ui_icon_knowledgedefaultmastera" x1="0" y1="0" x2="1" y2="1"><stop stop-color="#FFD36B"/><stop offset="1" stop-color="#D99637"/></linearGradient></defs><path d="M3.6 8.2c3.2-.9 5.8-.3 8.4 1.7v8.4c-2.7-1.7-5.4-2.1-8.4-1.2z" fill="url(#ui_icon_knowledgedefaultmasterc)" stroke="#D8AA70" stroke-width="1"/><path d="M20.4 8.2c-3.2-.9-5.8-.3-8.4 1.7v8.4c2.7-1.7 5.4-2.1 8.4-1.2z" fill="url(#ui_icon_knowledgedefaultmasterc)" stroke="#D8AA70" stroke-width="1"/><circle cx="12" cy="5.4" r="3.1" fill="url(#ui_icon_knowledgedefaultmastera)" stroke="#B8732F" stroke-width=".9"/><path d="M10.8 8.4h2.4M10.5 4.8h3" stroke="#FFF3C5" stroke-width=".9" stroke-linecap="round"/></g></svg><svg x="32" y="0" width="24" height="24" viewBox="0 0 24 24"><defs><filter id="ui_icon_knowledgepressedmasters" x="-30%" y="-30%" width="160%" height="180%"><feGaussianBlur stdDeviation="1.05"/></filter></defs><g transform="translate(0 1)" opacity="1"><ellipse cx="12" cy="21" rx="7.6" ry="1.8" fill="#2B241C" opacity="0.07" filter="url(#ui_icon_knowledgepressedmasters)"/><defs><linearGradient id="ui_icon_knowledgepressedmasterc" x1="0" y1="0" x2="1" y2="1"><stop stop-color="#FFFDF7"/><stop offset="1" stop-color="#F8EEDB"/></linearGradient><linearGradient id="ui_icon_knowledgepressedmastera" x1="0" y1="0" x2="1" y2="1"><stop stop-color="#FFD36B"/><stop offset="1" stop-color="#D99637"/></linearGradient></defs><path d="M3.6 8.2c3.2-.9 5.8-.3 8.4 1.7v8.4c-2.7-1.7-5.4-2.1-8.4-1.2z" fill="url(#ui_icon_knowledgepressedmasterc)" stroke="#D8AA70" stroke-width="1"/><path d="M20.4 8.2c-3.2-.9-5.8-.3-8.4 1.7v8.4c2.7-1.7 5.4-2.1 8.4-1.2z" fill="url(#ui_icon_knowledgepressedmasterc)" stroke="#D8AA70" stroke-width="1"/><circle cx="12" cy="5.4" r="3.1" fill="url(#ui_icon_knowledgepressedmastera)" stroke="#B8732F" stroke-width=".9"/><path d="M10.8 8.4h2.4M10.5 4.8h3" stroke="#FFF3C5" stroke-width=".9" stroke-linecap="round"/></g></svg><svg x="64" y="0" width="24" height="24" viewBox="0 0 24 24"><defs><filter id="ui_icon_knowledgedisabledmasters" x="-30%" y="-30%" width="160%" height="180%"><feGaussianBlur stdDeviation="1.05"/></filter></defs><g transform="translate(0 0)" opacity="0.42"><ellipse cx="12" cy="21" rx="7.6" ry="1.8" fill="#2B241C" opacity="0.04" filter="url(#ui_icon_knowledgedisabledmasters)"/><defs><linearGradient id="ui_icon_knowledgedisabledmasterc" x1="0" y1="0" x2="1" y2="1"><stop stop-color="#FFFDF7"/><stop offset="1" stop-color="#F8EEDB"/></linearGradient><linearGradient id="ui_icon_knowledgedisabledmastera" x1="0" y1="0" x2="1" y2="1"><stop stop-color="#FFD36B"/><stop offset="1" stop-color="#D99637"/></linearGradient></defs><path d="M3.6 8.2c3.2-.9 5.8-.3 8.4 1.7v8.4c-2.7-1.7-5.4-2.1-8.4-1.2z" fill="url(#ui_icon_knowledgedisabledmasterc)" stroke="#D8AA70" stroke-width="1"/><path d="M20.4 8.2c-3.2-.9-5.8-.3-8.4 1.7v8.4c2.7-1.7 5.4-2.1 8.4-1.2z" fill="url(#ui_icon_knowledgedisabledmasterc)" stroke="#D8AA70" stroke-width="1"/><circle cx="12" cy="5.4" r="3.1" fill="url(#ui_icon_knowledgedisabledmastera)" stroke="#B8732F" stroke-width=".9"/><path d="M10.8 8.4h2.4M10.5 4.8h3" stroke="#FFF3C5" stroke-width=".9" stroke-linecap="round"/></g></svg><svg x="96" y="0" width="24" height="24" viewBox="0 0 24 24"><defs><filter id="ui_icon_knowledgefocusedmasters" x="-30%" y="-30%" width="160%" height="180%"><feGaussianBlur stdDeviation="1.05"/></filter></defs><g transform="translate(0 0)" opacity="1"><ellipse cx="12" cy="21" rx="7.6" ry="1.8" fill="#2B241C" opacity="0.13" filter="url(#ui_icon_knowledgefocusedmasters)"/><defs><linearGradient id="ui_icon_knowledgefocusedmasterc" x1="0" y1="0" x2="1" y2="1"><stop stop-color="#FFFDF7"/><stop offset="1" stop-color="#F8EEDB"/></linearGradient><linearGradient id="ui_icon_knowledgefocusedmastera" x1="0" y1="0" x2="1" y2="1"><stop stop-color="#FFD36B"/><stop offset="1" stop-color="#D99637"/></linearGradient></defs><path d="M3.6 8.2c3.2-.9 5.8-.3 8.4 1.7v8.4c-2.7-1.7-5.4-2.1-8.4-1.2z" fill="url(#ui_icon_knowledgefocusedmasterc)" stroke="#D8AA70" stroke-width="1"/><path d="M20.4 8.2c-3.2-.9-5.8-.3-8.4 1.7v8.4c2.7-1.7 5.4-2.1 8.4-1.2z" fill="url(#ui_icon_knowledgefocusedmasterc)" stroke="#D8AA70" stroke-width="1"/><circle cx="12" cy="5.4" r="3.1" fill="url(#ui_icon_knowledgefocusedmastera)" stroke="#B8732F" stroke-width=".9"/><path d="M10.8 8.4h2.4M10.5 4.8h3" stroke="#FFF3C5" stroke-width=".9" stroke-linecap="round"/></g></svg></svg>
