<?xml version="1.0" encoding="UTF-8"?>
<svg xmlns="http://www.w3.org/2000/svg" width="120" height="24" viewBox="0 0 120 24"><metadata>{"schema":"looper.ui.master.v1","asset_id":"ui_icon_memory","asset_version":"v001","visual_status":"Approved","states":["default","pressed","disabled","focused"],"style_lock":"Looper UI Style Lock v1.0 Approved","scalable":true,"transparent":true}</metadata><svg x="0" y="0" width="24" height="24" viewBox="0 0 24 24"><defs><filter id="ui_icon_memorydefaultmasters" x="-30%" y="-30%" width="160%" height="180%"><feGaussianBlur stdDeviation="1.05"/></filter></defs><g transform="translate(0 0)" opacity="1"><ellipse cx="12" cy="21" rx="7.6" ry="1.8" fill="#2B241C" opacity="0.13" filter="url(#ui_icon_memorydefaultmasters)"/><defs><linearGradient id="ui_icon_memorydefaultmasterw" x1="0" y1="0" x2="1" y2="1"><stop stop-color="#D8AA70"/><stop offset="1" stop-color="#99643B"/></linearGradient><linearGradient id="ui_icon_memorydefaultmasterc" x1="0" y1="0" x2="1" y2="1"><stop stop-color="#FFFDF7"/><stop offset="1" stop-color="#F8EEDB"/></linearGradient></defs><rect x="4.7" y="4.2" width="14.6" height="15.4" rx="2.3" fill="url(#ui_icon_memorydefaultmasterw)" stroke="#76503A" stroke-width="1.1"/><rect x="7" y="6.3" width="10.2" height="9" rx="1.3" fill="url(#ui_icon_memorydefaultmasterc)"/><circle cx="14.6" cy="9" r="1.5" fill="#E5AD48"/><path d="m7.7 14.4 3.1-3.3 2.1 2 1.5-1.4 2.1 2.7" fill="#738F6B" stroke="#233F2D" stroke-width=".7" stroke-linejoin="round"/><path d="M6.7 18h10.6" stroke="#80607E" stroke-width="1.5" stroke-linecap="round"/></g></svg><svg x="32" y="0" width="24" height="24" viewBox="0 0 24 24"><defs><filter id="ui_icon_memorypressedmasters" x="-30%" y="-30%" width="160%" height="180%"><feGaussianBlur stdDeviation="1.05"/></filter></defs><g transform="translate(0 1)" opacity="1"><ellipse cx="12" cy="21" rx="7.6" ry="1.8" fill="#2B241C" opacity="0.07" filter="url(#ui_icon_memorypressedmasters)"/><defs><linearGradient id="ui_icon_memorypressedmasterw" x1="0" y1="0" x2="1" y2="1"><stop stop-color="#D8AA70"/><stop offset="1" stop-color="#99643B"/></linearGradient><linearGradient id="ui_icon_memorypressedmasterc" x1="0" y1="0" x2="1" y2="1"><stop stop-color="#FFFDF7"/><stop offset="1" stop-color="#F8EEDB"/></linearGradient></defs><rect x="4.7" y="4.2" width="14.6" height="15.4" rx="2.3" fill="url(#ui_icon_memorypressedmasterw)" stroke="#76503A" stroke-width="1.1"/><rect x="7" y="6.3" width="10.2" height="9" rx="1.3" fill="url(#ui_icon_memorypressedmasterc)"/><circle cx="14.6" cy="9" r="1.5" fill="#E5AD48"/><path d="m7.7 14.4 3.1-3.3 2.1 2 1.5-1.4 2.1 2.7" fill="#738F6B" stroke="#233F2D" stroke-width=".7" stroke-linejoin="round"/><path d="M6.7 18h10.6" stroke="#80607E" stroke-width="1.5" stroke-linecap="round"/></g></svg><svg x="64" y="0" width="24" height="24" viewBox="0 0 24 24"><defs><filter id="ui_icon_memorydisabledmasters" x="-30%" y="-30%" width="160%" height="180%"><feGaussianBlur stdDeviation="1.05"/></filter></defs><g transform="translate(0 0)" opacity="0.42"><ellipse cx="12" cy="21" rx="7.6" ry="1.8" fill="#2B241C" opacity="0.04" filter="url(#ui_icon_memorydisabledmasters)"/><defs><linearGradient id="ui_icon_memorydisabledmasterw" x1="0" y1="0" x2="1" y2="1"><stop stop-color="#D8AA70"/><stop offset="1" stop-color="#99643B"/></linearGradient><linearGradient id="ui_icon_memorydisabledmasterc" x1="0" y1="0" x2="1" y2="1"><stop stop-color="#FFFDF7"/><stop offset="1" stop-color="#F8EEDB"/></linearGradient></defs><rect x="4.7" y="4.2" width="14.6" height="15.4" rx="2.3" fill="url(#ui_icon_memorydisabledmasterw)" stroke="#76503A" stroke-width="1.1"/><rect x="7" y="6.3" width="10.2" height="9" rx="1.3" fill="url(#ui_icon_memorydisabledmasterc)"/><circle cx="14.6" cy="9" r="1.5" fill="#E5AD48"/><path d="m7.7 14.4 3.1-3.3 2.1 2 1.5-1.4 2.1 2.7" fill="#738F6B" stroke="#233F2D" stroke-width=".7" stroke-linejoin="round"/><path d="M6.7 18h10.6" stroke="#80607E" stroke-width="1.5" stroke-linecap="round"/></g></svg><svg x="96" y="0" width="24" height="24" viewBox="0 0 24 24"><defs><filter id="ui_icon_memoryfocusedmasters" x="-30%" y="-30%" width="160%" height="180%"><feGaussianBlur stdDeviation="1.05"/></filter></defs><g transform="translate(0 0)" opacity="1"><ellipse cx="12" cy="21" rx="7.6" ry="1.8" fill="#2B241C" opacity="0.13" filter="url(#ui_icon_memoryfocusedmasters)"/><defs><linearGradient id="ui_icon_memoryfocusedmasterw" x1="0" y1="0" x2="1" y2="1"><stop stop-color="#D8AA70"/><stop offset="1" stop-color="#99643B"/></linearGradient><linearGradient id="ui_icon_memoryfocusedmasterc" x1="0" y1="0" x2="1" y2="1"><stop stop-color="#FFFDF7"/><stop offset="1" stop-color="#F8EEDB"/></linearGradient></defs><rect x="4.7" y="4.2" width="14.6" height="15.4" rx="2.3" fill="url(#ui_icon_memoryfocusedmasterw)" stroke="#76503A" stroke-width="1.1"/><rect x="7" y="6.3" width="10.2" height="9" rx="1.3" fill="url(#ui_icon_memoryfocusedmasterc)"/><circle cx="14.6" cy="9" r="1.5" fill="#E5AD48"/><path d="m7.7 14.4 3.1-3.3 2.1 2 1.5-1.4 2.1 2.7" fill="#738F6B" stroke="#233F2D" stroke-width=".7" stroke-linejoin="round"/><path d="M6.7 18h10.6" stroke="#80607E" stroke-width="1.5" stroke-linecap="round"/></g></svg></svg>
