<?xml version="1.0" encoding="UTF-8"?>
<svg xmlns="http://www.w3.org/2000/svg" width="120" height="24" viewBox="0 0 120 24"><metadata>{"schema":"looper.ui.master.v1","asset_id":"ui_icon_offline","asset_version":"v001","visual_status":"Approved","states":["default","pressed","disabled","focused"],"style_lock":"Looper UI Style Lock v1.0 Approved","scalable":true,"transparent":true}</metadata><svg x="0" y="0" width="24" height="24" viewBox="0 0 24 24"><defs><filter id="ui_icon_offlinedefaultmasters" x="-30%" y="-30%" width="160%" height="180%"><feGaussianBlur stdDeviation="1.1"/></filter></defs><g transform="translate(0 0)" opacity="1"><ellipse cx="12" cy="21" rx="7.4" ry="1.8" fill="#2B241C" opacity="0.13" filter="url(#ui_icon_offlinedefaultmasters)"/><defs><linearGradient id="ui_icon_offlinedefaultmasterg" x1="0" y1="0" x2="1" y2="1"><stop stop-color="#FFF4DD"/><stop offset="1" stop-color="#EFD5A6"/></linearGradient></defs><path d="M6.1 18.5h11.6a4 4 0 0 0 .2-8 6.2 6.2 0 0 0-11.8-1.2 4.6 4.6 0 0 0 0 9.2z" fill="url(#ui_icon_offlinedefaultmasterg)" stroke="#233F2D" stroke-width="1.2" stroke-linejoin="round"/><path d="M5.1 5.2 19 19.1" stroke="#C64E39" stroke-width="2.8" stroke-linecap="round"/><path d="m5.6 4.9 1.7.3" stroke="#FFFDF7" stroke-width="1.2" stroke-linecap="round" opacity=".7"/></g></svg><svg x="32" y="0" width="24" height="24" viewBox="0 0 24 24"><defs><filter id="ui_icon_offlinepressedmasters" x="-30%" y="-30%" width="160%" height="180%"><feGaussianBlur stdDeviation="1.1"/></filter></defs><g transform="translate(0 1)" opacity="1"><ellipse cx="12" cy="21" rx="7.4" ry="1.8" fill="#2B241C" opacity="0.07" filter="url(#ui_icon_offlinepressedmasters)"/><defs><linearGradient id="ui_icon_offlinepressedmasterg" x1="0" y1="0" x2="1" y2="1"><stop stop-color="#FFF4DD"/><stop offset="1" stop-color="#EFD5A6"/></linearGradient></defs><path d="M6.1 18.5h11.6a4 4 0 0 0 .2-8 6.2 6.2 0 0 0-11.8-1.2 4.6 4.6 0 0 0 0 9.2z" fill="url(#ui_icon_offlinepressedmasterg)" stroke="#233F2D" stroke-width="1.2" stroke-linejoin="round"/><path d="M5.1 5.2 19 19.1" stroke="#C64E39" stroke-width="2.8" stroke-linecap="round"/><path d="m5.6 4.9 1.7.3" stroke="#FFFDF7" stroke-width="1.2" stroke-linecap="round" opacity=".7"/></g></svg><svg x="64" y="0" width="24" height="24" viewBox="0 0 24 24"><defs><filter id="ui_icon_offlinedisabledmasters" x="-30%" y="-30%" width="160%" height="180%"><feGaussianBlur stdDeviation="1.1"/></filter></defs><g transform="translate(0 0)" opacity="0.42"><ellipse cx="12" cy="21" rx="7.4" ry="1.8" fill="#2B241C" opacity="0.04" filter="url(#ui_icon_offlinedisabledmasters)"/><defs><linearGradient id="ui_icon_offlinedisabledmasterg" x1="0" y1="0" x2="1" y2="1"><stop stop-color="#FFF4DD"/><stop offset="1" stop-color="#EFD5A6"/></linearGradient></defs><path d="M6.1 18.5h11.6a4 4 0 0 0 .2-8 6.2 6.2 0 0 0-11.8-1.2 4.6 4.6 0 0 0 0 9.2z" fill="url(#ui_icon_offlinedisabledmasterg)" stroke="#233F2D" stroke-width="1.2" stroke-linejoin="round"/><path d="M5.1 5.2 19 19.1" stroke="#C64E39" stroke-width="2.8" stroke-linecap="round"/><path d="m5.6 4.9 1.7.3" stroke="#FFFDF7" stroke-width="1.2" stroke-linecap="round" opacity=".7"/></g></svg><svg x="96" y="0" width="24" height="24" viewBox="0 0 24 24"><defs><filter id="ui_icon_offlinefocusedmasters" x="-30%" y="-30%" width="160%" height="180%"><feGaussianBlur stdDeviation="1.1"/></filter></defs><g transform="translate(0 0)" opacity="1"><ellipse cx="12" cy="21" rx="7.4" ry="1.8" fill="#2B241C" opacity="0.13" filter="url(#ui_icon_offlinefocusedmasters)"/><defs><linearGradient id="ui_icon_offlinefocusedmasterg" x1="0" y1="0" x2="1" y2="1"><stop stop-color="#FFF4DD"/><stop offset="1" stop-color="#EFD5A6"/></linearGradient></defs><path d="M6.1 18.5h11.6a4 4 0 0 0 .2-8 6.2 6.2 0 0 0-11.8-1.2 4.6 4.6 0 0 0 0 9.2z" fill="url(#ui_icon_offlinefocusedmasterg)" stroke="#233F2D" stroke-width="1.2" stroke-linejoin="round"/><path d="M5.1 5.2 19 19.1" stroke="#C64E39" stroke-width="2.8" stroke-linecap="round"/><path d="m5.6 4.9 1.7.3" stroke="#FFFDF7" stroke-width="1.2" stroke-linecap="round" opacity=".7"/></g></svg></svg>
