<?xml version="1.0" encoding="UTF-8"?>
<svg xmlns="http://www.w3.org/2000/svg" width="120" height="24" viewBox="0 0 120 24"><metadata>{"schema":"looper.ui.master.v1","asset_id":"ui_icon_retry","asset_version":"v001","visual_status":"Approved","states":["default","pressed","disabled","focused"],"style_lock":"Looper UI Style Lock v1.0 Approved","scalable":true,"transparent":true}</metadata><svg x="0" y="0" width="24" height="24" viewBox="0 0 24 24"><defs><filter id="ui_icon_retrydefaultmasters" x="-30%" y="-30%" width="160%" height="180%"><feGaussianBlur stdDeviation="1.1"/></filter></defs><g transform="translate(0 0)" opacity="1"><ellipse cx="12" cy="21" rx="7.4" ry="1.8" fill="#2B241C" opacity="0.13" filter="url(#ui_icon_retrydefaultmasters)"/><defs><linearGradient id="ui_icon_retrydefaultmasterg" x1="0" y1="0" x2="1" y2="1"><stop stop-color="#738F6B"/><stop offset="1" stop-color="#4D724E"/></linearGradient></defs><circle cx="12" cy="11.7" r="9" fill="#F8EEDB" stroke="#D8AA70" stroke-width="1.1"/><path d="M6.2 14.9A7 7 0 0 0 18 15.8" fill="none" stroke="url(#ui_icon_retrydefaultmasterg)" stroke-width="3" stroke-linecap="round"/><path d="M17.9 15.8v-4.2l3.1 2.2z" fill="#4D724E"/><path d="M17.8 8.2A7 7 0 0 0 6 7.5" fill="none" stroke="#99643B" stroke-width="3" stroke-linecap="round"/><path d="M6.1 7.5v4.2L3 9.5z" fill="#99643B"/></g></svg><svg x="32" y="0" width="24" height="24" viewBox="0 0 24 24"><defs><filter id="ui_icon_retrypressedmasters" x="-30%" y="-30%" width="160%" height="180%"><feGaussianBlur stdDeviation="1.1"/></filter></defs><g transform="translate(0 1)" opacity="1"><ellipse cx="12" cy="21" rx="7.4" ry="1.8" fill="#2B241C" opacity="0.07" filter="url(#ui_icon_retrypressedmasters)"/><defs><linearGradient id="ui_icon_retrypressedmasterg" x1="0" y1="0" x2="1" y2="1"><stop stop-color="#738F6B"/><stop offset="1" stop-color="#4D724E"/></linearGradient></defs><circle cx="12" cy="11.7" r="9" fill="#F8EEDB" stroke="#D8AA70" stroke-width="1.1"/><path d="M6.2 14.9A7 7 0 0 0 18 15.8" fill="none" stroke="url(#ui_icon_retrypressedmasterg)" stroke-width="3" stroke-linecap="round"/><path d="M17.9 15.8v-4.2l3.1 2.2z" fill="#4D724E"/><path d="M17.8 8.2A7 7 0 0 0 6 7.5" fill="none" stroke="#99643B" stroke-width="3" stroke-linecap="round"/><path d="M6.1 7.5v4.2L3 9.5z" fill="#99643B"/></g></svg><svg x="64" y="0" width="24" height="24" viewBox="0 0 24 24"><defs><filter id="ui_icon_retrydisabledmasters" x="-30%" y="-30%" width="160%" height="180%"><feGaussianBlur stdDeviation="1.1"/></filter></defs><g transform="translate(0 0)" opacity="0.42"><ellipse cx="12" cy="21" rx="7.4" ry="1.8" fill="#2B241C" opacity="0.04" filter="url(#ui_icon_retrydisabledmasters)"/><defs><linearGradient id="ui_icon_retrydisabledmasterg" x1="0" y1="0" x2="1" y2="1"><stop stop-color="#738F6B"/><stop offset="1" stop-color="#4D724E"/></linearGradient></defs><circle cx="12" cy="11.7" r="9" fill="#F8EEDB" stroke="#D8AA70" stroke-width="1.1"/><path d="M6.2 14.9A7 7 0 0 0 18 15.8" fill="none" stroke="url(#ui_icon_retrydisabledmasterg)" stroke-width="3" stroke-linecap="round"/><path d="M17.9 15.8v-4.2l3.1 2.2z" fill="#4D724E"/><path d="M17.8 8.2A7 7 0 0 0 6 7.5" fill="none" stroke="#99643B" stroke-width="3" stroke-linecap="round"/><path d="M6.1 7.5v4.2L3 9.5z" fill="#99643B"/></g></svg><svg x="96" y="0" width="24" height="24" viewBox="0 0 24 24"><defs><filter id="ui_icon_retryfocusedmasters" x="-30%" y="-30%" width="160%" height="180%"><feGaussianBlur stdDeviation="1.1"/></filter></defs><g transform="translate(0 0)" opacity="1"><ellipse cx="12" cy="21" rx="7.4" ry="1.8" fill="#2B241C" opacity="0.13" filter="url(#ui_icon_retryfocusedmasters)"/><defs><linearGradient id="ui_icon_retryfocusedmasterg" x1="0" y1="0" x2="1" y2="1"><stop stop-color="#738F6B"/><stop offset="1" stop-color="#4D724E"/></linearGradient></defs><circle cx="12" cy="11.7" r="9" fill="#F8EEDB" stroke="#D8AA70" stroke-width="1.1"/><path d="M6.2 14.9A7 7 0 0 0 18 15.8" fill="none" stroke="url(#ui_icon_retryfocusedmasterg)" stroke-width="3" stroke-linecap="round"/><path d="M17.9 15.8v-4.2l3.1 2.2z" fill="#4D724E"/><path d="M17.8 8.2A7 7 0 0 0 6 7.5" fill="none" stroke="#99643B" stroke-width="3" stroke-linecap="round"/><path d="M6.1 7.5v4.2L3 9.5z" fill="#99643B"/></g></svg></svg>
