<?xml version="1.0" encoding="UTF-8"?>
<svg xmlns="http://www.w3.org/2000/svg" xmlns:xlink="http://www.w3.org/1999/xlink" width="360" height="280" viewBox="0 0 360 280" role="img" data-asset-id="ui_empty_state" data-state="no_data" data-version="v002"><title>ui_empty_state no_data v002</title><desc>Refined compact 2.5D Looper empty-state illustration. Title, body and action remain live UI.</desc><metadata>{&quot;asset_id&quot;:&quot;ui_empty_state&quot;,&quot;asset_version&quot;:&quot;v002&quot;,&quot;visual_status&quot;:&quot;Approved&quot;,&quot;state&quot;:&quot;no_data&quot;,&quot;states&quot;:[&quot;no_data&quot;,&quot;locked&quot;,&quot;maintenance&quot;,&quot;offline&quot;],&quot;live_text_required&quot;:true,&quot;text_and_values_baked&quot;:false,&quot;default_locale&quot;:&quot;zh-Hant&quot;,&quot;semantic_role&quot;:&quot;group&quot;,&quot;decorative_illustration_alt_policy&quot;:&quot;state text supplies semantics; illustration may be hidden from accessibility tree&quot;}</metadata><defs>
  <linearGradient id="ui_empty_stateno_data-cream" x1="0" y1="0" x2="1" y2="1"><stop stop-color="#FFFDF7"/><stop offset="1" stop-color="#F8EEDB"/></linearGradient>
  <linearGradient id="ui_empty_stateno_data-sand" x1="0" y1="0" x2="1" y2="1"><stop stop-color="#FFF4DD"/><stop offset="1" stop-color="#EFD5A6"/></linearGradient>
  <linearGradient id="ui_empty_stateno_data-green" x1="0" y1="0" x2="1" y2="1"><stop stop-color="#738F6B"/><stop offset="1" stop-color="#4D724E"/></linearGradient>
  <linearGradient id="ui_empty_stateno_data-amber" x1="0" y1="0" x2="1" y2="1"><stop stop-color="#FFB743"/><stop offset="1" stop-color="#E87A19"/></linearGradient>
  <linearGradient id="ui_empty_stateno_data-violet" x1="0" y1="0" x2="1" y2="1"><stop stop-color="#A779B0"/><stop offset="1" stop-color="#6C4C78"/></linearGradient>
  <linearGradient id="ui_empty_stateno_data-coral" x1="0" y1="0" x2="1" y2="1"><stop stop-color="#F17A5D"/><stop offset="1" stop-color="#C64E39"/></linearGradient>
  <linearGradient id="ui_empty_stateno_data-wood" x1="0" y1="0" x2="0" y2="1"><stop stop-color="#D8AA70"/><stop offset="1" stop-color="#99643B"/></linearGradient>
  <pattern id="ui_empty_stateno_data-grain" width="22" height="22" patternUnits="userSpaceOnUse"><circle cx="5" cy="6" r="1" fill="#fff" opacity=".16"/><path d="M2 17q7-4 15 0" fill="none" stroke="#4C3323" opacity=".09"/></pattern>
  <filter id="ui_empty_stateno_data-shadow" x="-25%" y="-45%" width="150%" height="210%"><feGaussianBlur stdDeviation="3.2"/></filter>
</defs><defs><linearGradient id="eo-wood" x1="0" y1="0" x2="0" y2="1"><stop stop-color="#D9A96D"/><stop offset="1" stop-color="#9B6137"/></linearGradient><linearGradient id="eo-cream" x1="0" y1="0" x2="1" y2="1"><stop stop-color="#FFF6DF"/><stop offset="1" stop-color="#EBD2A4"/></linearGradient><linearGradient id="eo-metal" x1="0" y1="0" x2="1" y2="1"><stop stop-color="#E7D9B7"/><stop offset="1" stop-color="#88785C"/></linearGradient><pattern id="eo-grain" width="18" height="10" patternUnits="userSpaceOnUse"><path d="M0 4q5-3 10 0t8 0" fill="none" stroke="#6D462D" opacity=".18"/><circle cx="6" cy="8" r=".7" fill="#6D462D" opacity=".16"/></pattern></defs><ellipse cx="180" cy="177" rx="84" ry="15" fill="#3B3027" opacity=".13"/><g><path d="M103 104h154l-14 63q-63 20-126 0z" fill="url(#eo-wood)" stroke="#81512F" stroke-width="4"/><path d="M116 112h128l-8 31H124z" fill="url(#eo-cream)" stroke="#B9854D" stroke-width="3"/><path d="M121 151q59 19 118 0" fill="none" stroke="#F9DFAD" stroke-width="4"/><rect x="160" y="157" width="40" height="12" rx="5" fill="#6E8661" stroke="#4B603F" stroke-width="2"/><path d="M109 123h142" stroke="#F1C98E" opacity=".5"/> <rect x="104" y="104" width="152" height="63" fill="url(#eo-grain)" opacity=".35"/></g><rect data-live-title-slot="true" x="34" y="194" width="292" height="30" fill="none"/><rect data-live-body-slot="true" x="28" y="230" width="304" height="42" fill="none"/><rect data-live-action-slot="true" x="108" y="244" width="144" height="34" fill="none"/></svg>