<?xml version="1.0" encoding="UTF-8"?>
<svg xmlns="http://www.w3.org/2000/svg" width="24" height="24" viewBox="0 0 24 24"><metadata>{"schema":"looper.ui.asset.v1","asset_id":"ui_icon_character_tap","asset_version":"v001","visual_status":"Approved","state":"focused","states":["default","pressed","disabled","focused"],"style_lock":"Looper UI Style Lock v1.0 Approved","visual_grid":"24px","baked_text":false,"hit_target_external":true}</metadata><defs><filter id="ui_icon_character_tapfocuseds" x="-30%" y="-30%" width="160%" height="180%"><feGaussianBlur stdDeviation="1.05"/></filter></defs><g transform="translate(0 0)" opacity="1"><ellipse cx="12" cy="21" rx="7.6" ry="1.8" fill="#2B241C" opacity="0.13" filter="url(#ui_icon_character_tapfocuseds)"/><defs><linearGradient id="ui_icon_character_tapfocusedc" x1="0" y1="0" x2="1" y2="1"><stop stop-color="#FFFDF7"/><stop offset="1" stop-color="#EFD5A6"/></linearGradient><linearGradient id="ui_icon_character_tapfocusedg" x1="0" y1="0" x2="1" y2="1"><stop stop-color="#738F6B"/><stop offset="1" stop-color="#4D724E"/></linearGradient></defs><circle cx="9.2" cy="9.2" r="5.1" fill="url(#ui_icon_character_tapfocusedc)" stroke="#D8AA70" stroke-width="1.1"/><circle cx="9.2" cy="9.2" r="2.2" fill="none" stroke="#DDA84E" stroke-width="1.2"/><path d="M13.1 10.2c.7-.8 1.8-.8 2.4 0l.6.8c.5-.5 1.4-.3 1.8.3l.6 1c.7-.3 1.5.1 1.7.9l.4 1.4c.3 1.2-.1 2.5-1.1 3.3l-2.2 1.8c-1.4 1.1-3.3.9-4.5-.4l-2.4-2.7a1.5 1.5 0 0 1 2-2.2l.7.6z" fill="url(#ui_icon_character_tapfocusedg)" stroke="#233F2D" stroke-width="1" stroke-linejoin="round"/><path d="M14.1 12.4V7.8a1.25 1.25 0 0 1 2.5 0v4.6" fill="url(#ui_icon_character_tapfocusedg)" stroke="#233F2D" stroke-width="1" stroke-linecap="round"/></g></svg>
