<?xml version="1.0" encoding="UTF-8"?>
<svg xmlns="http://www.w3.org/2000/svg" width="24" height="24" viewBox="0 0 24 24">
<metadata>{"schema":"looper.ui.asset.v1","asset_id":"ui_icon_question","asset_version":"v001","visual_status":"Approved","state":"default","states":["default","pressed","disabled","focused"],"style_lock":"Looper UI Style Lock v1.0 Approved","visual_grid":"24px","baked_text":false,"hit_target_external":true,"reduce_motion":"not applicable"}</metadata><defs><filter id="ui_icon_questiondefaults" x="-30%" y="-30%" width="160%" height="180%"><feGaussianBlur stdDeviation="1.1"/></filter></defs><g transform="translate(0 0)" opacity="1"><ellipse cx="12" cy="21" rx="7.3" ry="1.8" fill="#2B241C" opacity="0.13" filter="url(#ui_icon_questiondefaults)"/><defs><linearGradient id="ui_icon_questiondefaultg" x1="0" y1="0" x2="1" y2="1"><stop stop-color="#FFF4DD"/><stop offset="1" stop-color="#EFD5A6"/></linearGradient></defs><path d="M4 3.6h16a2.3 2.3 0 0 1 2.3 2.3v10.2a2.3 2.3 0 0 1-2.3 2.3h-6l-3.7 3v-3H4a2.3 2.3 0 0 1-2.3-2.3V5.9A2.3 2.3 0 0 1 4 3.6z" fill="url(#ui_icon_questiondefaultg)" stroke="#99643B" stroke-width="1.1" stroke-linejoin="round"/><path d="M5.2 6.4h8.5" fill="none" stroke="#FFFDF7" stroke-width="1.3" stroke-linecap="round" opacity=".46"/><path d="M9.1 9.2a3 3 0 1 1 4.2 2.7c-.9.45-1.3 1-1.3 2" fill="none" stroke="#233F2D" stroke-width="2.3" stroke-linecap="round"/><circle cx="12" cy="16.8" r="1.25" fill="#233F2D"/></g></svg>
