<?xml version="1.0" encoding="UTF-8"?>
<svg xmlns="http://www.w3.org/2000/svg" width="120" height="24" viewBox="0 0 120 24"><metadata>{"schema":"looper.ui.master.v1","asset_id":"ui_icon_light","asset_version":"v001","visual_status":"Approved","states":["default","pressed","disabled","focused"],"style_lock":"Looper UI Style Lock v1.0 Approved","scalable":true,"transparent":true}</metadata><svg x="0" y="0" width="24" height="24" viewBox="0 0 24 24"><defs><filter id="ui_icon_lightdefaultmasters" x="-30%" y="-30%" width="160%" height="180%"><feGaussianBlur stdDeviation="1.05"/></filter></defs><g transform="translate(0 0)" opacity="1"><ellipse cx="12" cy="21" rx="7.6" ry="1.8" fill="#2B241C" opacity="0.13" filter="url(#ui_icon_lightdefaultmasters)"/><defs><radialGradient id="ui_icon_lightdefaultmastera"><stop stop-color="#FFF1A8"/><stop offset="1" stop-color="#E39A34"/></radialGradient><linearGradient id="ui_icon_lightdefaultmasterw" x1="0" y1="0" x2="1" y2="1"><stop stop-color="#D8AA70"/><stop offset="1" stop-color="#99643B"/></linearGradient></defs><path d="M7.1 11.2 9 5.1h6l1.9 6.1z" fill="url(#ui_icon_lightdefaultmastera)" stroke="#B9702E" stroke-width="1.1" stroke-linejoin="round"/><ellipse cx="12" cy="11.2" rx="5.1" ry="1.4" fill="#F8C35B" opacity=".72"/><path d="M12 11.5v5.2" stroke="url(#ui_icon_lightdefaultmasterw)" stroke-width="2.1" stroke-linecap="round"/><rect x="8" y="16.3" width="8" height="3.1" rx="1.5" fill="url(#ui_icon_lightdefaultmasterw)" stroke="#815034" stroke-width=".9"/><path d="M9.4 6.4h5.2" stroke="#FFF8D3" stroke-width="1.1" stroke-linecap="round" opacity=".72"/></g></svg><svg x="32" y="0" width="24" height="24" viewBox="0 0 24 24"><defs><filter id="ui_icon_lightpressedmasters" x="-30%" y="-30%" width="160%" height="180%"><feGaussianBlur stdDeviation="1.05"/></filter></defs><g transform="translate(0 1)" opacity="1"><ellipse cx="12" cy="21" rx="7.6" ry="1.8" fill="#2B241C" opacity="0.07" filter="url(#ui_icon_lightpressedmasters)"/><defs><radialGradient id="ui_icon_lightpressedmastera"><stop stop-color="#FFF1A8"/><stop offset="1" stop-color="#E39A34"/></radialGradient><linearGradient id="ui_icon_lightpressedmasterw" x1="0" y1="0" x2="1" y2="1"><stop stop-color="#D8AA70"/><stop offset="1" stop-color="#99643B"/></linearGradient></defs><path d="M7.1 11.2 9 5.1h6l1.9 6.1z" fill="url(#ui_icon_lightpressedmastera)" stroke="#B9702E" stroke-width="1.1" stroke-linejoin="round"/><ellipse cx="12" cy="11.2" rx="5.1" ry="1.4" fill="#F8C35B" opacity=".72"/><path d="M12 11.5v5.2" stroke="url(#ui_icon_lightpressedmasterw)" stroke-width="2.1" stroke-linecap="round"/><rect x="8" y="16.3" width="8" height="3.1" rx="1.5" fill="url(#ui_icon_lightpressedmasterw)" stroke="#815034" stroke-width=".9"/><path d="M9.4 6.4h5.2" stroke="#FFF8D3" stroke-width="1.1" stroke-linecap="round" opacity=".72"/></g></svg><svg x="64" y="0" width="24" height="24" viewBox="0 0 24 24"><defs><filter id="ui_icon_lightdisabledmasters" x="-30%" y="-30%" width="160%" height="180%"><feGaussianBlur stdDeviation="1.05"/></filter></defs><g transform="translate(0 0)" opacity="0.42"><ellipse cx="12" cy="21" rx="7.6" ry="1.8" fill="#2B241C" opacity="0.04" filter="url(#ui_icon_lightdisabledmasters)"/><defs><radialGradient id="ui_icon_lightdisabledmastera"><stop stop-color="#FFF1A8"/><stop offset="1" stop-color="#E39A34"/></radialGradient><linearGradient id="ui_icon_lightdisabledmasterw" x1="0" y1="0" x2="1" y2="1"><stop stop-color="#D8AA70"/><stop offset="1" stop-color="#99643B"/></linearGradient></defs><path d="M7.1 11.2 9 5.1h6l1.9 6.1z" fill="url(#ui_icon_lightdisabledmastera)" stroke="#B9702E" stroke-width="1.1" stroke-linejoin="round"/><ellipse cx="12" cy="11.2" rx="5.1" ry="1.4" fill="#F8C35B" opacity=".72"/><path d="M12 11.5v5.2" stroke="url(#ui_icon_lightdisabledmasterw)" stroke-width="2.1" stroke-linecap="round"/><rect x="8" y="16.3" width="8" height="3.1" rx="1.5" fill="url(#ui_icon_lightdisabledmasterw)" stroke="#815034" stroke-width=".9"/><path d="M9.4 6.4h5.2" stroke="#FFF8D3" stroke-width="1.1" stroke-linecap="round" opacity=".72"/></g></svg><svg x="96" y="0" width="24" height="24" viewBox="0 0 24 24"><defs><filter id="ui_icon_lightfocusedmasters" x="-30%" y="-30%" width="160%" height="180%"><feGaussianBlur stdDeviation="1.05"/></filter></defs><g transform="translate(0 0)" opacity="1"><ellipse cx="12" cy="21" rx="7.6" ry="1.8" fill="#2B241C" opacity="0.13" filter="url(#ui_icon_lightfocusedmasters)"/><defs><radialGradient id="ui_icon_lightfocusedmastera"><stop stop-color="#FFF1A8"/><stop offset="1" stop-color="#E39A34"/></radialGradient><linearGradient id="ui_icon_lightfocusedmasterw" x1="0" y1="0" x2="1" y2="1"><stop stop-color="#D8AA70"/><stop offset="1" stop-color="#99643B"/></linearGradient></defs><path d="M7.1 11.2 9 5.1h6l1.9 6.1z" fill="url(#ui_icon_lightfocusedmastera)" stroke="#B9702E" stroke-width="1.1" stroke-linejoin="round"/><ellipse cx="12" cy="11.2" rx="5.1" ry="1.4" fill="#F8C35B" opacity=".72"/><path d="M12 11.5v5.2" stroke="url(#ui_icon_lightfocusedmasterw)" stroke-width="2.1" stroke-linecap="round"/><rect x="8" y="16.3" width="8" height="3.1" rx="1.5" fill="url(#ui_icon_lightfocusedmasterw)" stroke="#815034" stroke-width=".9"/><path d="M9.4 6.4h5.2" stroke="#FFF8D3" stroke-width="1.1" stroke-linecap="round" opacity=".72"/></g></svg></svg>
