<?xml version="1.0" encoding="UTF-8"?>
<svg xmlns="http://www.w3.org/2000/svg" width="120" height="24" viewBox="0 0 120 24"><metadata>{"schema":"looper.ui.master.v1","asset_id":"ui_icon_water","asset_version":"v001","visual_status":"Approved","states":["default","pressed","disabled","focused"],"style_lock":"Looper UI Style Lock v1.0 Approved","scalable":true,"transparent":true}</metadata><svg x="0" y="0" width="24" height="24" viewBox="0 0 24 24"><defs><filter id="ui_icon_waterdefaultmasters" x="-30%" y="-30%" width="160%" height="180%"><feGaussianBlur stdDeviation="1.05"/></filter></defs><g transform="translate(0 0)" opacity="1"><ellipse cx="12" cy="21" rx="7.6" ry="1.8" fill="#2B241C" opacity="0.13" filter="url(#ui_icon_waterdefaultmasters)"/><defs><linearGradient id="ui_icon_waterdefaultmasterg" x1="0" y1="0" x2="1" y2="1"><stop stop-color="#738F6B"/><stop offset="1" stop-color="#4D724E"/></linearGradient><linearGradient id="ui_icon_waterdefaultmasterb" x1="0" y1="0" x2="1" y2="1"><stop stop-color="#8ED5DE"/><stop offset="1" stop-color="#4298B0"/></linearGradient></defs><path d="M5.2 10.1h10.3v8.4a2 2 0 0 1-2 2H7.2a2 2 0 0 1-2-2z" fill="url(#ui_icon_waterdefaultmasterg)" stroke="#233F2D" stroke-width="1.1"/><path d="M7 10.2V8.4a4.1 4.1 0 0 1 8.2 0v1.8" fill="none" stroke="#4D724E" stroke-width="2"/><path d="m15.2 11.4 4.2-2.8 1.4 2.1-4.8 3.8" fill="url(#ui_icon_waterdefaultmasterg)" stroke="#233F2D" stroke-width="1" stroke-linejoin="round"/><path d="M20 14.3c1.2 1.4 1.4 2.2 1.4 2.8a1.4 1.4 0 0 1-2.8 0c0-.6.3-1.4 1.4-2.8z" fill="url(#ui_icon_waterdefaultmasterb)" stroke="#32778F" stroke-width=".8"/><path d="M7.3 12.5h5.7" stroke="#C7DFC6" stroke-width="1.1" stroke-linecap="round" opacity=".6"/></g></svg><svg x="32" y="0" width="24" height="24" viewBox="0 0 24 24"><defs><filter id="ui_icon_waterpressedmasters" x="-30%" y="-30%" width="160%" height="180%"><feGaussianBlur stdDeviation="1.05"/></filter></defs><g transform="translate(0 1)" opacity="1"><ellipse cx="12" cy="21" rx="7.6" ry="1.8" fill="#2B241C" opacity="0.07" filter="url(#ui_icon_waterpressedmasters)"/><defs><linearGradient id="ui_icon_waterpressedmasterg" x1="0" y1="0" x2="1" y2="1"><stop stop-color="#738F6B"/><stop offset="1" stop-color="#4D724E"/></linearGradient><linearGradient id="ui_icon_waterpressedmasterb" x1="0" y1="0" x2="1" y2="1"><stop stop-color="#8ED5DE"/><stop offset="1" stop-color="#4298B0"/></linearGradient></defs><path d="M5.2 10.1h10.3v8.4a2 2 0 0 1-2 2H7.2a2 2 0 0 1-2-2z" fill="url(#ui_icon_waterpressedmasterg)" stroke="#233F2D" stroke-width="1.1"/><path d="M7 10.2V8.4a4.1 4.1 0 0 1 8.2 0v1.8" fill="none" stroke="#4D724E" stroke-width="2"/><path d="m15.2 11.4 4.2-2.8 1.4 2.1-4.8 3.8" fill="url(#ui_icon_waterpressedmasterg)" stroke="#233F2D" stroke-width="1" stroke-linejoin="round"/><path d="M20 14.3c1.2 1.4 1.4 2.2 1.4 2.8a1.4 1.4 0 0 1-2.8 0c0-.6.3-1.4 1.4-2.8z" fill="url(#ui_icon_waterpressedmasterb)" stroke="#32778F" stroke-width=".8"/><path d="M7.3 12.5h5.7" stroke="#C7DFC6" stroke-width="1.1" stroke-linecap="round" opacity=".6"/></g></svg><svg x="64" y="0" width="24" height="24" viewBox="0 0 24 24"><defs><filter id="ui_icon_waterdisabledmasters" x="-30%" y="-30%" width="160%" height="180%"><feGaussianBlur stdDeviation="1.05"/></filter></defs><g transform="translate(0 0)" opacity="0.42"><ellipse cx="12" cy="21" rx="7.6" ry="1.8" fill="#2B241C" opacity="0.04" filter="url(#ui_icon_waterdisabledmasters)"/><defs><linearGradient id="ui_icon_waterdisabledmasterg" x1="0" y1="0" x2="1" y2="1"><stop stop-color="#738F6B"/><stop offset="1" stop-color="#4D724E"/></linearGradient><linearGradient id="ui_icon_waterdisabledmasterb" x1="0" y1="0" x2="1" y2="1"><stop stop-color="#8ED5DE"/><stop offset="1" stop-color="#4298B0"/></linearGradient></defs><path d="M5.2 10.1h10.3v8.4a2 2 0 0 1-2 2H7.2a2 2 0 0 1-2-2z" fill="url(#ui_icon_waterdisabledmasterg)" stroke="#233F2D" stroke-width="1.1"/><path d="M7 10.2V8.4a4.1 4.1 0 0 1 8.2 0v1.8" fill="none" stroke="#4D724E" stroke-width="2"/><path d="m15.2 11.4 4.2-2.8 1.4 2.1-4.8 3.8" fill="url(#ui_icon_waterdisabledmasterg)" stroke="#233F2D" stroke-width="1" stroke-linejoin="round"/><path d="M20 14.3c1.2 1.4 1.4 2.2 1.4 2.8a1.4 1.4 0 0 1-2.8 0c0-.6.3-1.4 1.4-2.8z" fill="url(#ui_icon_waterdisabledmasterb)" stroke="#32778F" stroke-width=".8"/><path d="M7.3 12.5h5.7" stroke="#C7DFC6" stroke-width="1.1" stroke-linecap="round" opacity=".6"/></g></svg><svg x="96" y="0" width="24" height="24" viewBox="0 0 24 24"><defs><filter id="ui_icon_waterfocusedmasters" x="-30%" y="-30%" width="160%" height="180%"><feGaussianBlur stdDeviation="1.05"/></filter></defs><g transform="translate(0 0)" opacity="1"><ellipse cx="12" cy="21" rx="7.6" ry="1.8" fill="#2B241C" opacity="0.13" filter="url(#ui_icon_waterfocusedmasters)"/><defs><linearGradient id="ui_icon_waterfocusedmasterg" x1="0" y1="0" x2="1" y2="1"><stop stop-color="#738F6B"/><stop offset="1" stop-color="#4D724E"/></linearGradient><linearGradient id="ui_icon_waterfocusedmasterb" x1="0" y1="0" x2="1" y2="1"><stop stop-color="#8ED5DE"/><stop offset="1" stop-color="#4298B0"/></linearGradient></defs><path d="M5.2 10.1h10.3v8.4a2 2 0 0 1-2 2H7.2a2 2 0 0 1-2-2z" fill="url(#ui_icon_waterfocusedmasterg)" stroke="#233F2D" stroke-width="1.1"/><path d="M7 10.2V8.4a4.1 4.1 0 0 1 8.2 0v1.8" fill="none" stroke="#4D724E" stroke-width="2"/><path d="m15.2 11.4 4.2-2.8 1.4 2.1-4.8 3.8" fill="url(#ui_icon_waterfocusedmasterg)" stroke="#233F2D" stroke-width="1" stroke-linejoin="round"/><path d="M20 14.3c1.2 1.4 1.4 2.2 1.4 2.8a1.4 1.4 0 0 1-2.8 0c0-.6.3-1.4 1.4-2.8z" fill="url(#ui_icon_waterfocusedmasterb)" stroke="#32778F" stroke-width=".8"/><path d="M7.3 12.5h5.7" stroke="#C7DFC6" stroke-width="1.1" stroke-linecap="round" opacity=".6"/></g></svg></svg>
