<?xml version="1.0" encoding="UTF-8"?>
<svg xmlns="http://www.w3.org/2000/svg" xmlns:xlink="http://www.w3.org/1999/xlink" width="320" height="180" viewBox="0 0 320 180"><metadata>{&quot;schema&quot;:&quot;looper.ui.asset.v1&quot;,&quot;asset_id&quot;:&quot;ui_task_card&quot;,&quot;asset_version&quot;:&quot;v001&quot;,&quot;visual_status&quot;:&quot;Approved&quot;,&quot;state&quot;:&quot;completed&quot;,&quot;states&quot;:[&quot;loading&quot;,&quot;available&quot;,&quot;in_progress&quot;,&quot;completed&quot;,&quot;claimed&quot;,&quot;unavailable&quot;,&quot;expired&quot;],&quot;style_lock&quot;:&quot;Looper UI Style Lock v1.0 Approved&quot;,&quot;scalable&quot;:true,&quot;transparent&quot;:true,&quot;baked_text&quot;:false,&quot;live_slots&quot;:true}</metadata><defs><linearGradient id="uitaskcardcompletedcream" x1="0" y1="0" x2="1" y2="1"><stop stop-color="#FFFDF7"/><stop offset="1" stop-color="#F8EEDB"/></linearGradient><linearGradient id="uitaskcardcompletedwood" x1="0" y1="0" x2="1" y2="1"><stop stop-color="#D8AA70"/><stop offset="1" stop-color="#99643B"/></linearGradient><linearGradient id="uitaskcardcompletedgreen" x1="0" y1="0" x2="1" y2="1"><stop stop-color="#738F6B"/><stop offset="1" stop-color="#4D724E"/></linearGradient><linearGradient id="uitaskcardcompletedamber" x1="0" y1="0" x2="1" y2="1"><stop stop-color="#F2C15C"/><stop offset="1" stop-color="#C77B32"/></linearGradient><filter id="uitaskcardcompletedshadow" x="-20%" y="-20%" width="140%" height="160%"><feGaussianBlur stdDeviation="3"/></filter></defs><g opacity="1"><ellipse cx="160" cy="171" rx="128" ry="7" fill="#3A2A1E" opacity=".12" filter="url(#uitaskcardcompletedshadow)"/><rect x="8" y="10" width="304" height="154" rx="26" fill="#99643B"/><rect x="8" y="5" width="304" height="154" rx="26" fill="url(#uitaskcardcompletedcream)" stroke="#D5A947" stroke-width="2.5"/><rect x="24" y="23" width="72" height="104" rx="20" fill="#F0DFC1"/><path d="M47 48h26v34H47zM52 41h16v8" fill="none" stroke="#956A43" stroke-width="2"/><circle cx="60" cy="96" r="10" fill="url(#uitaskcardcompletedgreen)"/><path d="m55 96 4 4 7-8" fill="none" stroke="#FFF3CC" stroke-width="2" stroke-linecap="round" stroke-linejoin="round"/><rect x="118" y="29" width="134" height="14" rx="7" fill="#D8C09A" opacity="0.58"/><rect x="118" y="57" width="103" height="10" rx="5" fill="#D8C09A" opacity=".4"/><rect x="118" y="82" width="124" height="10" rx="5" fill="#D8C09A" opacity=".4"/><rect x="118" y="117" width="154" height="16" rx="8" fill="#E4D1AE"/><rect x="118" y="117" width="154" height="16" rx="8" fill="url(#uitaskcardcompletedgreen)"/><g transform="translate(272 18)"><circle cx="12" cy="12" r="11" fill="#628257" stroke="#76503A"/><path d="M6 12l4 4 8-9" fill="none" stroke="#FFF3D3" stroke-width="2" stroke-linecap="round" stroke-linejoin="round"/></g></g></svg>
