<?xml version="1.0" encoding="UTF-8"?>
<svg xmlns="http://www.w3.org/2000/svg" xmlns:xlink="http://www.w3.org/1999/xlink" width="240" height="160" viewBox="0 0 240 160"><metadata>{&quot;schema&quot;:&quot;looper.ui.asset.v1&quot;,&quot;asset_id&quot;:&quot;ui_inventory_card&quot;,&quot;asset_version&quot;:&quot;v001&quot;,&quot;visual_status&quot;:&quot;Approved&quot;,&quot;state&quot;:&quot;owned&quot;,&quot;states&quot;:[&quot;locked&quot;,&quot;owned&quot;,&quot;equipped&quot;,&quot;placed&quot;,&quot;unavailable&quot;],&quot;style_lock&quot;:&quot;Looper UI Style Lock v1.0 Approved&quot;,&quot;scalable&quot;:true,&quot;transparent&quot;:true,&quot;baked_text&quot;:false,&quot;live_slots&quot;:true}</metadata><defs><linearGradient id="uiinventorycardownedcream" x1="0" y1="0" x2="1" y2="1"><stop stop-color="#FFFDF7"/><stop offset="1" stop-color="#F8EEDB"/></linearGradient><linearGradient id="uiinventorycardownedwood" x1="0" y1="0" x2="1" y2="1"><stop stop-color="#D8AA70"/><stop offset="1" stop-color="#99643B"/></linearGradient><linearGradient id="uiinventorycardownedgreen" x1="0" y1="0" x2="1" y2="1"><stop stop-color="#738F6B"/><stop offset="1" stop-color="#4D724E"/></linearGradient><linearGradient id="uiinventorycardownedamber" x1="0" y1="0" x2="1" y2="1"><stop stop-color="#F2C15C"/><stop offset="1" stop-color="#C77B32"/></linearGradient><filter id="uiinventorycardownedshadow" x="-20%" y="-20%" width="140%" height="160%"><feGaussianBlur stdDeviation="3"/></filter></defs><g opacity="1" transform="translate(0 0)"><ellipse cx="120" cy="151" rx="92" ry="7" fill="#3A2A1E" opacity=".12" filter="url(#uiinventorycardownedshadow)"/><rect x="8" y="8" width="224" height="136" rx="24" fill="#99643B"/><rect x="8" y="5" width="224" height="136" rx="24" fill="url(#uiinventorycardownedcream)" stroke="#D8AA70" stroke-width="1.5"/><rect x="22" y="20" width="116" height="102" rx="18" fill="#F1E2C9" stroke="#D1A86E" stroke-width="1.2"/><ellipse cx="80" cy="108" rx="39" ry="6" fill="#77583C" opacity=".12"/><path d="M55 95V65l25-15 25 15v30z" fill="url(#uiinventorycardownedwood)" stroke="#76503A" stroke-width="1.5"/><path d="M68 95V76h24v19M58 65h44" fill="none" stroke="#E8BF76" stroke-width="2"/><rect x="154" y="34" width="54" height="12" rx="6" fill="#D9C09A" opacity=".55"/><rect x="154" y="58" width="42" height="9" rx="4.5" fill="#D9C09A" opacity=".38"/><rect x="154" y="95" width="62" height="21" rx="10.5" fill="url(#uiinventorycardownedgreen)"/><g transform="translate(197 18)"><circle cx="12" cy="12" r="11" fill="#628257" stroke="#7A5438" stroke-width="1.2"/><path d="m6 11 3 3 7-7" fill="none" stroke="#FFF4D2" stroke-width="2" stroke-linecap="round" stroke-linejoin="round"/></g></g></svg>
