<?xml version="1.0" encoding="UTF-8"?>
<svg xmlns="http://www.w3.org/2000/svg" xmlns:xlink="http://www.w3.org/1999/xlink" width="344" height="72" viewBox="0 0 344 72" role="progressbar" data-asset-id="ui_exp_progress" data-state="partial" data-version="v003"><title>ui_exp_progress partial v003</title><desc>Textless Looper progress component with a leading semantic icon. Values and units remain live UI.</desc><metadata>{&quot;asset_id&quot;:&quot;ui_exp_progress&quot;,&quot;asset_version&quot;:&quot;v003&quot;,&quot;visual_status&quot;:&quot;Approved&quot;,&quot;state&quot;:&quot;partial&quot;,&quot;states&quot;:[&quot;empty&quot;,&quot;partial&quot;,&quot;complete&quot;,&quot;max&quot;],&quot;live_text_required&quot;:true,&quot;text_and_values_baked&quot;:false,&quot;default_locale&quot;:&quot;zh-Hant&quot;,&quot;semantic_role&quot;:&quot;progressbar&quot;,&quot;central_state_id&quot;:&quot;partial&quot;,&quot;runtime_mapping&quot;:{&quot;runtime_state&quot;:&quot;partial&quot;,&quot;persistence&quot;:&quot;persistent&quot;},&quot;leading_icon_required&quot;:true}</metadata><defs>
  <linearGradient id="progress-exp-cream" x1="0" y1="0" x2="1" y2="1"><stop stop-color="#FFFDF7"/><stop offset="1" stop-color="#F8EEDB"/></linearGradient>
  <linearGradient id="progress-exp-sand" x1="0" y1="0" x2="1" y2="1"><stop stop-color="#FFF4DD"/><stop offset="1" stop-color="#EFD5A6"/></linearGradient>
  <linearGradient id="progress-exp-green" x1="0" y1="0" x2="1" y2="1"><stop stop-color="#738F6B"/><stop offset="1" stop-color="#4D724E"/></linearGradient>
  <linearGradient id="progress-exp-amber" x1="0" y1="0" x2="1" y2="1"><stop stop-color="#FFB743"/><stop offset="1" stop-color="#E87A19"/></linearGradient>
  <linearGradient id="progress-exp-violet" x1="0" y1="0" x2="1" y2="1"><stop stop-color="#A779B0"/><stop offset="1" stop-color="#6C4C78"/></linearGradient>
  <linearGradient id="progress-exp-coral" x1="0" y1="0" x2="1" y2="1"><stop stop-color="#F17A5D"/><stop offset="1" stop-color="#C64E39"/></linearGradient>
  <linearGradient id="progress-exp-wood" x1="0" y1="0" x2="0" y2="1"><stop stop-color="#D8AA70"/><stop offset="1" stop-color="#99643B"/></linearGradient>
  <pattern id="progress-exp-grain" width="22" height="22" patternUnits="userSpaceOnUse"><circle cx="5" cy="6" r="1" fill="#fff" opacity=".16"/><path d="M2 17q7-4 15 0" fill="none" stroke="#4C3323" opacity=".09"/></pattern>
  <filter id="progress-exp-shadow" x="-25%" y="-45%" width="150%" height="210%"><feGaussianBlur stdDeviation="3.2"/></filter>
</defs><rect x="43" y="24" width="289" height="39" rx="20" fill="#2A2219" opacity=".14" filter="url(#progress-exp-shadow)"/><rect x="37" y="18" width="297" height="42" rx="21" fill="#B9874F"/><rect x="37" y="10" width="297" height="42" rx="21" fill="url(#progress-exp-cream)" stroke="#D8B273" stroke-width="1.5"/><rect x="48" y="17" width="274" height="28" rx="14" fill="#DFD1B7" opacity=".55"/><rect x="48" y="22" width="132" height="28" rx="14" fill="#4D3559"/><rect x="48" y="17" width="132" height="28" rx="14" fill="url(#progress-exp-violet)"/><path d="M60 23H174" stroke="#FFF" stroke-width="2.5" stroke-linecap="round" opacity=".22"/><circle cx="37" cy="34" r="25" fill="url(#progress-exp-violet)" stroke="#D2AE70" stroke-width="2"/><path d="M37 46V24M28 33l9-10 9 10" fill="none" stroke="#FFF8E8" stroke-width="5" stroke-linecap="round" stroke-linejoin="round"/><rect data-live-value-slot="true" x="66" y="0" width="268" height="70" fill="none"/></svg>