<?xml version="1.0" encoding="UTF-8"?>
<svg xmlns="http://www.w3.org/2000/svg" xmlns:xlink="http://www.w3.org/1999/xlink" width="280" height="160" viewBox="0 0 280 160"><metadata>{&quot;schema&quot;:&quot;looper.ui.asset.v1&quot;,&quot;asset_id&quot;:&quot;ui_settlement_card&quot;,&quot;asset_version&quot;:&quot;v001&quot;,&quot;visual_status&quot;:&quot;Approved&quot;,&quot;state&quot;:&quot;pending&quot;,&quot;states&quot;:[&quot;pending&quot;,&quot;settled&quot;,&quot;reversed&quot;,&quot;corrected&quot;],&quot;style_lock&quot;:&quot;Looper UI Style Lock v1.0 Approved&quot;,&quot;scalable&quot;:true,&quot;transparent&quot;:true,&quot;baked_text&quot;:false,&quot;live_slots&quot;:true}</metadata><defs><linearGradient id="uisettlementcardpendingcream" x1="0" y1="0" x2="1" y2="1"><stop stop-color="#FFFDF7"/><stop offset="1" stop-color="#F8EEDB"/></linearGradient><linearGradient id="uisettlementcardpendingwood" x1="0" y1="0" x2="1" y2="1"><stop stop-color="#D8AA70"/><stop offset="1" stop-color="#99643B"/></linearGradient><linearGradient id="uisettlementcardpendinggreen" x1="0" y1="0" x2="1" y2="1"><stop stop-color="#738F6B"/><stop offset="1" stop-color="#4D724E"/></linearGradient><linearGradient id="uisettlementcardpendingamber" x1="0" y1="0" x2="1" y2="1"><stop stop-color="#F2C15C"/><stop offset="1" stop-color="#C77B32"/></linearGradient><filter id="uisettlementcardpendingshadow" x="-20%" y="-20%" width="140%" height="160%"><feGaussianBlur stdDeviation="3"/></filter></defs><g opacity="1"><ellipse cx="140" cy="151" rx="112" ry="7" fill="#3A2A1E" opacity=".12" filter="url(#uisettlementcardpendingshadow)"/><rect x="7" y="9" width="266" height="136" rx="24" fill="#99643B"/><rect x="7" y="5" width="266" height="136" rx="24" fill="url(#uisettlementcardpendingcream)" stroke="#D8AA70" stroke-width="1.5"/><rect x="24" y="23" width="62" height="96" rx="18" fill="#F0DFC1"/><path d="M43 52h24v28H43zM47 46h16v8" fill="none" stroke="#9B7048" stroke-width="2" stroke-linejoin="round"/><circle cx="55" cy="91" r="9" fill="url(#uisettlementcardpendingamber)"/><path d="M51 91h8" stroke="#FFF3C5" stroke-width="2" stroke-linecap="round"/><rect x="105" y="31" width="128" height="14" rx="7" fill="#D9C09A" opacity=".55"/><rect x="105" y="58" width="92" height="10" rx="5" fill="#D9C09A" opacity=".36"/><rect x="105" y="81" width="112" height="10" rx="5" fill="#D9C09A" opacity=".36"/><rect x="105" y="108" width="75" height="13" rx="6.5" fill="#E8D2A9"/><g transform="translate(229 92)"><circle cx="12" cy="12" r="11" fill="#D99034" stroke="#7A5438" stroke-width="1.2"/><path d="M12 6v6l4 2M12 3a9 9 0 1 0 9 9" fill="none" stroke="#FFF4D2" stroke-width="2" stroke-linecap="round" stroke-linejoin="round"/></g></g></svg>
