<?xml version="1.0" encoding="UTF-8"?>
<svg xmlns="http://www.w3.org/2000/svg" xmlns:xlink="http://www.w3.org/1999/xlink" width="240" height="72" viewBox="0 0 240 72" role="img" data-asset-id="ui_button_primary" data-state="loading" data-version="v003"><title>ui_button_primary loading v003</title><desc>Textless, scalable, medium-depth Looper core button. Visible Traditional Chinese labels remain live UI.</desc><metadata>{&quot;asset_id&quot;:&quot;ui_button_primary&quot;,&quot;asset_version&quot;:&quot;v003&quot;,&quot;visual_status&quot;:&quot;Approved&quot;,&quot;state&quot;:&quot;loading&quot;,&quot;states&quot;:[&quot;default&quot;,&quot;pressed&quot;,&quot;focused&quot;,&quot;disabled&quot;,&quot;loading&quot;,&quot;success&quot;],&quot;live_text_required&quot;:true,&quot;text_and_values_baked&quot;:false,&quot;default_locale&quot;:&quot;zh-Hant&quot;,&quot;semantic_role&quot;:&quot;button&quot;,&quot;minimum_hit_target&quot;:{&quot;ios_pt&quot;:44,&quot;android_dp&quot;:48},&quot;press_depth_px&quot;:8}</metadata><defs>
  <linearGradient id="ui_button_primaryloading-cream" x1="0" y1="0" x2="1" y2="1"><stop stop-color="#FFFDF7"/><stop offset="1" stop-color="#F8EEDB"/></linearGradient>
  <linearGradient id="ui_button_primaryloading-sand" x1="0" y1="0" x2="1" y2="1"><stop stop-color="#FFF4DD"/><stop offset="1" stop-color="#EFD5A6"/></linearGradient>
  <linearGradient id="ui_button_primaryloading-green" x1="0" y1="0" x2="1" y2="1"><stop stop-color="#738F6B"/><stop offset="1" stop-color="#4D724E"/></linearGradient>
  <linearGradient id="ui_button_primaryloading-amber" x1="0" y1="0" x2="1" y2="1"><stop stop-color="#FFB743"/><stop offset="1" stop-color="#E87A19"/></linearGradient>
  <linearGradient id="ui_button_primaryloading-violet" x1="0" y1="0" x2="1" y2="1"><stop stop-color="#A779B0"/><stop offset="1" stop-color="#6C4C78"/></linearGradient>
  <linearGradient id="ui_button_primaryloading-coral" x1="0" y1="0" x2="1" y2="1"><stop stop-color="#F17A5D"/><stop offset="1" stop-color="#C64E39"/></linearGradient>
  <linearGradient id="ui_button_primaryloading-wood" x1="0" y1="0" x2="0" y2="1"><stop stop-color="#D8AA70"/><stop offset="1" stop-color="#99643B"/></linearGradient>
  <pattern id="ui_button_primaryloading-grain" width="22" height="22" patternUnits="userSpaceOnUse"><circle cx="5" cy="6" r="1" fill="#fff" opacity=".16"/><path d="M2 17q7-4 15 0" fill="none" stroke="#4C3323" opacity=".09"/></pattern>
  <filter id="ui_button_primaryloading-shadow" x="-25%" y="-45%" width="150%" height="210%"><feGaussianBlur stdDeviation="3.2"/></filter>
</defs><rect x="12" y="18" width="216" height="45" rx="20" fill="#2A2219" opacity="0.16" filter="url(#ui_button_primaryloading-shadow)"/><rect x="8" y="13" width="224" height="52" rx="20" fill="#233F2D" opacity="1"/><rect x="8" y="5" width="224" height="52" rx="20" fill="url(#ui_button_primaryloading-green)" stroke="#9BB38D" stroke-width="1.4" opacity="1"/><rect x="8" y="5" width="224" height="52" rx="20" fill="url(#ui_button_primaryloading-grain)" opacity="0.24"/><path d="M28 13H212" stroke="#fff" stroke-width="2.5" stroke-linecap="round" opacity="0.25"/><g transform="translate(120 31)" fill="none" stroke="#FFFDF7" stroke-width="4" stroke-linecap="round"><path d="M0-12a12 12 0 0 1 12 12"/><path d="M0 12a12 12 0 0 1-12-12" opacity=".35"/></g><rect data-live-content-slot="true" x="46" y="13" width="148" height="36" rx="9" fill="none"/></svg>