<?xml version="1.0" encoding="UTF-8"?>
<svg xmlns="http://www.w3.org/2000/svg" width="120" height="24" viewBox="0 0 120 24"><metadata>{"schema":"looper.ui.master.v1","asset_id":"ui_icon_menu","asset_version":"v001","visual_status":"Approved","states":["default","pressed","disabled","focused"],"style_lock":"Looper UI Style Lock v1.0 Approved","scalable":true,"transparent":true,"unread_badge_baked":false}</metadata><svg x="0" y="0" width="24" height="24" viewBox="0 0 24 24"><defs><filter id="ui_icon_menudefaultmasters" x="-30%" y="-30%" width="160%" height="180%"><feGaussianBlur stdDeviation="1.1"/></filter></defs><g transform="translate(0 0)" opacity="1"><ellipse cx="12" cy="21" rx="7.4" ry="1.8" fill="#2B241C" opacity="0.13" filter="url(#ui_icon_menudefaultmasters)"/><defs><linearGradient id="ui_icon_menudefaultmasterg" x1="0" y1="0" x2="1" y2="1"><stop stop-color="#738F6B"/><stop offset="1" stop-color="#4D724E"/></linearGradient></defs><rect x="4" y="5" width="16" height="3.6" rx="1.8" fill="url(#ui_icon_menudefaultmasterg)"/><rect x="4" y="10.2" width="12.5" height="3.6" rx="1.8" fill="#99643B"/><rect x="4" y="15.4" width="16" height="3.6" rx="1.8" fill="url(#ui_icon_menudefaultmasterg)"/><path d="M6 5.9h10" stroke="#FFFDF7" stroke-width=".8" stroke-linecap="round" opacity=".42"/></g></svg><svg x="32" y="0" width="24" height="24" viewBox="0 0 24 24"><defs><filter id="ui_icon_menupressedmasters" x="-30%" y="-30%" width="160%" height="180%"><feGaussianBlur stdDeviation="1.1"/></filter></defs><g transform="translate(0 1)" opacity="1"><ellipse cx="12" cy="21" rx="7.4" ry="1.8" fill="#2B241C" opacity="0.07" filter="url(#ui_icon_menupressedmasters)"/><defs><linearGradient id="ui_icon_menupressedmasterg" x1="0" y1="0" x2="1" y2="1"><stop stop-color="#738F6B"/><stop offset="1" stop-color="#4D724E"/></linearGradient></defs><rect x="4" y="5" width="16" height="3.6" rx="1.8" fill="url(#ui_icon_menupressedmasterg)"/><rect x="4" y="10.2" width="12.5" height="3.6" rx="1.8" fill="#99643B"/><rect x="4" y="15.4" width="16" height="3.6" rx="1.8" fill="url(#ui_icon_menupressedmasterg)"/><path d="M6 5.9h10" stroke="#FFFDF7" stroke-width=".8" stroke-linecap="round" opacity=".42"/></g></svg><svg x="64" y="0" width="24" height="24" viewBox="0 0 24 24"><defs><filter id="ui_icon_menudisabledmasters" x="-30%" y="-30%" width="160%" height="180%"><feGaussianBlur stdDeviation="1.1"/></filter></defs><g transform="translate(0 0)" opacity="0.42"><ellipse cx="12" cy="21" rx="7.4" ry="1.8" fill="#2B241C" opacity="0.04" filter="url(#ui_icon_menudisabledmasters)"/><defs><linearGradient id="ui_icon_menudisabledmasterg" x1="0" y1="0" x2="1" y2="1"><stop stop-color="#738F6B"/><stop offset="1" stop-color="#4D724E"/></linearGradient></defs><rect x="4" y="5" width="16" height="3.6" rx="1.8" fill="url(#ui_icon_menudisabledmasterg)"/><rect x="4" y="10.2" width="12.5" height="3.6" rx="1.8" fill="#99643B"/><rect x="4" y="15.4" width="16" height="3.6" rx="1.8" fill="url(#ui_icon_menudisabledmasterg)"/><path d="M6 5.9h10" stroke="#FFFDF7" stroke-width=".8" stroke-linecap="round" opacity=".42"/></g></svg><svg x="96" y="0" width="24" height="24" viewBox="0 0 24 24"><defs><filter id="ui_icon_menufocusedmasters" x="-30%" y="-30%" width="160%" height="180%"><feGaussianBlur stdDeviation="1.1"/></filter></defs><g transform="translate(0 0)" opacity="1"><ellipse cx="12" cy="21" rx="7.4" ry="1.8" fill="#2B241C" opacity="0.13" filter="url(#ui_icon_menufocusedmasters)"/><defs><linearGradient id="ui_icon_menufocusedmasterg" x1="0" y1="0" x2="1" y2="1"><stop stop-color="#738F6B"/><stop offset="1" stop-color="#4D724E"/></linearGradient></defs><rect x="4" y="5" width="16" height="3.6" rx="1.8" fill="url(#ui_icon_menufocusedmasterg)"/><rect x="4" y="10.2" width="12.5" height="3.6" rx="1.8" fill="#99643B"/><rect x="4" y="15.4" width="16" height="3.6" rx="1.8" fill="url(#ui_icon_menufocusedmasterg)"/><path d="M6 5.9h10" stroke="#FFFDF7" stroke-width=".8" stroke-linecap="round" opacity=".42"/></g></svg></svg>
