<?xml version="1.0" encoding="UTF-8"?>
<svg xmlns="http://www.w3.org/2000/svg" width="120" height="24" viewBox="0 0 120 24"><metadata>{"schema":"looper.ui.master.v1","asset_id":"ui_icon_notification","asset_version":"v001","visual_status":"Approved","states":["default","pressed","disabled","focused"],"style_lock":"Looper UI Style Lock v1.0 Approved","scalable":true,"transparent":true,"unread_badge_baked":false}</metadata><svg x="0" y="0" width="24" height="24" viewBox="0 0 24 24"><defs><filter id="ui_icon_notificationdefaultmasters" x="-30%" y="-30%" width="160%" height="180%"><feGaussianBlur stdDeviation="1.1"/></filter></defs><g transform="translate(0 0)" opacity="1"><ellipse cx="12" cy="21" rx="7.4" ry="1.8" fill="#2B241C" opacity="0.13" filter="url(#ui_icon_notificationdefaultmasters)"/><defs><linearGradient id="ui_icon_notificationdefaultmasterg" x1="0" y1="0" x2="1" y2="1"><stop stop-color="#FFF4DD"/><stop offset="1" stop-color="#EFD5A6"/></linearGradient></defs><path d="M6.2 16.8h11.6l-1.4-2.2V10a4.4 4.4 0 0 0-8.8 0v4.6z" fill="url(#ui_icon_notificationdefaultmasterg)" stroke="#233F2D" stroke-width="1.35" stroke-linejoin="round"/><path d="M10 18a2.2 2.2 0 0 0 4 0" fill="#99643B"/><path d="M8.6 9.2a3.7 3.7 0 0 1 3.1-2.7" fill="none" stroke="#FFFDF7" stroke-width="1.2" stroke-linecap="round" opacity=".72"/></g></svg><svg x="32" y="0" width="24" height="24" viewBox="0 0 24 24"><defs><filter id="ui_icon_notificationpressedmasters" x="-30%" y="-30%" width="160%" height="180%"><feGaussianBlur stdDeviation="1.1"/></filter></defs><g transform="translate(0 1)" opacity="1"><ellipse cx="12" cy="21" rx="7.4" ry="1.8" fill="#2B241C" opacity="0.07" filter="url(#ui_icon_notificationpressedmasters)"/><defs><linearGradient id="ui_icon_notificationpressedmasterg" x1="0" y1="0" x2="1" y2="1"><stop stop-color="#FFF4DD"/><stop offset="1" stop-color="#EFD5A6"/></linearGradient></defs><path d="M6.2 16.8h11.6l-1.4-2.2V10a4.4 4.4 0 0 0-8.8 0v4.6z" fill="url(#ui_icon_notificationpressedmasterg)" stroke="#233F2D" stroke-width="1.35" stroke-linejoin="round"/><path d="M10 18a2.2 2.2 0 0 0 4 0" fill="#99643B"/><path d="M8.6 9.2a3.7 3.7 0 0 1 3.1-2.7" fill="none" stroke="#FFFDF7" stroke-width="1.2" stroke-linecap="round" opacity=".72"/></g></svg><svg x="64" y="0" width="24" height="24" viewBox="0 0 24 24"><defs><filter id="ui_icon_notificationdisabledmasters" x="-30%" y="-30%" width="160%" height="180%"><feGaussianBlur stdDeviation="1.1"/></filter></defs><g transform="translate(0 0)" opacity="0.42"><ellipse cx="12" cy="21" rx="7.4" ry="1.8" fill="#2B241C" opacity="0.04" filter="url(#ui_icon_notificationdisabledmasters)"/><defs><linearGradient id="ui_icon_notificationdisabledmasterg" x1="0" y1="0" x2="1" y2="1"><stop stop-color="#FFF4DD"/><stop offset="1" stop-color="#EFD5A6"/></linearGradient></defs><path d="M6.2 16.8h11.6l-1.4-2.2V10a4.4 4.4 0 0 0-8.8 0v4.6z" fill="url(#ui_icon_notificationdisabledmasterg)" stroke="#233F2D" stroke-width="1.35" stroke-linejoin="round"/><path d="M10 18a2.2 2.2 0 0 0 4 0" fill="#99643B"/><path d="M8.6 9.2a3.7 3.7 0 0 1 3.1-2.7" fill="none" stroke="#FFFDF7" stroke-width="1.2" stroke-linecap="round" opacity=".72"/></g></svg><svg x="96" y="0" width="24" height="24" viewBox="0 0 24 24"><defs><filter id="ui_icon_notificationfocusedmasters" x="-30%" y="-30%" width="160%" height="180%"><feGaussianBlur stdDeviation="1.1"/></filter></defs><g transform="translate(0 0)" opacity="1"><ellipse cx="12" cy="21" rx="7.4" ry="1.8" fill="#2B241C" opacity="0.13" filter="url(#ui_icon_notificationfocusedmasters)"/><defs><linearGradient id="ui_icon_notificationfocusedmasterg" x1="0" y1="0" x2="1" y2="1"><stop stop-color="#FFF4DD"/><stop offset="1" stop-color="#EFD5A6"/></linearGradient></defs><path d="M6.2 16.8h11.6l-1.4-2.2V10a4.4 4.4 0 0 0-8.8 0v4.6z" fill="url(#ui_icon_notificationfocusedmasterg)" stroke="#233F2D" stroke-width="1.35" stroke-linejoin="round"/><path d="M10 18a2.2 2.2 0 0 0 4 0" fill="#99643B"/><path d="M8.6 9.2a3.7 3.7 0 0 1 3.1-2.7" fill="none" stroke="#FFFDF7" stroke-width="1.2" stroke-linecap="round" opacity=".72"/></g></svg></svg>
