<?xml version="1.0" encoding="UTF-8"?>
<svg xmlns="http://www.w3.org/2000/svg" width="120" height="24" viewBox="0 0 120 24"><metadata>{"schema":"looper.ui.master.v1","asset_id":"ui_icon_profile","asset_version":"v001","visual_status":"Approved","states":["default","pressed","disabled","focused"],"style_lock":"Looper UI Style Lock v1.0 Approved","scalable":true,"transparent":true,"unread_badge_baked":false}</metadata><svg x="0" y="0" width="24" height="24" viewBox="0 0 24 24"><defs><filter id="ui_icon_profiledefaultmasters" x="-30%" y="-30%" width="160%" height="180%"><feGaussianBlur stdDeviation="1.1"/></filter></defs><g transform="translate(0 0)" opacity="1"><ellipse cx="12" cy="21" rx="7.4" ry="1.8" fill="#2B241C" opacity="0.13" filter="url(#ui_icon_profiledefaultmasters)"/><defs><linearGradient id="ui_icon_profiledefaultmasterg" x1="0" y1="0" x2="1" y2="1"><stop stop-color="#738F6B"/><stop offset="1" stop-color="#4D724E"/></linearGradient></defs><circle cx="12" cy="12" r="8.8" fill="#F8EEDB" stroke="#D8AA70" stroke-width="1.1"/><circle cx="12" cy="9.1" r="3.2" fill="url(#ui_icon_profiledefaultmasterg)"/><path d="M6.7 18.1c.6-3.2 2.5-5 5.3-5s4.7 1.8 5.3 5" fill="#99643B"/><path d="M8.1 5.9a6.8 6.8 0 0 1 5.2-1.2" fill="none" stroke="#FFFDF7" stroke-width="1.1" stroke-linecap="round" opacity=".62"/></g></svg><svg x="32" y="0" width="24" height="24" viewBox="0 0 24 24"><defs><filter id="ui_icon_profilepressedmasters" x="-30%" y="-30%" width="160%" height="180%"><feGaussianBlur stdDeviation="1.1"/></filter></defs><g transform="translate(0 1)" opacity="1"><ellipse cx="12" cy="21" rx="7.4" ry="1.8" fill="#2B241C" opacity="0.07" filter="url(#ui_icon_profilepressedmasters)"/><defs><linearGradient id="ui_icon_profilepressedmasterg" x1="0" y1="0" x2="1" y2="1"><stop stop-color="#738F6B"/><stop offset="1" stop-color="#4D724E"/></linearGradient></defs><circle cx="12" cy="12" r="8.8" fill="#F8EEDB" stroke="#D8AA70" stroke-width="1.1"/><circle cx="12" cy="9.1" r="3.2" fill="url(#ui_icon_profilepressedmasterg)"/><path d="M6.7 18.1c.6-3.2 2.5-5 5.3-5s4.7 1.8 5.3 5" fill="#99643B"/><path d="M8.1 5.9a6.8 6.8 0 0 1 5.2-1.2" fill="none" stroke="#FFFDF7" stroke-width="1.1" stroke-linecap="round" opacity=".62"/></g></svg><svg x="64" y="0" width="24" height="24" viewBox="0 0 24 24"><defs><filter id="ui_icon_profiledisabledmasters" x="-30%" y="-30%" width="160%" height="180%"><feGaussianBlur stdDeviation="1.1"/></filter></defs><g transform="translate(0 0)" opacity="0.42"><ellipse cx="12" cy="21" rx="7.4" ry="1.8" fill="#2B241C" opacity="0.04" filter="url(#ui_icon_profiledisabledmasters)"/><defs><linearGradient id="ui_icon_profiledisabledmasterg" x1="0" y1="0" x2="1" y2="1"><stop stop-color="#738F6B"/><stop offset="1" stop-color="#4D724E"/></linearGradient></defs><circle cx="12" cy="12" r="8.8" fill="#F8EEDB" stroke="#D8AA70" stroke-width="1.1"/><circle cx="12" cy="9.1" r="3.2" fill="url(#ui_icon_profiledisabledmasterg)"/><path d="M6.7 18.1c.6-3.2 2.5-5 5.3-5s4.7 1.8 5.3 5" fill="#99643B"/><path d="M8.1 5.9a6.8 6.8 0 0 1 5.2-1.2" fill="none" stroke="#FFFDF7" stroke-width="1.1" stroke-linecap="round" opacity=".62"/></g></svg><svg x="96" y="0" width="24" height="24" viewBox="0 0 24 24"><defs><filter id="ui_icon_profilefocusedmasters" x="-30%" y="-30%" width="160%" height="180%"><feGaussianBlur stdDeviation="1.1"/></filter></defs><g transform="translate(0 0)" opacity="1"><ellipse cx="12" cy="21" rx="7.4" ry="1.8" fill="#2B241C" opacity="0.13" filter="url(#ui_icon_profilefocusedmasters)"/><defs><linearGradient id="ui_icon_profilefocusedmasterg" x1="0" y1="0" x2="1" y2="1"><stop stop-color="#738F6B"/><stop offset="1" stop-color="#4D724E"/></linearGradient></defs><circle cx="12" cy="12" r="8.8" fill="#F8EEDB" stroke="#D8AA70" stroke-width="1.1"/><circle cx="12" cy="9.1" r="3.2" fill="url(#ui_icon_profilefocusedmasterg)"/><path d="M6.7 18.1c.6-3.2 2.5-5 5.3-5s4.7 1.8 5.3 5" fill="#99643B"/><path d="M8.1 5.9a6.8 6.8 0 0 1 5.2-1.2" fill="none" stroke="#FFFDF7" stroke-width="1.1" stroke-linecap="round" opacity=".62"/></g></svg></svg>
