<?xml version="1.0" encoding="UTF-8"?><svg xmlns="http://www.w3.org/2000/svg" xmlns:xlink="http://www.w3.org/1999/xlink" width="92" height="92" viewBox="0 0 92 92" role="button" data-asset-id="ui_icon_button" data-state="focused" data-version="v002"><title>ui_icon_button focused v002</title><desc>Looper warm tactile 2.5D UI component. Text and values remain live UI.</desc><metadata>{&quot;asset_id&quot;:&quot;ui_icon_button&quot;,&quot;asset_version&quot;:&quot;v002&quot;,&quot;visual_status&quot;:&quot;Approved&quot;,&quot;state&quot;:&quot;focused&quot;,&quot;states&quot;:[&quot;default&quot;,&quot;pressed&quot;,&quot;focused&quot;,&quot;disabled&quot;,&quot;selected&quot;],&quot;live_text_required&quot;:true,&quot;text_and_values_baked&quot;:false,&quot;default_locale&quot;:&quot;zh-Hant&quot;,&quot;semantic_role&quot;:&quot;button&quot;,&quot;icon_slot_is_live&quot;:true,&quot;minimum_hit_target&quot;:{&quot;ios_pt&quot;:44,&quot;android_dp&quot;:48}}</metadata><defs><linearGradient id="ibfocusedc" x1="0" y1="0" x2="1" y2="1"><stop stop-color="#FFFDF7"/><stop offset="1" stop-color="#F8EEDB"/></linearGradient><linearGradient id="ibfocusedg" x1="0" y1="0" x2="1" y2="1"><stop stop-color="#738F6B"/><stop offset="1" stop-color="#4D724E"/></linearGradient><linearGradient id="ibfocusedw" x1="0" y1="0" x2="0" y2="1"><stop stop-color="#D8AA70"/><stop offset="1" stop-color="#99643B"/></linearGradient><filter id="ibfocuseds" x="-30%" y="-50%" width="160%" height="220%"><feGaussianBlur stdDeviation="3.2"/></filter><filter id="ibfocusedgl" x="-50%" y="-50%" width="200%" height="200%"><feGaussianBlur stdDeviation="5"/></filter></defs><rect x="4" y="0" width="84" height="84" rx="29" fill="none" stroke="#E1BB62" stroke-width="3"/><rect x="1" y="-3" width="90" height="90" rx="32" fill="none" stroke="#FFF5C8" stroke-width="3"/><ellipse cx="46" cy="82" rx="31" ry="6" fill="#2B241C" opacity=".13" filter="url(#ibfocuseds)"/><rect x="11" y="9" width="70" height="66" rx="25" fill="#99643B" opacity="1"/><rect x="11" y="3" width="70" height="66" rx="25" fill="url(#ibfocusedc)" stroke="#D8AA70" stroke-width="1.6" opacity="1"/><path d="M27 12h38" stroke="#fff" stroke-width="2.4" stroke-linecap="round" opacity=".34"/><g transform="translate(46 35)" fill="#3E5B43"><rect x="-12" y="-12" width="9" height="9" rx="2.5"/><rect x="3" y="-12" width="9" height="9" rx="2.5"/><rect x="-12" y="3" width="9" height="9" rx="2.5"/><rect x="3" y="3" width="9" height="9" rx="2.5"/></g><rect data-live-icon-slot="true" x="23" y="15" width="46" height="46" fill="none"/></svg>