<?xml version="1.0" encoding="UTF-8"?>
<svg xmlns="http://www.w3.org/2000/svg" xmlns:xlink="http://www.w3.org/1999/xlink" width="24" height="24" viewBox="0 0 24 24"><metadata>{&quot;schema&quot;:&quot;looper.ui.asset.v1&quot;,&quot;asset_id&quot;:&quot;ui_icon_vouchers&quot;,&quot;asset_version&quot;:&quot;v001&quot;,&quot;visual_status&quot;:&quot;Approved&quot;,&quot;state&quot;:&quot;default&quot;,&quot;states&quot;:[&quot;default&quot;,&quot;pressed&quot;,&quot;disabled&quot;,&quot;focused&quot;],&quot;style_lock&quot;:&quot;Looper UI Style Lock v1.0 Approved&quot;,&quot;scalable&quot;:true,&quot;transparent&quot;:true,&quot;baked_text&quot;:false,&quot;live_slots&quot;:true}</metadata><defs><linearGradient id="uiiconvouchersdefaultcream" x1="0" y1="0" x2="1" y2="1"><stop stop-color="#FFFDF7"/><stop offset="1" stop-color="#F8EEDB"/></linearGradient><linearGradient id="uiiconvouchersdefaultwood" x1="0" y1="0" x2="1" y2="1"><stop stop-color="#D8AA70"/><stop offset="1" stop-color="#99643B"/></linearGradient><linearGradient id="uiiconvouchersdefaultgreen" x1="0" y1="0" x2="1" y2="1"><stop stop-color="#738F6B"/><stop offset="1" stop-color="#4D724E"/></linearGradient><linearGradient id="uiiconvouchersdefaultamber" x1="0" y1="0" x2="1" y2="1"><stop stop-color="#F2C15C"/><stop offset="1" stop-color="#C77B32"/></linearGradient><filter id="uiiconvouchersdefaultshadow" x="-20%" y="-20%" width="140%" height="160%"><feGaussianBlur stdDeviation="3"/></filter></defs><g transform="translate(0 0)" opacity="1"><ellipse cx="12" cy="20.3" rx="7.4" ry="1.5" fill="#3A2A1E" opacity=".13" filter="url(#uiiconvouchersdefaultshadow)"/><path d="M5 7.2h13.2v3a2.1 2.1 0 0 0 0 4.2v3.2H5v-3.2a2.1 2.1 0 0 0 0-4.2z" fill="url(#uiiconvouchersdefaultwood)" stroke="#74503B" stroke-width="1" transform="rotate(-7 12 12)"/><path d="M5.8 5.8h13.2v3a2.1 2.1 0 0 0 0 4.2v3.2H5.8V13a2.1 2.1 0 0 0 0-4.2z" fill="url(#uiiconvouchersdefaultcream)" stroke="#B7814A" stroke-width="1"/><path d="M13.8 7.2v7.6" stroke="#C99557" stroke-width="1" stroke-dasharray="1.4 1.4"/><circle cx="9.2" cy="11" r="2.2" fill="url(#uiiconvouchersdefaultgreen)"/><path d="M8.2 11h2" stroke="#EEF3DA" stroke-width=".8" stroke-linecap="round"/></g></svg>
