<?xml version="1.0" encoding="UTF-8"?>
<svg xmlns="http://www.w3.org/2000/svg" width="120" height="24" viewBox="0 0 120 24"><metadata>{"schema":"looper.ui.master.v1","asset_id":"ui_icon_save","asset_version":"v001","visual_status":"Approved","states":["default","pressed","disabled","focused"],"style_lock":"Looper UI Style Lock v1.0 Approved","scalable":true,"transparent":true}</metadata><svg x="0" y="0" width="24" height="24" viewBox="0 0 24 24"><defs><filter id="ui_icon_savedefaultmasters" x="-30%" y="-30%" width="160%" height="180%"><feGaussianBlur stdDeviation="1.1"/></filter></defs><g transform="translate(0 0)" opacity="1"><ellipse cx="12" cy="21" rx="7.4" ry="1.8" fill="#2B241C" opacity="0.13" filter="url(#ui_icon_savedefaultmasters)"/><defs><linearGradient id="ui_icon_savedefaultmasterg" x1="0" y1="0" x2="1" y2="1"><stop stop-color="#738F6B"/><stop offset="1" stop-color="#4D724E"/></linearGradient></defs><path d="M5 4h12l2 2v14H5z" fill="url(#ui_icon_savedefaultmasterg)" stroke="#233F2D" stroke-width="1.1" stroke-linejoin="round"/><rect x="8" y="4.8" width="7.8" height="5.2" rx="1" fill="#F8EEDB"/><rect x="8" y="13" width="8" height="5.5" rx="1.5" fill="#FFF4DD" stroke="#D8AA70" stroke-width=".8"/><path d="M9.5 15h5" stroke="#99643B" stroke-width="1.2" stroke-linecap="round"/><path d="M7 5.4h6" stroke="#FFFDF7" stroke-width="1" stroke-linecap="round" opacity=".45"/></g></svg><svg x="32" y="0" width="24" height="24" viewBox="0 0 24 24"><defs><filter id="ui_icon_savepressedmasters" x="-30%" y="-30%" width="160%" height="180%"><feGaussianBlur stdDeviation="1.1"/></filter></defs><g transform="translate(0 1)" opacity="1"><ellipse cx="12" cy="21" rx="7.4" ry="1.8" fill="#2B241C" opacity="0.07" filter="url(#ui_icon_savepressedmasters)"/><defs><linearGradient id="ui_icon_savepressedmasterg" x1="0" y1="0" x2="1" y2="1"><stop stop-color="#738F6B"/><stop offset="1" stop-color="#4D724E"/></linearGradient></defs><path d="M5 4h12l2 2v14H5z" fill="url(#ui_icon_savepressedmasterg)" stroke="#233F2D" stroke-width="1.1" stroke-linejoin="round"/><rect x="8" y="4.8" width="7.8" height="5.2" rx="1" fill="#F8EEDB"/><rect x="8" y="13" width="8" height="5.5" rx="1.5" fill="#FFF4DD" stroke="#D8AA70" stroke-width=".8"/><path d="M9.5 15h5" stroke="#99643B" stroke-width="1.2" stroke-linecap="round"/><path d="M7 5.4h6" stroke="#FFFDF7" stroke-width="1" stroke-linecap="round" opacity=".45"/></g></svg><svg x="64" y="0" width="24" height="24" viewBox="0 0 24 24"><defs><filter id="ui_icon_savedisabledmasters" x="-30%" y="-30%" width="160%" height="180%"><feGaussianBlur stdDeviation="1.1"/></filter></defs><g transform="translate(0 0)" opacity="0.42"><ellipse cx="12" cy="21" rx="7.4" ry="1.8" fill="#2B241C" opacity="0.04" filter="url(#ui_icon_savedisabledmasters)"/><defs><linearGradient id="ui_icon_savedisabledmasterg" x1="0" y1="0" x2="1" y2="1"><stop stop-color="#738F6B"/><stop offset="1" stop-color="#4D724E"/></linearGradient></defs><path d="M5 4h12l2 2v14H5z" fill="url(#ui_icon_savedisabledmasterg)" stroke="#233F2D" stroke-width="1.1" stroke-linejoin="round"/><rect x="8" y="4.8" width="7.8" height="5.2" rx="1" fill="#F8EEDB"/><rect x="8" y="13" width="8" height="5.5" rx="1.5" fill="#FFF4DD" stroke="#D8AA70" stroke-width=".8"/><path d="M9.5 15h5" stroke="#99643B" stroke-width="1.2" stroke-linecap="round"/><path d="M7 5.4h6" stroke="#FFFDF7" stroke-width="1" stroke-linecap="round" opacity=".45"/></g></svg><svg x="96" y="0" width="24" height="24" viewBox="0 0 24 24"><defs><filter id="ui_icon_savefocusedmasters" x="-30%" y="-30%" width="160%" height="180%"><feGaussianBlur stdDeviation="1.1"/></filter></defs><g transform="translate(0 0)" opacity="1"><ellipse cx="12" cy="21" rx="7.4" ry="1.8" fill="#2B241C" opacity="0.13" filter="url(#ui_icon_savefocusedmasters)"/><defs><linearGradient id="ui_icon_savefocusedmasterg" x1="0" y1="0" x2="1" y2="1"><stop stop-color="#738F6B"/><stop offset="1" stop-color="#4D724E"/></linearGradient></defs><path d="M5 4h12l2 2v14H5z" fill="url(#ui_icon_savefocusedmasterg)" stroke="#233F2D" stroke-width="1.1" stroke-linejoin="round"/><rect x="8" y="4.8" width="7.8" height="5.2" rx="1" fill="#F8EEDB"/><rect x="8" y="13" width="8" height="5.5" rx="1.5" fill="#FFF4DD" stroke="#D8AA70" stroke-width=".8"/><path d="M9.5 15h5" stroke="#99643B" stroke-width="1.2" stroke-linecap="round"/><path d="M7 5.4h6" stroke="#FFFDF7" stroke-width="1" stroke-linecap="round" opacity=".45"/></g></svg></svg>
