<?xml version="1.0" encoding="UTF-8"?>
<svg xmlns="http://www.w3.org/2000/svg" width="120" height="24" viewBox="0 0 120 24"><metadata>{"schema":"looper.ui.master.v1","asset_id":"ui_icon_rotate","asset_version":"v001","visual_status":"Approved","states":["default","pressed","disabled","focused"],"style_lock":"Looper UI Style Lock v1.0 Approved","scalable":true,"transparent":true}</metadata><svg x="0" y="0" width="24" height="24" viewBox="0 0 24 24"><defs><filter id="ui_icon_rotatedefaultmasters" x="-30%" y="-30%" width="160%" height="180%"><feGaussianBlur stdDeviation="1.1"/></filter></defs><g transform="translate(0 0)" opacity="1"><ellipse cx="12" cy="21" rx="7.4" ry="1.8" fill="#2B241C" opacity="0.13" filter="url(#ui_icon_rotatedefaultmasters)"/><defs><linearGradient id="ui_icon_rotatedefaultmasterg" x1="0" y1="0" x2="1" y2="1"><stop stop-color="#D8AA70"/><stop offset="1" stop-color="#99643B"/></linearGradient></defs><rect x="8.5" y="8.5" width="7" height="7" rx="2" fill="url(#ui_icon_rotatedefaultmasterg)"/><path d="M7.2 6.5A7 7 0 0 1 18.1 9" fill="none" stroke="#4D724E" stroke-width="2.5" stroke-linecap="round"/><path d="m17 5.8 1.4 3.6-3.8-.4" fill="#4D724E"/><path d="M16.8 17.5A7 7 0 0 1 5.9 15" fill="none" stroke="#99643B" stroke-width="2.5" stroke-linecap="round"/><path d="m7 18.2-1.4-3.6 3.8.4" fill="#99643B"/></g></svg><svg x="32" y="0" width="24" height="24" viewBox="0 0 24 24"><defs><filter id="ui_icon_rotatepressedmasters" x="-30%" y="-30%" width="160%" height="180%"><feGaussianBlur stdDeviation="1.1"/></filter></defs><g transform="translate(0 1)" opacity="1"><ellipse cx="12" cy="21" rx="7.4" ry="1.8" fill="#2B241C" opacity="0.07" filter="url(#ui_icon_rotatepressedmasters)"/><defs><linearGradient id="ui_icon_rotatepressedmasterg" x1="0" y1="0" x2="1" y2="1"><stop stop-color="#D8AA70"/><stop offset="1" stop-color="#99643B"/></linearGradient></defs><rect x="8.5" y="8.5" width="7" height="7" rx="2" fill="url(#ui_icon_rotatepressedmasterg)"/><path d="M7.2 6.5A7 7 0 0 1 18.1 9" fill="none" stroke="#4D724E" stroke-width="2.5" stroke-linecap="round"/><path d="m17 5.8 1.4 3.6-3.8-.4" fill="#4D724E"/><path d="M16.8 17.5A7 7 0 0 1 5.9 15" fill="none" stroke="#99643B" stroke-width="2.5" stroke-linecap="round"/><path d="m7 18.2-1.4-3.6 3.8.4" fill="#99643B"/></g></svg><svg x="64" y="0" width="24" height="24" viewBox="0 0 24 24"><defs><filter id="ui_icon_rotatedisabledmasters" x="-30%" y="-30%" width="160%" height="180%"><feGaussianBlur stdDeviation="1.1"/></filter></defs><g transform="translate(0 0)" opacity="0.42"><ellipse cx="12" cy="21" rx="7.4" ry="1.8" fill="#2B241C" opacity="0.04" filter="url(#ui_icon_rotatedisabledmasters)"/><defs><linearGradient id="ui_icon_rotatedisabledmasterg" x1="0" y1="0" x2="1" y2="1"><stop stop-color="#D8AA70"/><stop offset="1" stop-color="#99643B"/></linearGradient></defs><rect x="8.5" y="8.5" width="7" height="7" rx="2" fill="url(#ui_icon_rotatedisabledmasterg)"/><path d="M7.2 6.5A7 7 0 0 1 18.1 9" fill="none" stroke="#4D724E" stroke-width="2.5" stroke-linecap="round"/><path d="m17 5.8 1.4 3.6-3.8-.4" fill="#4D724E"/><path d="M16.8 17.5A7 7 0 0 1 5.9 15" fill="none" stroke="#99643B" stroke-width="2.5" stroke-linecap="round"/><path d="m7 18.2-1.4-3.6 3.8.4" fill="#99643B"/></g></svg><svg x="96" y="0" width="24" height="24" viewBox="0 0 24 24"><defs><filter id="ui_icon_rotatefocusedmasters" x="-30%" y="-30%" width="160%" height="180%"><feGaussianBlur stdDeviation="1.1"/></filter></defs><g transform="translate(0 0)" opacity="1"><ellipse cx="12" cy="21" rx="7.4" ry="1.8" fill="#2B241C" opacity="0.13" filter="url(#ui_icon_rotatefocusedmasters)"/><defs><linearGradient id="ui_icon_rotatefocusedmasterg" x1="0" y1="0" x2="1" y2="1"><stop stop-color="#D8AA70"/><stop offset="1" stop-color="#99643B"/></linearGradient></defs><rect x="8.5" y="8.5" width="7" height="7" rx="2" fill="url(#ui_icon_rotatefocusedmasterg)"/><path d="M7.2 6.5A7 7 0 0 1 18.1 9" fill="none" stroke="#4D724E" stroke-width="2.5" stroke-linecap="round"/><path d="m17 5.8 1.4 3.6-3.8-.4" fill="#4D724E"/><path d="M16.8 17.5A7 7 0 0 1 5.9 15" fill="none" stroke="#99643B" stroke-width="2.5" stroke-linecap="round"/><path d="m7 18.2-1.4-3.6 3.8.4" fill="#99643B"/></g></svg></svg>
