<?xml version="1.0" encoding="UTF-8"?>
<svg xmlns="http://www.w3.org/2000/svg" width="120" height="24" viewBox="0 0 120 24"><metadata>{"schema":"looper.ui.master.v1","asset_id":"ui_icon_preview","asset_version":"v001","visual_status":"Approved","states":["default","pressed","disabled","focused"],"style_lock":"Looper UI Style Lock v1.0 Approved","scalable":true,"transparent":true}</metadata><svg x="0" y="0" width="24" height="24" viewBox="0 0 24 24"><defs><filter id="ui_icon_previewdefaultmasters" x="-30%" y="-30%" width="160%" height="180%"><feGaussianBlur stdDeviation="1.1"/></filter></defs><g transform="translate(0 0)" opacity="1"><ellipse cx="12" cy="21" rx="7.4" ry="1.8" fill="#2B241C" opacity="0.13" filter="url(#ui_icon_previewdefaultmasters)"/><defs><linearGradient id="ui_icon_previewdefaultmasterg" x1="0" y1="0" x2="1" y2="1"><stop stop-color="#FFF4DD"/><stop offset="1" stop-color="#EFD5A6"/></linearGradient></defs><path d="M3.7 12s3-5.6 8.3-5.6 8.3 5.6 8.3 5.6-3 5.6-8.3 5.6S3.7 12 3.7 12z" fill="url(#ui_icon_previewdefaultmasterg)" stroke="#233F2D" stroke-width="1.35"/><circle cx="12" cy="12" r="3.2" fill="#4D724E"/><circle cx="11" cy="10.9" r="1" fill="#FFFDF7" opacity=".84"/></g></svg><svg x="32" y="0" width="24" height="24" viewBox="0 0 24 24"><defs><filter id="ui_icon_previewpressedmasters" x="-30%" y="-30%" width="160%" height="180%"><feGaussianBlur stdDeviation="1.1"/></filter></defs><g transform="translate(0 1)" opacity="1"><ellipse cx="12" cy="21" rx="7.4" ry="1.8" fill="#2B241C" opacity="0.07" filter="url(#ui_icon_previewpressedmasters)"/><defs><linearGradient id="ui_icon_previewpressedmasterg" x1="0" y1="0" x2="1" y2="1"><stop stop-color="#FFF4DD"/><stop offset="1" stop-color="#EFD5A6"/></linearGradient></defs><path d="M3.7 12s3-5.6 8.3-5.6 8.3 5.6 8.3 5.6-3 5.6-8.3 5.6S3.7 12 3.7 12z" fill="url(#ui_icon_previewpressedmasterg)" stroke="#233F2D" stroke-width="1.35"/><circle cx="12" cy="12" r="3.2" fill="#4D724E"/><circle cx="11" cy="10.9" r="1" fill="#FFFDF7" opacity=".84"/></g></svg><svg x="64" y="0" width="24" height="24" viewBox="0 0 24 24"><defs><filter id="ui_icon_previewdisabledmasters" x="-30%" y="-30%" width="160%" height="180%"><feGaussianBlur stdDeviation="1.1"/></filter></defs><g transform="translate(0 0)" opacity="0.42"><ellipse cx="12" cy="21" rx="7.4" ry="1.8" fill="#2B241C" opacity="0.04" filter="url(#ui_icon_previewdisabledmasters)"/><defs><linearGradient id="ui_icon_previewdisabledmasterg" x1="0" y1="0" x2="1" y2="1"><stop stop-color="#FFF4DD"/><stop offset="1" stop-color="#EFD5A6"/></linearGradient></defs><path d="M3.7 12s3-5.6 8.3-5.6 8.3 5.6 8.3 5.6-3 5.6-8.3 5.6S3.7 12 3.7 12z" fill="url(#ui_icon_previewdisabledmasterg)" stroke="#233F2D" stroke-width="1.35"/><circle cx="12" cy="12" r="3.2" fill="#4D724E"/><circle cx="11" cy="10.9" r="1" fill="#FFFDF7" opacity=".84"/></g></svg><svg x="96" y="0" width="24" height="24" viewBox="0 0 24 24"><defs><filter id="ui_icon_previewfocusedmasters" x="-30%" y="-30%" width="160%" height="180%"><feGaussianBlur stdDeviation="1.1"/></filter></defs><g transform="translate(0 0)" opacity="1"><ellipse cx="12" cy="21" rx="7.4" ry="1.8" fill="#2B241C" opacity="0.13" filter="url(#ui_icon_previewfocusedmasters)"/><defs><linearGradient id="ui_icon_previewfocusedmasterg" x1="0" y1="0" x2="1" y2="1"><stop stop-color="#FFF4DD"/><stop offset="1" stop-color="#EFD5A6"/></linearGradient></defs><path d="M3.7 12s3-5.6 8.3-5.6 8.3 5.6 8.3 5.6-3 5.6-8.3 5.6S3.7 12 3.7 12z" fill="url(#ui_icon_previewfocusedmasterg)" stroke="#233F2D" stroke-width="1.35"/><circle cx="12" cy="12" r="3.2" fill="#4D724E"/><circle cx="11" cy="10.9" r="1" fill="#FFFDF7" opacity=".84"/></g></svg></svg>
