<?xml version="1.0" encoding="UTF-8"?>
<svg xmlns="http://www.w3.org/2000/svg" width="120" height="24" viewBox="0 0 120 24"><metadata>{"schema":"looper.ui.master.v1","asset_id":"ui_icon_compost","asset_version":"v001","visual_status":"Approved","states":["default","pressed","disabled","focused"],"style_lock":"Looper UI Style Lock v1.0 Approved","scalable":true,"transparent":true}</metadata><svg x="0" y="0" width="24" height="24" viewBox="0 0 24 24"><defs><filter id="ui_icon_compostdefaultmasters" x="-30%" y="-30%" width="160%" height="180%"><feGaussianBlur stdDeviation="1.05"/></filter></defs><g transform="translate(0 0)" opacity="1"><ellipse cx="12" cy="21" rx="7.6" ry="1.8" fill="#2B241C" opacity="0.13" filter="url(#ui_icon_compostdefaultmasters)"/><defs><linearGradient id="ui_icon_compostdefaultmasterw" x1="0" y1="0" x2="1" y2="1"><stop stop-color="#D8AA70"/><stop offset="1" stop-color="#99643B"/></linearGradient><linearGradient id="ui_icon_compostdefaultmasterg" x1="0" y1="0" x2="1" y2="1"><stop stop-color="#738F6B"/><stop offset="1" stop-color="#4D724E"/></linearGradient></defs><path d="M5.2 7.8h13.6l-1.1 11.5H6.3z" fill="url(#ui_icon_compostdefaultmasterw)" stroke="#795039" stroke-width="1.1" stroke-linejoin="round"/><rect x="4.4" y="5.3" width="15.2" height="3.4" rx="1.6" fill="#D8AA70" stroke="#795039" stroke-width="1"/><path d="M9 5.2V3.9h6v1.3" fill="none" stroke="#99643B" stroke-width="1.5"/><path d="M9 12a3.7 3.7 0 0 1 5.7-1.3" fill="none" stroke="url(#ui_icon_compostdefaultmasterg)" stroke-width="1.8" stroke-linecap="round"/><path d="m14.6 8.8.6 2.4-2.5-.4" fill="#4D724E"/><path d="M15 14a3.7 3.7 0 0 1-5.7 1.3" fill="none" stroke="url(#ui_icon_compostdefaultmasterg)" stroke-width="1.8" stroke-linecap="round"/><path d="m9.4 17.2-.6-2.4 2.5.4" fill="#4D724E"/></g></svg><svg x="32" y="0" width="24" height="24" viewBox="0 0 24 24"><defs><filter id="ui_icon_compostpressedmasters" x="-30%" y="-30%" width="160%" height="180%"><feGaussianBlur stdDeviation="1.05"/></filter></defs><g transform="translate(0 1)" opacity="1"><ellipse cx="12" cy="21" rx="7.6" ry="1.8" fill="#2B241C" opacity="0.07" filter="url(#ui_icon_compostpressedmasters)"/><defs><linearGradient id="ui_icon_compostpressedmasterw" x1="0" y1="0" x2="1" y2="1"><stop stop-color="#D8AA70"/><stop offset="1" stop-color="#99643B"/></linearGradient><linearGradient id="ui_icon_compostpressedmasterg" x1="0" y1="0" x2="1" y2="1"><stop stop-color="#738F6B"/><stop offset="1" stop-color="#4D724E"/></linearGradient></defs><path d="M5.2 7.8h13.6l-1.1 11.5H6.3z" fill="url(#ui_icon_compostpressedmasterw)" stroke="#795039" stroke-width="1.1" stroke-linejoin="round"/><rect x="4.4" y="5.3" width="15.2" height="3.4" rx="1.6" fill="#D8AA70" stroke="#795039" stroke-width="1"/><path d="M9 5.2V3.9h6v1.3" fill="none" stroke="#99643B" stroke-width="1.5"/><path d="M9 12a3.7 3.7 0 0 1 5.7-1.3" fill="none" stroke="url(#ui_icon_compostpressedmasterg)" stroke-width="1.8" stroke-linecap="round"/><path d="m14.6 8.8.6 2.4-2.5-.4" fill="#4D724E"/><path d="M15 14a3.7 3.7 0 0 1-5.7 1.3" fill="none" stroke="url(#ui_icon_compostpressedmasterg)" stroke-width="1.8" stroke-linecap="round"/><path d="m9.4 17.2-.6-2.4 2.5.4" fill="#4D724E"/></g></svg><svg x="64" y="0" width="24" height="24" viewBox="0 0 24 24"><defs><filter id="ui_icon_compostdisabledmasters" x="-30%" y="-30%" width="160%" height="180%"><feGaussianBlur stdDeviation="1.05"/></filter></defs><g transform="translate(0 0)" opacity="0.42"><ellipse cx="12" cy="21" rx="7.6" ry="1.8" fill="#2B241C" opacity="0.04" filter="url(#ui_icon_compostdisabledmasters)"/><defs><linearGradient id="ui_icon_compostdisabledmasterw" x1="0" y1="0" x2="1" y2="1"><stop stop-color="#D8AA70"/><stop offset="1" stop-color="#99643B"/></linearGradient><linearGradient id="ui_icon_compostdisabledmasterg" x1="0" y1="0" x2="1" y2="1"><stop stop-color="#738F6B"/><stop offset="1" stop-color="#4D724E"/></linearGradient></defs><path d="M5.2 7.8h13.6l-1.1 11.5H6.3z" fill="url(#ui_icon_compostdisabledmasterw)" stroke="#795039" stroke-width="1.1" stroke-linejoin="round"/><rect x="4.4" y="5.3" width="15.2" height="3.4" rx="1.6" fill="#D8AA70" stroke="#795039" stroke-width="1"/><path d="M9 5.2V3.9h6v1.3" fill="none" stroke="#99643B" stroke-width="1.5"/><path d="M9 12a3.7 3.7 0 0 1 5.7-1.3" fill="none" stroke="url(#ui_icon_compostdisabledmasterg)" stroke-width="1.8" stroke-linecap="round"/><path d="m14.6 8.8.6 2.4-2.5-.4" fill="#4D724E"/><path d="M15 14a3.7 3.7 0 0 1-5.7 1.3" fill="none" stroke="url(#ui_icon_compostdisabledmasterg)" stroke-width="1.8" stroke-linecap="round"/><path d="m9.4 17.2-.6-2.4 2.5.4" fill="#4D724E"/></g></svg><svg x="96" y="0" width="24" height="24" viewBox="0 0 24 24"><defs><filter id="ui_icon_compostfocusedmasters" x="-30%" y="-30%" width="160%" height="180%"><feGaussianBlur stdDeviation="1.05"/></filter></defs><g transform="translate(0 0)" opacity="1"><ellipse cx="12" cy="21" rx="7.6" ry="1.8" fill="#2B241C" opacity="0.13" filter="url(#ui_icon_compostfocusedmasters)"/><defs><linearGradient id="ui_icon_compostfocusedmasterw" x1="0" y1="0" x2="1" y2="1"><stop stop-color="#D8AA70"/><stop offset="1" stop-color="#99643B"/></linearGradient><linearGradient id="ui_icon_compostfocusedmasterg" x1="0" y1="0" x2="1" y2="1"><stop stop-color="#738F6B"/><stop offset="1" stop-color="#4D724E"/></linearGradient></defs><path d="M5.2 7.8h13.6l-1.1 11.5H6.3z" fill="url(#ui_icon_compostfocusedmasterw)" stroke="#795039" stroke-width="1.1" stroke-linejoin="round"/><rect x="4.4" y="5.3" width="15.2" height="3.4" rx="1.6" fill="#D8AA70" stroke="#795039" stroke-width="1"/><path d="M9 5.2V3.9h6v1.3" fill="none" stroke="#99643B" stroke-width="1.5"/><path d="M9 12a3.7 3.7 0 0 1 5.7-1.3" fill="none" stroke="url(#ui_icon_compostfocusedmasterg)" stroke-width="1.8" stroke-linecap="round"/><path d="m14.6 8.8.6 2.4-2.5-.4" fill="#4D724E"/><path d="M15 14a3.7 3.7 0 0 1-5.7 1.3" fill="none" stroke="url(#ui_icon_compostfocusedmasterg)" stroke-width="1.8" stroke-linecap="round"/><path d="m9.4 17.2-.6-2.4 2.5.4" fill="#4D724E"/></g></svg></svg>
