<?xml version="1.0" encoding="UTF-8"?>
<svg xmlns="http://www.w3.org/2000/svg" width="120" height="24" viewBox="0 0 120 24"><metadata>{"schema":"looper.ui.master.v1","asset_id":"ui_icon_home","asset_version":"v001","visual_status":"Approved","states":["default","pressed","disabled","focused"],"style_lock":"Looper UI Style Lock v1.0 Approved","scalable":true,"transparent":true}</metadata><svg x="0" y="0" width="24" height="24" viewBox="0 0 24 24"><defs><filter id="ui_icon_homedefaultmasters" x="-30%" y="-30%" width="160%" height="180%"><feGaussianBlur stdDeviation="1.05"/></filter></defs><g transform="translate(0 0)" opacity="1"><ellipse cx="12" cy="21" rx="7.6" ry="1.8" fill="#2B241C" opacity="0.13" filter="url(#ui_icon_homedefaultmasters)"/><defs><linearGradient id="ui_icon_homedefaultmasterc" x1="0" y1="0" x2="1" y2="1"><stop stop-color="#FFFDF7"/><stop offset="1" stop-color="#EFD5A6"/></linearGradient><linearGradient id="ui_icon_homedefaultmasterg" x1="0" y1="0" x2="1" y2="1"><stop stop-color="#738F6B"/><stop offset="1" stop-color="#4D724E"/></linearGradient></defs><path d="m3.7 11.2 8.3-7.1 8.3 7.1-1.8 2.1-1.2-1v7.2H6.7v-7.2l-1.2 1z" fill="url(#ui_icon_homedefaultmasterg)" stroke="#233F2D" stroke-width="1.1" stroke-linejoin="round"/><path d="M8.1 11h7.8v8.5H8.1z" fill="url(#ui_icon_homedefaultmasterc)"/><rect x="10.3" y="14" width="3.4" height="5.5" rx="1" fill="#99643B"/><path d="m7 9.6 5-4.2 5 4.2" fill="none" stroke="#D9E3C4" stroke-width="1" opacity=".55"/></g></svg><svg x="32" y="0" width="24" height="24" viewBox="0 0 24 24"><defs><filter id="ui_icon_homepressedmasters" x="-30%" y="-30%" width="160%" height="180%"><feGaussianBlur stdDeviation="1.05"/></filter></defs><g transform="translate(0 1)" opacity="1"><ellipse cx="12" cy="21" rx="7.6" ry="1.8" fill="#2B241C" opacity="0.07" filter="url(#ui_icon_homepressedmasters)"/><defs><linearGradient id="ui_icon_homepressedmasterc" x1="0" y1="0" x2="1" y2="1"><stop stop-color="#FFFDF7"/><stop offset="1" stop-color="#EFD5A6"/></linearGradient><linearGradient id="ui_icon_homepressedmasterg" x1="0" y1="0" x2="1" y2="1"><stop stop-color="#738F6B"/><stop offset="1" stop-color="#4D724E"/></linearGradient></defs><path d="m3.7 11.2 8.3-7.1 8.3 7.1-1.8 2.1-1.2-1v7.2H6.7v-7.2l-1.2 1z" fill="url(#ui_icon_homepressedmasterg)" stroke="#233F2D" stroke-width="1.1" stroke-linejoin="round"/><path d="M8.1 11h7.8v8.5H8.1z" fill="url(#ui_icon_homepressedmasterc)"/><rect x="10.3" y="14" width="3.4" height="5.5" rx="1" fill="#99643B"/><path d="m7 9.6 5-4.2 5 4.2" fill="none" stroke="#D9E3C4" stroke-width="1" opacity=".55"/></g></svg><svg x="64" y="0" width="24" height="24" viewBox="0 0 24 24"><defs><filter id="ui_icon_homedisabledmasters" x="-30%" y="-30%" width="160%" height="180%"><feGaussianBlur stdDeviation="1.05"/></filter></defs><g transform="translate(0 0)" opacity="0.42"><ellipse cx="12" cy="21" rx="7.6" ry="1.8" fill="#2B241C" opacity="0.04" filter="url(#ui_icon_homedisabledmasters)"/><defs><linearGradient id="ui_icon_homedisabledmasterc" x1="0" y1="0" x2="1" y2="1"><stop stop-color="#FFFDF7"/><stop offset="1" stop-color="#EFD5A6"/></linearGradient><linearGradient id="ui_icon_homedisabledmasterg" x1="0" y1="0" x2="1" y2="1"><stop stop-color="#738F6B"/><stop offset="1" stop-color="#4D724E"/></linearGradient></defs><path d="m3.7 11.2 8.3-7.1 8.3 7.1-1.8 2.1-1.2-1v7.2H6.7v-7.2l-1.2 1z" fill="url(#ui_icon_homedisabledmasterg)" stroke="#233F2D" stroke-width="1.1" stroke-linejoin="round"/><path d="M8.1 11h7.8v8.5H8.1z" fill="url(#ui_icon_homedisabledmasterc)"/><rect x="10.3" y="14" width="3.4" height="5.5" rx="1" fill="#99643B"/><path d="m7 9.6 5-4.2 5 4.2" fill="none" stroke="#D9E3C4" stroke-width="1" opacity=".55"/></g></svg><svg x="96" y="0" width="24" height="24" viewBox="0 0 24 24"><defs><filter id="ui_icon_homefocusedmasters" x="-30%" y="-30%" width="160%" height="180%"><feGaussianBlur stdDeviation="1.05"/></filter></defs><g transform="translate(0 0)" opacity="1"><ellipse cx="12" cy="21" rx="7.6" ry="1.8" fill="#2B241C" opacity="0.13" filter="url(#ui_icon_homefocusedmasters)"/><defs><linearGradient id="ui_icon_homefocusedmasterc" x1="0" y1="0" x2="1" y2="1"><stop stop-color="#FFFDF7"/><stop offset="1" stop-color="#EFD5A6"/></linearGradient><linearGradient id="ui_icon_homefocusedmasterg" x1="0" y1="0" x2="1" y2="1"><stop stop-color="#738F6B"/><stop offset="1" stop-color="#4D724E"/></linearGradient></defs><path d="m3.7 11.2 8.3-7.1 8.3 7.1-1.8 2.1-1.2-1v7.2H6.7v-7.2l-1.2 1z" fill="url(#ui_icon_homefocusedmasterg)" stroke="#233F2D" stroke-width="1.1" stroke-linejoin="round"/><path d="M8.1 11h7.8v8.5H8.1z" fill="url(#ui_icon_homefocusedmasterc)"/><rect x="10.3" y="14" width="3.4" height="5.5" rx="1" fill="#99643B"/><path d="m7 9.6 5-4.2 5 4.2" fill="none" stroke="#D9E3C4" stroke-width="1" opacity=".55"/></g></svg></svg>
