<?xml version="1.0" encoding="UTF-8"?>
<svg xmlns="http://www.w3.org/2000/svg" width="120" height="24" viewBox="0 0 120 24"><metadata>{"schema":"looper.ui.master.v1","asset_id":"ui_icon_treehouse","asset_version":"v001","visual_status":"Approved","states":["default","pressed","disabled","focused"],"style_lock":"Looper UI Style Lock v1.0 Approved","scalable":true,"transparent":true}</metadata><svg x="0" y="0" width="24" height="24" viewBox="0 0 24 24"><defs><filter id="ui_icon_treehousedefaultmasters" x="-30%" y="-30%" width="160%" height="180%"><feGaussianBlur stdDeviation="1.05"/></filter></defs><g transform="translate(0 0)" opacity="1"><ellipse cx="12" cy="21" rx="7.6" ry="1.8" fill="#2B241C" opacity="0.13" filter="url(#ui_icon_treehousedefaultmasters)"/><defs><linearGradient id="ui_icon_treehousedefaultmasterw" x1="0" y1="0" x2="1" y2="1"><stop stop-color="#D8AA70"/><stop offset="1" stop-color="#99643B"/></linearGradient><linearGradient id="ui_icon_treehousedefaultmasterg" x1="0" y1="0" x2="1" y2="1"><stop stop-color="#738F6B"/><stop offset="1" stop-color="#4D724E"/></linearGradient></defs><path d="M10.2 11h3.6v10h-3.6z" fill="url(#ui_icon_treehousedefaultmasterw)" stroke="#795039" stroke-width=".9"/><path d="m5 11.5 7-6.2 7 6.2-1.7 2-1.1-.9v6.2H7.8v-6.2l-1.1.9z" fill="url(#ui_icon_treehousedefaultmasterw)" stroke="#795039" stroke-width="1.1" stroke-linejoin="round"/><path d="m7.2 10.8 4.8-4.2 4.8 4.2" fill="none" stroke="#4D724E" stroke-width="2" stroke-linecap="round"/><rect x="10.1" y="13.3" width="3.8" height="5.5" rx="1" fill="#F8EEDB"/><path d="M7.5 20.5h9" stroke="#233F2D" stroke-width="1.5" stroke-linecap="round"/></g></svg><svg x="32" y="0" width="24" height="24" viewBox="0 0 24 24"><defs><filter id="ui_icon_treehousepressedmasters" x="-30%" y="-30%" width="160%" height="180%"><feGaussianBlur stdDeviation="1.05"/></filter></defs><g transform="translate(0 1)" opacity="1"><ellipse cx="12" cy="21" rx="7.6" ry="1.8" fill="#2B241C" opacity="0.07" filter="url(#ui_icon_treehousepressedmasters)"/><defs><linearGradient id="ui_icon_treehousepressedmasterw" x1="0" y1="0" x2="1" y2="1"><stop stop-color="#D8AA70"/><stop offset="1" stop-color="#99643B"/></linearGradient><linearGradient id="ui_icon_treehousepressedmasterg" x1="0" y1="0" x2="1" y2="1"><stop stop-color="#738F6B"/><stop offset="1" stop-color="#4D724E"/></linearGradient></defs><path d="M10.2 11h3.6v10h-3.6z" fill="url(#ui_icon_treehousepressedmasterw)" stroke="#795039" stroke-width=".9"/><path d="m5 11.5 7-6.2 7 6.2-1.7 2-1.1-.9v6.2H7.8v-6.2l-1.1.9z" fill="url(#ui_icon_treehousepressedmasterw)" stroke="#795039" stroke-width="1.1" stroke-linejoin="round"/><path d="m7.2 10.8 4.8-4.2 4.8 4.2" fill="none" stroke="#4D724E" stroke-width="2" stroke-linecap="round"/><rect x="10.1" y="13.3" width="3.8" height="5.5" rx="1" fill="#F8EEDB"/><path d="M7.5 20.5h9" stroke="#233F2D" stroke-width="1.5" stroke-linecap="round"/></g></svg><svg x="64" y="0" width="24" height="24" viewBox="0 0 24 24"><defs><filter id="ui_icon_treehousedisabledmasters" x="-30%" y="-30%" width="160%" height="180%"><feGaussianBlur stdDeviation="1.05"/></filter></defs><g transform="translate(0 0)" opacity="0.42"><ellipse cx="12" cy="21" rx="7.6" ry="1.8" fill="#2B241C" opacity="0.04" filter="url(#ui_icon_treehousedisabledmasters)"/><defs><linearGradient id="ui_icon_treehousedisabledmasterw" x1="0" y1="0" x2="1" y2="1"><stop stop-color="#D8AA70"/><stop offset="1" stop-color="#99643B"/></linearGradient><linearGradient id="ui_icon_treehousedisabledmasterg" x1="0" y1="0" x2="1" y2="1"><stop stop-color="#738F6B"/><stop offset="1" stop-color="#4D724E"/></linearGradient></defs><path d="M10.2 11h3.6v10h-3.6z" fill="url(#ui_icon_treehousedisabledmasterw)" stroke="#795039" stroke-width=".9"/><path d="m5 11.5 7-6.2 7 6.2-1.7 2-1.1-.9v6.2H7.8v-6.2l-1.1.9z" fill="url(#ui_icon_treehousedisabledmasterw)" stroke="#795039" stroke-width="1.1" stroke-linejoin="round"/><path d="m7.2 10.8 4.8-4.2 4.8 4.2" fill="none" stroke="#4D724E" stroke-width="2" stroke-linecap="round"/><rect x="10.1" y="13.3" width="3.8" height="5.5" rx="1" fill="#F8EEDB"/><path d="M7.5 20.5h9" stroke="#233F2D" stroke-width="1.5" stroke-linecap="round"/></g></svg><svg x="96" y="0" width="24" height="24" viewBox="0 0 24 24"><defs><filter id="ui_icon_treehousefocusedmasters" x="-30%" y="-30%" width="160%" height="180%"><feGaussianBlur stdDeviation="1.05"/></filter></defs><g transform="translate(0 0)" opacity="1"><ellipse cx="12" cy="21" rx="7.6" ry="1.8" fill="#2B241C" opacity="0.13" filter="url(#ui_icon_treehousefocusedmasters)"/><defs><linearGradient id="ui_icon_treehousefocusedmasterw" x1="0" y1="0" x2="1" y2="1"><stop stop-color="#D8AA70"/><stop offset="1" stop-color="#99643B"/></linearGradient><linearGradient id="ui_icon_treehousefocusedmasterg" x1="0" y1="0" x2="1" y2="1"><stop stop-color="#738F6B"/><stop offset="1" stop-color="#4D724E"/></linearGradient></defs><path d="M10.2 11h3.6v10h-3.6z" fill="url(#ui_icon_treehousefocusedmasterw)" stroke="#795039" stroke-width=".9"/><path d="m5 11.5 7-6.2 7 6.2-1.7 2-1.1-.9v6.2H7.8v-6.2l-1.1.9z" fill="url(#ui_icon_treehousefocusedmasterw)" stroke="#795039" stroke-width="1.1" stroke-linejoin="round"/><path d="m7.2 10.8 4.8-4.2 4.8 4.2" fill="none" stroke="#4D724E" stroke-width="2" stroke-linecap="round"/><rect x="10.1" y="13.3" width="3.8" height="5.5" rx="1" fill="#F8EEDB"/><path d="M7.5 20.5h9" stroke="#233F2D" stroke-width="1.5" stroke-linecap="round"/></g></svg></svg>
