<?xml version="1.0" encoding="UTF-8"?>
<svg xmlns="http://www.w3.org/2000/svg" width="120" height="24" viewBox="0 0 120 24"><metadata>{"schema":"looper.ui.master.v1","asset_id":"ui_icon_weekly_board","asset_version":"v001","visual_status":"Approved","states":["default","pressed","disabled","focused"],"style_lock":"Looper UI Style Lock v1.0 Approved","scalable":true,"transparent":true}</metadata><svg x="0" y="0" width="24" height="24" viewBox="0 0 24 24"><defs><filter id="ui_icon_weekly_boarddefaultmasters" x="-30%" y="-30%" width="160%" height="180%"><feGaussianBlur stdDeviation="1.05"/></filter></defs><g transform="translate(0 0)" opacity="1"><ellipse cx="12" cy="21" rx="7.6" ry="1.8" fill="#2B241C" opacity="0.13" filter="url(#ui_icon_weekly_boarddefaultmasters)"/><defs><linearGradient id="ui_icon_weekly_boarddefaultmasterw" x1="0" y1="0" x2="1" y2="1"><stop stop-color="#D8AA70"/><stop offset="1" stop-color="#99643B"/></linearGradient><linearGradient id="ui_icon_weekly_boarddefaultmasterc" x1="0" y1="0" x2="1" y2="1"><stop stop-color="#FFFDF7"/><stop offset="1" stop-color="#F8EEDB"/></linearGradient></defs><rect x="4.2" y="4.7" width="15.6" height="15.2" rx="2.6" fill="url(#ui_icon_weekly_boarddefaultmasterw)" stroke="#77503A" stroke-width="1.1"/><rect x="6.2" y="7.2" width="11.6" height="10.5" rx="1.5" fill="url(#ui_icon_weekly_boarddefaultmasterc)"/><path d="M9.2 4.8V3.5M14.8 4.8V3.5" stroke="#233F2D" stroke-width="1.7" stroke-linecap="round"/><g fill="#D89A42"><circle cx="8" cy="10" r="1"/><circle cx="12" cy="10" r="1"/><circle cx="16" cy="10" r="1"/><circle cx="8" cy="14" r="1"/><circle cx="12" cy="14" r="1"/><circle cx="16" cy="14" r="1"/><circle cx="12" cy="17" r="1"/></g></g></svg><svg x="32" y="0" width="24" height="24" viewBox="0 0 24 24"><defs><filter id="ui_icon_weekly_boardpressedmasters" x="-30%" y="-30%" width="160%" height="180%"><feGaussianBlur stdDeviation="1.05"/></filter></defs><g transform="translate(0 1)" opacity="1"><ellipse cx="12" cy="21" rx="7.6" ry="1.8" fill="#2B241C" opacity="0.07" filter="url(#ui_icon_weekly_boardpressedmasters)"/><defs><linearGradient id="ui_icon_weekly_boardpressedmasterw" x1="0" y1="0" x2="1" y2="1"><stop stop-color="#D8AA70"/><stop offset="1" stop-color="#99643B"/></linearGradient><linearGradient id="ui_icon_weekly_boardpressedmasterc" x1="0" y1="0" x2="1" y2="1"><stop stop-color="#FFFDF7"/><stop offset="1" stop-color="#F8EEDB"/></linearGradient></defs><rect x="4.2" y="4.7" width="15.6" height="15.2" rx="2.6" fill="url(#ui_icon_weekly_boardpressedmasterw)" stroke="#77503A" stroke-width="1.1"/><rect x="6.2" y="7.2" width="11.6" height="10.5" rx="1.5" fill="url(#ui_icon_weekly_boardpressedmasterc)"/><path d="M9.2 4.8V3.5M14.8 4.8V3.5" stroke="#233F2D" stroke-width="1.7" stroke-linecap="round"/><g fill="#D89A42"><circle cx="8" cy="10" r="1"/><circle cx="12" cy="10" r="1"/><circle cx="16" cy="10" r="1"/><circle cx="8" cy="14" r="1"/><circle cx="12" cy="14" r="1"/><circle cx="16" cy="14" r="1"/><circle cx="12" cy="17" r="1"/></g></g></svg><svg x="64" y="0" width="24" height="24" viewBox="0 0 24 24"><defs><filter id="ui_icon_weekly_boarddisabledmasters" x="-30%" y="-30%" width="160%" height="180%"><feGaussianBlur stdDeviation="1.05"/></filter></defs><g transform="translate(0 0)" opacity="0.42"><ellipse cx="12" cy="21" rx="7.6" ry="1.8" fill="#2B241C" opacity="0.04" filter="url(#ui_icon_weekly_boarddisabledmasters)"/><defs><linearGradient id="ui_icon_weekly_boarddisabledmasterw" x1="0" y1="0" x2="1" y2="1"><stop stop-color="#D8AA70"/><stop offset="1" stop-color="#99643B"/></linearGradient><linearGradient id="ui_icon_weekly_boarddisabledmasterc" x1="0" y1="0" x2="1" y2="1"><stop stop-color="#FFFDF7"/><stop offset="1" stop-color="#F8EEDB"/></linearGradient></defs><rect x="4.2" y="4.7" width="15.6" height="15.2" rx="2.6" fill="url(#ui_icon_weekly_boarddisabledmasterw)" stroke="#77503A" stroke-width="1.1"/><rect x="6.2" y="7.2" width="11.6" height="10.5" rx="1.5" fill="url(#ui_icon_weekly_boarddisabledmasterc)"/><path d="M9.2 4.8V3.5M14.8 4.8V3.5" stroke="#233F2D" stroke-width="1.7" stroke-linecap="round"/><g fill="#D89A42"><circle cx="8" cy="10" r="1"/><circle cx="12" cy="10" r="1"/><circle cx="16" cy="10" r="1"/><circle cx="8" cy="14" r="1"/><circle cx="12" cy="14" r="1"/><circle cx="16" cy="14" r="1"/><circle cx="12" cy="17" r="1"/></g></g></svg><svg x="96" y="0" width="24" height="24" viewBox="0 0 24 24"><defs><filter id="ui_icon_weekly_boardfocusedmasters" x="-30%" y="-30%" width="160%" height="180%"><feGaussianBlur stdDeviation="1.05"/></filter></defs><g transform="translate(0 0)" opacity="1"><ellipse cx="12" cy="21" rx="7.6" ry="1.8" fill="#2B241C" opacity="0.13" filter="url(#ui_icon_weekly_boardfocusedmasters)"/><defs><linearGradient id="ui_icon_weekly_boardfocusedmasterw" x1="0" y1="0" x2="1" y2="1"><stop stop-color="#D8AA70"/><stop offset="1" stop-color="#99643B"/></linearGradient><linearGradient id="ui_icon_weekly_boardfocusedmasterc" x1="0" y1="0" x2="1" y2="1"><stop stop-color="#FFFDF7"/><stop offset="1" stop-color="#F8EEDB"/></linearGradient></defs><rect x="4.2" y="4.7" width="15.6" height="15.2" rx="2.6" fill="url(#ui_icon_weekly_boardfocusedmasterw)" stroke="#77503A" stroke-width="1.1"/><rect x="6.2" y="7.2" width="11.6" height="10.5" rx="1.5" fill="url(#ui_icon_weekly_boardfocusedmasterc)"/><path d="M9.2 4.8V3.5M14.8 4.8V3.5" stroke="#233F2D" stroke-width="1.7" stroke-linecap="round"/><g fill="#D89A42"><circle cx="8" cy="10" r="1"/><circle cx="12" cy="10" r="1"/><circle cx="16" cy="10" r="1"/><circle cx="8" cy="14" r="1"/><circle cx="12" cy="14" r="1"/><circle cx="16" cy="14" r="1"/><circle cx="12" cy="17" r="1"/></g></g></svg></svg>
