<?xml version="1.0" encoding="UTF-8"?>
<svg xmlns="http://www.w3.org/2000/svg" xmlns:xlink="http://www.w3.org/1999/xlink" width="360" height="280" viewBox="0 0 360 280" role="img" data-asset-id="ui_empty_state" data-state="maintenance" data-version="v002"><title>ui_empty_state maintenance v002</title><desc>Refined compact 2.5D Looper empty-state illustration. Title, body and action remain live UI.</desc><metadata>{&quot;asset_id&quot;:&quot;ui_empty_state&quot;,&quot;asset_version&quot;:&quot;v002&quot;,&quot;visual_status&quot;:&quot;Approved&quot;,&quot;state&quot;:&quot;maintenance&quot;,&quot;states&quot;:[&quot;no_data&quot;,&quot;locked&quot;,&quot;maintenance&quot;,&quot;offline&quot;],&quot;live_text_required&quot;:true,&quot;text_and_values_baked&quot;:false,&quot;default_locale&quot;:&quot;zh-Hant&quot;,&quot;semantic_role&quot;:&quot;group&quot;,&quot;decorative_illustration_alt_policy&quot;:&quot;state text supplies semantics; illustration may be hidden from accessibility tree&quot;}</metadata><defs>
  <linearGradient id="ui_empty_statemaintenance-cream" x1="0" y1="0" x2="1" y2="1"><stop stop-color="#FFFDF7"/><stop offset="1" stop-color="#F8EEDB"/></linearGradient>
  <linearGradient id="ui_empty_statemaintenance-sand" x1="0" y1="0" x2="1" y2="1"><stop stop-color="#FFF4DD"/><stop offset="1" stop-color="#EFD5A6"/></linearGradient>
  <linearGradient id="ui_empty_statemaintenance-green" x1="0" y1="0" x2="1" y2="1"><stop stop-color="#738F6B"/><stop offset="1" stop-color="#4D724E"/></linearGradient>
  <linearGradient id="ui_empty_statemaintenance-amber" x1="0" y1="0" x2="1" y2="1"><stop stop-color="#FFB743"/><stop offset="1" stop-color="#E87A19"/></linearGradient>
  <linearGradient id="ui_empty_statemaintenance-violet" x1="0" y1="0" x2="1" y2="1"><stop stop-color="#A779B0"/><stop offset="1" stop-color="#6C4C78"/></linearGradient>
  <linearGradient id="ui_empty_statemaintenance-coral" x1="0" y1="0" x2="1" y2="1"><stop stop-color="#F17A5D"/><stop offset="1" stop-color="#C64E39"/></linearGradient>
  <linearGradient id="ui_empty_statemaintenance-wood" x1="0" y1="0" x2="0" y2="1"><stop stop-color="#D8AA70"/><stop offset="1" stop-color="#99643B"/></linearGradient>
  <pattern id="ui_empty_statemaintenance-grain" width="22" height="22" patternUnits="userSpaceOnUse"><circle cx="5" cy="6" r="1" fill="#fff" opacity=".16"/><path d="M2 17q7-4 15 0" fill="none" stroke="#4C3323" opacity=".09"/></pattern>
  <filter id="ui_empty_statemaintenance-shadow" x="-25%" y="-45%" width="150%" height="210%"><feGaussianBlur stdDeviation="3.2"/></filter>
</defs><defs><linearGradient id="eo-wood" x1="0" y1="0" x2="0" y2="1"><stop stop-color="#D9A96D"/><stop offset="1" stop-color="#9B6137"/></linearGradient><linearGradient id="eo-cream" x1="0" y1="0" x2="1" y2="1"><stop stop-color="#FFF6DF"/><stop offset="1" stop-color="#EBD2A4"/></linearGradient><linearGradient id="eo-metal" x1="0" y1="0" x2="1" y2="1"><stop stop-color="#E7D9B7"/><stop offset="1" stop-color="#88785C"/></linearGradient><pattern id="eo-grain" width="18" height="10" patternUnits="userSpaceOnUse"><path d="M0 4q5-3 10 0t8 0" fill="none" stroke="#6D462D" opacity=".18"/><circle cx="6" cy="8" r=".7" fill="#6D462D" opacity=".16"/></pattern></defs><ellipse cx="180" cy="177" rx="84" ry="15" fill="#3B3027" opacity=".13"/><g><path d="M112 126h136v49H112z" fill="url(#eo-wood)" stroke="#80512F" stroke-width="4"/><path d="M126 126v-13a12 12 0 0 1 12-12h84a12 12 0 0 1 12 12v13" fill="none" stroke="#9C663A" stroke-width="7"/><rect x="112" y="126" width="136" height="49" fill="url(#eo-grain)" opacity=".4"/><path d="M151 131v39M209 131v39" stroke="#7C4F2D" stroke-width="3"/><g stroke="#655844" stroke-width="5" stroke-linecap="round"><path d="M139 122l-11-37"/><path d="M167 122l10-42"/><path d="M207 121l20-36"/></g><path d="M120 84l18-5 5 12-18 5z" fill="url(#eo-metal)"/><path d="M168 80l18 4-4 15-18-4z" fill="url(#eo-metal)"/><path d="M218 83l18 9-7 13-18-9z" fill="#8F8170"/><circle cx="180" cy="151" r="6" fill="#6C5134"/></g><rect data-live-title-slot="true" x="34" y="194" width="292" height="30" fill="none"/><rect data-live-body-slot="true" x="28" y="230" width="304" height="42" fill="none"/><rect data-live-action-slot="true" x="108" y="244" width="144" height="34" fill="none"/></svg>