<?xml version="1.0" encoding="UTF-8"?>
<svg xmlns="http://www.w3.org/2000/svg" width="120" height="24" viewBox="0 0 120 24"><metadata>{"schema":"looper.ui.master.v1","asset_id":"ui_icon_toolbox","asset_version":"v001","visual_status":"Approved","states":["default","pressed","disabled","focused"],"style_lock":"Looper UI Style Lock v1.0 Approved","scalable":true,"transparent":true}</metadata><svg x="0" y="0" width="24" height="24" viewBox="0 0 24 24"><defs><filter id="ui_icon_toolboxdefaultmasters" x="-30%" y="-30%" width="160%" height="180%"><feGaussianBlur stdDeviation="1.05"/></filter></defs><g transform="translate(0 0)" opacity="1"><ellipse cx="12" cy="21" rx="7.6" ry="1.8" fill="#2B241C" opacity="0.13" filter="url(#ui_icon_toolboxdefaultmasters)"/><defs><linearGradient id="ui_icon_toolboxdefaultmasterw" x1="0" y1="0" x2="1" y2="1"><stop stop-color="#DB9950"/><stop offset="1" stop-color="#9C5A34"/></linearGradient><linearGradient id="ui_icon_toolboxdefaultmastera" x1="0" y1="0" x2="1" y2="1"><stop stop-color="#F0C56A"/><stop offset="1" stop-color="#BA7B31"/></linearGradient></defs><path d="M8 7V5.8c0-1 1-1.8 2.2-1.8h3.6C15 4 16 4.8 16 5.8V7" fill="none" stroke="#99643B" stroke-width="2" stroke-linecap="round"/><rect x="3.5" y="7" width="17" height="12.5" rx="3.2" fill="url(#ui_icon_toolboxdefaultmasterw)" stroke="#7C4932" stroke-width="1.1"/><path d="M3.9 10.6h16.2" stroke="#F2C58A" stroke-width="1.1" opacity=".6"/><rect x="9.5" y="10" width="5" height="3.8" rx="1.1" fill="url(#ui_icon_toolboxdefaultmastera)" stroke="#8D5B2C" stroke-width=".7"/><circle cx="12" cy="11.9" r=".7" fill="#FFF0BC"/></g></svg><svg x="32" y="0" width="24" height="24" viewBox="0 0 24 24"><defs><filter id="ui_icon_toolboxpressedmasters" x="-30%" y="-30%" width="160%" height="180%"><feGaussianBlur stdDeviation="1.05"/></filter></defs><g transform="translate(0 1)" opacity="1"><ellipse cx="12" cy="21" rx="7.6" ry="1.8" fill="#2B241C" opacity="0.07" filter="url(#ui_icon_toolboxpressedmasters)"/><defs><linearGradient id="ui_icon_toolboxpressedmasterw" x1="0" y1="0" x2="1" y2="1"><stop stop-color="#DB9950"/><stop offset="1" stop-color="#9C5A34"/></linearGradient><linearGradient id="ui_icon_toolboxpressedmastera" x1="0" y1="0" x2="1" y2="1"><stop stop-color="#F0C56A"/><stop offset="1" stop-color="#BA7B31"/></linearGradient></defs><path d="M8 7V5.8c0-1 1-1.8 2.2-1.8h3.6C15 4 16 4.8 16 5.8V7" fill="none" stroke="#99643B" stroke-width="2" stroke-linecap="round"/><rect x="3.5" y="7" width="17" height="12.5" rx="3.2" fill="url(#ui_icon_toolboxpressedmasterw)" stroke="#7C4932" stroke-width="1.1"/><path d="M3.9 10.6h16.2" stroke="#F2C58A" stroke-width="1.1" opacity=".6"/><rect x="9.5" y="10" width="5" height="3.8" rx="1.1" fill="url(#ui_icon_toolboxpressedmastera)" stroke="#8D5B2C" stroke-width=".7"/><circle cx="12" cy="11.9" r=".7" fill="#FFF0BC"/></g></svg><svg x="64" y="0" width="24" height="24" viewBox="0 0 24 24"><defs><filter id="ui_icon_toolboxdisabledmasters" x="-30%" y="-30%" width="160%" height="180%"><feGaussianBlur stdDeviation="1.05"/></filter></defs><g transform="translate(0 0)" opacity="0.42"><ellipse cx="12" cy="21" rx="7.6" ry="1.8" fill="#2B241C" opacity="0.04" filter="url(#ui_icon_toolboxdisabledmasters)"/><defs><linearGradient id="ui_icon_toolboxdisabledmasterw" x1="0" y1="0" x2="1" y2="1"><stop stop-color="#DB9950"/><stop offset="1" stop-color="#9C5A34"/></linearGradient><linearGradient id="ui_icon_toolboxdisabledmastera" x1="0" y1="0" x2="1" y2="1"><stop stop-color="#F0C56A"/><stop offset="1" stop-color="#BA7B31"/></linearGradient></defs><path d="M8 7V5.8c0-1 1-1.8 2.2-1.8h3.6C15 4 16 4.8 16 5.8V7" fill="none" stroke="#99643B" stroke-width="2" stroke-linecap="round"/><rect x="3.5" y="7" width="17" height="12.5" rx="3.2" fill="url(#ui_icon_toolboxdisabledmasterw)" stroke="#7C4932" stroke-width="1.1"/><path d="M3.9 10.6h16.2" stroke="#F2C58A" stroke-width="1.1" opacity=".6"/><rect x="9.5" y="10" width="5" height="3.8" rx="1.1" fill="url(#ui_icon_toolboxdisabledmastera)" stroke="#8D5B2C" stroke-width=".7"/><circle cx="12" cy="11.9" r=".7" fill="#FFF0BC"/></g></svg><svg x="96" y="0" width="24" height="24" viewBox="0 0 24 24"><defs><filter id="ui_icon_toolboxfocusedmasters" x="-30%" y="-30%" width="160%" height="180%"><feGaussianBlur stdDeviation="1.05"/></filter></defs><g transform="translate(0 0)" opacity="1"><ellipse cx="12" cy="21" rx="7.6" ry="1.8" fill="#2B241C" opacity="0.13" filter="url(#ui_icon_toolboxfocusedmasters)"/><defs><linearGradient id="ui_icon_toolboxfocusedmasterw" x1="0" y1="0" x2="1" y2="1"><stop stop-color="#DB9950"/><stop offset="1" stop-color="#9C5A34"/></linearGradient><linearGradient id="ui_icon_toolboxfocusedmastera" x1="0" y1="0" x2="1" y2="1"><stop stop-color="#F0C56A"/><stop offset="1" stop-color="#BA7B31"/></linearGradient></defs><path d="M8 7V5.8c0-1 1-1.8 2.2-1.8h3.6C15 4 16 4.8 16 5.8V7" fill="none" stroke="#99643B" stroke-width="2" stroke-linecap="round"/><rect x="3.5" y="7" width="17" height="12.5" rx="3.2" fill="url(#ui_icon_toolboxfocusedmasterw)" stroke="#7C4932" stroke-width="1.1"/><path d="M3.9 10.6h16.2" stroke="#F2C58A" stroke-width="1.1" opacity=".6"/><rect x="9.5" y="10" width="5" height="3.8" rx="1.1" fill="url(#ui_icon_toolboxfocusedmastera)" stroke="#8D5B2C" stroke-width=".7"/><circle cx="12" cy="11.9" r=".7" fill="#FFF0BC"/></g></svg></svg>
