<?xml version="1.0" encoding="UTF-8"?>
<svg xmlns="http://www.w3.org/2000/svg" width="120" height="24" viewBox="0 0 120 24"><metadata>{"schema":"looper.ui.master.v1","asset_id":"ui_icon_task_code","asset_version":"v001","visual_status":"Approved","states":["default","pressed","disabled","focused"],"style_lock":"Looper UI Style Lock v1.0 Approved","scalable":true,"transparent":true}</metadata><svg x="0" y="0" width="24" height="24" viewBox="0 0 24 24"><defs><filter id="ui_icon_task_codedefaultmasters" x="-30%" y="-30%" width="160%" height="180%"><feGaussianBlur stdDeviation="1.05"/></filter></defs><g transform="translate(0 0)" opacity="1"><ellipse cx="12" cy="21" rx="7.6" ry="1.8" fill="#2B241C" opacity="0.13" filter="url(#ui_icon_task_codedefaultmasters)"/><defs><linearGradient id="ui_icon_task_codedefaultmastera" x1="0" y1="0" x2="1" y2="1"><stop stop-color="#F1B35A"/><stop offset="1" stop-color="#C87435"/></linearGradient><linearGradient id="ui_icon_task_codedefaultmasterc" x1="0" y1="0" x2="1" y2="1"><stop stop-color="#FFFDF7"/><stop offset="1" stop-color="#F8EEDB"/></linearGradient></defs><rect x="4.2" y="4.2" width="15.6" height="15.6" rx="3.4" fill="url(#ui_icon_task_codedefaultmastera)" stroke="#A45D32" stroke-width="1"/><rect x="6.5" y="6.5" width="11" height="11" rx="2.1" fill="url(#ui_icon_task_codedefaultmasterc)"/><path d="M8.1 8.1h3v3h-3zm4.8 0h3v3h-3zm-4.8 4.8h3v3h-3zm5 0h2.8v1.2h-1.5v1.7h-1.3z" fill="#233F2D"/><circle cx="12" cy="12" r=".7" fill="#D18A39"/></g></svg><svg x="32" y="0" width="24" height="24" viewBox="0 0 24 24"><defs><filter id="ui_icon_task_codepressedmasters" x="-30%" y="-30%" width="160%" height="180%"><feGaussianBlur stdDeviation="1.05"/></filter></defs><g transform="translate(0 1)" opacity="1"><ellipse cx="12" cy="21" rx="7.6" ry="1.8" fill="#2B241C" opacity="0.07" filter="url(#ui_icon_task_codepressedmasters)"/><defs><linearGradient id="ui_icon_task_codepressedmastera" x1="0" y1="0" x2="1" y2="1"><stop stop-color="#F1B35A"/><stop offset="1" stop-color="#C87435"/></linearGradient><linearGradient id="ui_icon_task_codepressedmasterc" x1="0" y1="0" x2="1" y2="1"><stop stop-color="#FFFDF7"/><stop offset="1" stop-color="#F8EEDB"/></linearGradient></defs><rect x="4.2" y="4.2" width="15.6" height="15.6" rx="3.4" fill="url(#ui_icon_task_codepressedmastera)" stroke="#A45D32" stroke-width="1"/><rect x="6.5" y="6.5" width="11" height="11" rx="2.1" fill="url(#ui_icon_task_codepressedmasterc)"/><path d="M8.1 8.1h3v3h-3zm4.8 0h3v3h-3zm-4.8 4.8h3v3h-3zm5 0h2.8v1.2h-1.5v1.7h-1.3z" fill="#233F2D"/><circle cx="12" cy="12" r=".7" fill="#D18A39"/></g></svg><svg x="64" y="0" width="24" height="24" viewBox="0 0 24 24"><defs><filter id="ui_icon_task_codedisabledmasters" x="-30%" y="-30%" width="160%" height="180%"><feGaussianBlur stdDeviation="1.05"/></filter></defs><g transform="translate(0 0)" opacity="0.42"><ellipse cx="12" cy="21" rx="7.6" ry="1.8" fill="#2B241C" opacity="0.04" filter="url(#ui_icon_task_codedisabledmasters)"/><defs><linearGradient id="ui_icon_task_codedisabledmastera" x1="0" y1="0" x2="1" y2="1"><stop stop-color="#F1B35A"/><stop offset="1" stop-color="#C87435"/></linearGradient><linearGradient id="ui_icon_task_codedisabledmasterc" x1="0" y1="0" x2="1" y2="1"><stop stop-color="#FFFDF7"/><stop offset="1" stop-color="#F8EEDB"/></linearGradient></defs><rect x="4.2" y="4.2" width="15.6" height="15.6" rx="3.4" fill="url(#ui_icon_task_codedisabledmastera)" stroke="#A45D32" stroke-width="1"/><rect x="6.5" y="6.5" width="11" height="11" rx="2.1" fill="url(#ui_icon_task_codedisabledmasterc)"/><path d="M8.1 8.1h3v3h-3zm4.8 0h3v3h-3zm-4.8 4.8h3v3h-3zm5 0h2.8v1.2h-1.5v1.7h-1.3z" fill="#233F2D"/><circle cx="12" cy="12" r=".7" fill="#D18A39"/></g></svg><svg x="96" y="0" width="24" height="24" viewBox="0 0 24 24"><defs><filter id="ui_icon_task_codefocusedmasters" x="-30%" y="-30%" width="160%" height="180%"><feGaussianBlur stdDeviation="1.05"/></filter></defs><g transform="translate(0 0)" opacity="1"><ellipse cx="12" cy="21" rx="7.6" ry="1.8" fill="#2B241C" opacity="0.13" filter="url(#ui_icon_task_codefocusedmasters)"/><defs><linearGradient id="ui_icon_task_codefocusedmastera" x1="0" y1="0" x2="1" y2="1"><stop stop-color="#F1B35A"/><stop offset="1" stop-color="#C87435"/></linearGradient><linearGradient id="ui_icon_task_codefocusedmasterc" x1="0" y1="0" x2="1" y2="1"><stop stop-color="#FFFDF7"/><stop offset="1" stop-color="#F8EEDB"/></linearGradient></defs><rect x="4.2" y="4.2" width="15.6" height="15.6" rx="3.4" fill="url(#ui_icon_task_codefocusedmastera)" stroke="#A45D32" stroke-width="1"/><rect x="6.5" y="6.5" width="11" height="11" rx="2.1" fill="url(#ui_icon_task_codefocusedmasterc)"/><path d="M8.1 8.1h3v3h-3zm4.8 0h3v3h-3zm-4.8 4.8h3v3h-3zm5 0h2.8v1.2h-1.5v1.7h-1.3z" fill="#233F2D"/><circle cx="12" cy="12" r=".7" fill="#D18A39"/></g></svg></svg>
