<?xml version="1.0" encoding="UTF-8"?>
<svg xmlns="http://www.w3.org/2000/svg" width="120" height="24" viewBox="0 0 120 24"><metadata>{"schema":"looper.ui.master.v1","asset_id":"ui_icon_nav_mission","asset_version":"v001","visual_status":"Approved","states":["default","pressed","disabled","focused"],"style_lock":"Looper UI Style Lock v1.0 Approved","scalable":true,"transparent":true}</metadata><svg x="0" y="0" width="24" height="24" viewBox="0 0 24 24"><defs><filter id="ui_icon_nav_missiondefaultmasters" x="-30%" y="-30%" width="160%" height="180%"><feGaussianBlur stdDeviation="1.05"/></filter></defs><g transform="translate(0 0)" opacity="1"><ellipse cx="12" cy="21" rx="7.6" ry="1.8" fill="#2B241C" opacity="0.13" filter="url(#ui_icon_nav_missiondefaultmasters)"/><defs><linearGradient id="ui_icon_nav_missiondefaultmasterw" x1="0" y1="0" x2="1" y2="1"><stop stop-color="#D8AA70"/><stop offset="1" stop-color="#99643B"/></linearGradient><linearGradient id="ui_icon_nav_missiondefaultmasterc" x1="0" y1="0" x2="1" y2="1"><stop stop-color="#FFFDF7"/><stop offset="1" stop-color="#F8EEDB"/></linearGradient></defs><rect x="5" y="5.2" width="14" height="15" rx="2.8" fill="url(#ui_icon_nav_missiondefaultmasterw)" stroke="#76503A" stroke-width="1"/><rect x="7" y="7" width="10" height="10.8" rx="1.6" fill="url(#ui_icon_nav_missiondefaultmasterc)"/><rect x="9" y="3.6" width="6" height="3.2" rx="1.2" fill="#D8AE69" stroke="#9A693E" stroke-width=".7"/><path d="m9 12 2 2 4-4.2" fill="none" stroke="#233F2D" stroke-width="1.8" stroke-linecap="round" stroke-linejoin="round"/></g></svg><svg x="32" y="0" width="24" height="24" viewBox="0 0 24 24"><defs><filter id="ui_icon_nav_missionpressedmasters" x="-30%" y="-30%" width="160%" height="180%"><feGaussianBlur stdDeviation="1.05"/></filter></defs><g transform="translate(0 1)" opacity="1"><ellipse cx="12" cy="21" rx="7.6" ry="1.8" fill="#2B241C" opacity="0.07" filter="url(#ui_icon_nav_missionpressedmasters)"/><defs><linearGradient id="ui_icon_nav_missionpressedmasterw" x1="0" y1="0" x2="1" y2="1"><stop stop-color="#D8AA70"/><stop offset="1" stop-color="#99643B"/></linearGradient><linearGradient id="ui_icon_nav_missionpressedmasterc" x1="0" y1="0" x2="1" y2="1"><stop stop-color="#FFFDF7"/><stop offset="1" stop-color="#F8EEDB"/></linearGradient></defs><rect x="5" y="5.2" width="14" height="15" rx="2.8" fill="url(#ui_icon_nav_missionpressedmasterw)" stroke="#76503A" stroke-width="1"/><rect x="7" y="7" width="10" height="10.8" rx="1.6" fill="url(#ui_icon_nav_missionpressedmasterc)"/><rect x="9" y="3.6" width="6" height="3.2" rx="1.2" fill="#D8AE69" stroke="#9A693E" stroke-width=".7"/><path d="m9 12 2 2 4-4.2" fill="none" stroke="#233F2D" stroke-width="1.8" stroke-linecap="round" stroke-linejoin="round"/></g></svg><svg x="64" y="0" width="24" height="24" viewBox="0 0 24 24"><defs><filter id="ui_icon_nav_missiondisabledmasters" x="-30%" y="-30%" width="160%" height="180%"><feGaussianBlur stdDeviation="1.05"/></filter></defs><g transform="translate(0 0)" opacity="0.42"><ellipse cx="12" cy="21" rx="7.6" ry="1.8" fill="#2B241C" opacity="0.04" filter="url(#ui_icon_nav_missiondisabledmasters)"/><defs><linearGradient id="ui_icon_nav_missiondisabledmasterw" x1="0" y1="0" x2="1" y2="1"><stop stop-color="#D8AA70"/><stop offset="1" stop-color="#99643B"/></linearGradient><linearGradient id="ui_icon_nav_missiondisabledmasterc" x1="0" y1="0" x2="1" y2="1"><stop stop-color="#FFFDF7"/><stop offset="1" stop-color="#F8EEDB"/></linearGradient></defs><rect x="5" y="5.2" width="14" height="15" rx="2.8" fill="url(#ui_icon_nav_missiondisabledmasterw)" stroke="#76503A" stroke-width="1"/><rect x="7" y="7" width="10" height="10.8" rx="1.6" fill="url(#ui_icon_nav_missiondisabledmasterc)"/><rect x="9" y="3.6" width="6" height="3.2" rx="1.2" fill="#D8AE69" stroke="#9A693E" stroke-width=".7"/><path d="m9 12 2 2 4-4.2" fill="none" stroke="#233F2D" stroke-width="1.8" stroke-linecap="round" stroke-linejoin="round"/></g></svg><svg x="96" y="0" width="24" height="24" viewBox="0 0 24 24"><defs><filter id="ui_icon_nav_missionfocusedmasters" x="-30%" y="-30%" width="160%" height="180%"><feGaussianBlur stdDeviation="1.05"/></filter></defs><g transform="translate(0 0)" opacity="1"><ellipse cx="12" cy="21" rx="7.6" ry="1.8" fill="#2B241C" opacity="0.13" filter="url(#ui_icon_nav_missionfocusedmasters)"/><defs><linearGradient id="ui_icon_nav_missionfocusedmasterw" x1="0" y1="0" x2="1" y2="1"><stop stop-color="#D8AA70"/><stop offset="1" stop-color="#99643B"/></linearGradient><linearGradient id="ui_icon_nav_missionfocusedmasterc" x1="0" y1="0" x2="1" y2="1"><stop stop-color="#FFFDF7"/><stop offset="1" stop-color="#F8EEDB"/></linearGradient></defs><rect x="5" y="5.2" width="14" height="15" rx="2.8" fill="url(#ui_icon_nav_missionfocusedmasterw)" stroke="#76503A" stroke-width="1"/><rect x="7" y="7" width="10" height="10.8" rx="1.6" fill="url(#ui_icon_nav_missionfocusedmasterc)"/><rect x="9" y="3.6" width="6" height="3.2" rx="1.2" fill="#D8AE69" stroke="#9A693E" stroke-width=".7"/><path d="m9 12 2 2 4-4.2" fill="none" stroke="#233F2D" stroke-width="1.8" stroke-linecap="round" stroke-linejoin="round"/></g></svg></svg>
