<?xml version="1.0" encoding="UTF-8"?>
<svg xmlns="http://www.w3.org/2000/svg" width="120" height="24" viewBox="0 0 120 24"><metadata>{"schema":"looper.ui.master.v1","asset_id":"ui_icon_source","asset_version":"v001","visual_status":"Approved","states":["default","pressed","disabled","focused"],"style_lock":"Looper UI Style Lock v1.0 Approved","scalable":true,"transparent":true}</metadata><svg x="0" y="0" width="24" height="24" viewBox="0 0 24 24"><defs><filter id="ui_icon_sourcedefaultmasters" x="-30%" y="-30%" width="160%" height="180%"><feGaussianBlur stdDeviation="1.05"/></filter></defs><g transform="translate(0 0)" opacity="1"><ellipse cx="12" cy="21" rx="7.6" ry="1.8" fill="#2B241C" opacity="0.13" filter="url(#ui_icon_sourcedefaultmasters)"/><defs><linearGradient id="ui_icon_sourcedefaultmasterc" x1="0" y1="0" x2="1" y2="1"><stop stop-color="#FFFDF7"/><stop offset="1" stop-color="#F8EEDB"/></linearGradient><linearGradient id="ui_icon_sourcedefaultmasterw" x1="0" y1="0" x2="1" y2="1"><stop stop-color="#D8AA70"/><stop offset="1" stop-color="#99643B"/></linearGradient></defs><path d="M5.3 3.8h9.2l3.4 3.5v11.2H5.3z" fill="url(#ui_icon_sourcedefaultmasterc)" stroke="url(#ui_icon_sourcedefaultmasterw)" stroke-width="1.1" stroke-linejoin="round"/><path d="M14.4 3.8v3.6H18M8 9.5h5.8M8 12h4.4" fill="none" stroke="#B8915E" stroke-width="1" stroke-linecap="round"/><circle cx="15.4" cy="15" r="3" fill="#719064" stroke="#233F2D" stroke-width=".9"/><path d="m17.6 17.2 2 2" stroke="#233F2D" stroke-width="1.8" stroke-linecap="round"/><path d="M14.1 14h2.5" stroke="#EFF3DA" stroke-width=".8" stroke-linecap="round"/></g></svg><svg x="32" y="0" width="24" height="24" viewBox="0 0 24 24"><defs><filter id="ui_icon_sourcepressedmasters" x="-30%" y="-30%" width="160%" height="180%"><feGaussianBlur stdDeviation="1.05"/></filter></defs><g transform="translate(0 1)" opacity="1"><ellipse cx="12" cy="21" rx="7.6" ry="1.8" fill="#2B241C" opacity="0.07" filter="url(#ui_icon_sourcepressedmasters)"/><defs><linearGradient id="ui_icon_sourcepressedmasterc" x1="0" y1="0" x2="1" y2="1"><stop stop-color="#FFFDF7"/><stop offset="1" stop-color="#F8EEDB"/></linearGradient><linearGradient id="ui_icon_sourcepressedmasterw" x1="0" y1="0" x2="1" y2="1"><stop stop-color="#D8AA70"/><stop offset="1" stop-color="#99643B"/></linearGradient></defs><path d="M5.3 3.8h9.2l3.4 3.5v11.2H5.3z" fill="url(#ui_icon_sourcepressedmasterc)" stroke="url(#ui_icon_sourcepressedmasterw)" stroke-width="1.1" stroke-linejoin="round"/><path d="M14.4 3.8v3.6H18M8 9.5h5.8M8 12h4.4" fill="none" stroke="#B8915E" stroke-width="1" stroke-linecap="round"/><circle cx="15.4" cy="15" r="3" fill="#719064" stroke="#233F2D" stroke-width=".9"/><path d="m17.6 17.2 2 2" stroke="#233F2D" stroke-width="1.8" stroke-linecap="round"/><path d="M14.1 14h2.5" stroke="#EFF3DA" stroke-width=".8" stroke-linecap="round"/></g></svg><svg x="64" y="0" width="24" height="24" viewBox="0 0 24 24"><defs><filter id="ui_icon_sourcedisabledmasters" x="-30%" y="-30%" width="160%" height="180%"><feGaussianBlur stdDeviation="1.05"/></filter></defs><g transform="translate(0 0)" opacity="0.42"><ellipse cx="12" cy="21" rx="7.6" ry="1.8" fill="#2B241C" opacity="0.04" filter="url(#ui_icon_sourcedisabledmasters)"/><defs><linearGradient id="ui_icon_sourcedisabledmasterc" x1="0" y1="0" x2="1" y2="1"><stop stop-color="#FFFDF7"/><stop offset="1" stop-color="#F8EEDB"/></linearGradient><linearGradient id="ui_icon_sourcedisabledmasterw" x1="0" y1="0" x2="1" y2="1"><stop stop-color="#D8AA70"/><stop offset="1" stop-color="#99643B"/></linearGradient></defs><path d="M5.3 3.8h9.2l3.4 3.5v11.2H5.3z" fill="url(#ui_icon_sourcedisabledmasterc)" stroke="url(#ui_icon_sourcedisabledmasterw)" stroke-width="1.1" stroke-linejoin="round"/><path d="M14.4 3.8v3.6H18M8 9.5h5.8M8 12h4.4" fill="none" stroke="#B8915E" stroke-width="1" stroke-linecap="round"/><circle cx="15.4" cy="15" r="3" fill="#719064" stroke="#233F2D" stroke-width=".9"/><path d="m17.6 17.2 2 2" stroke="#233F2D" stroke-width="1.8" stroke-linecap="round"/><path d="M14.1 14h2.5" stroke="#EFF3DA" stroke-width=".8" stroke-linecap="round"/></g></svg><svg x="96" y="0" width="24" height="24" viewBox="0 0 24 24"><defs><filter id="ui_icon_sourcefocusedmasters" x="-30%" y="-30%" width="160%" height="180%"><feGaussianBlur stdDeviation="1.05"/></filter></defs><g transform="translate(0 0)" opacity="1"><ellipse cx="12" cy="21" rx="7.6" ry="1.8" fill="#2B241C" opacity="0.13" filter="url(#ui_icon_sourcefocusedmasters)"/><defs><linearGradient id="ui_icon_sourcefocusedmasterc" x1="0" y1="0" x2="1" y2="1"><stop stop-color="#FFFDF7"/><stop offset="1" stop-color="#F8EEDB"/></linearGradient><linearGradient id="ui_icon_sourcefocusedmasterw" x1="0" y1="0" x2="1" y2="1"><stop stop-color="#D8AA70"/><stop offset="1" stop-color="#99643B"/></linearGradient></defs><path d="M5.3 3.8h9.2l3.4 3.5v11.2H5.3z" fill="url(#ui_icon_sourcefocusedmasterc)" stroke="url(#ui_icon_sourcefocusedmasterw)" stroke-width="1.1" stroke-linejoin="round"/><path d="M14.4 3.8v3.6H18M8 9.5h5.8M8 12h4.4" fill="none" stroke="#B8915E" stroke-width="1" stroke-linecap="round"/><circle cx="15.4" cy="15" r="3" fill="#719064" stroke="#233F2D" stroke-width=".9"/><path d="m17.6 17.2 2 2" stroke="#233F2D" stroke-width="1.8" stroke-linecap="round"/><path d="M14.1 14h2.5" stroke="#EFF3DA" stroke-width=".8" stroke-linecap="round"/></g></svg></svg>
