<?xml version="1.0" encoding="UTF-8"?>
<svg xmlns="http://www.w3.org/2000/svg" width="120" height="24" viewBox="0 0 120 24"><metadata>{"schema":"looper.ui.master.v1","asset_id":"ui_icon_nav_settings","asset_version":"v001","visual_status":"Approved","states":["default","pressed","disabled","focused"],"style_lock":"Looper UI Style Lock v1.0 Approved","scalable":true,"transparent":true}</metadata><svg x="0" y="0" width="24" height="24" viewBox="0 0 24 24"><defs><filter id="ui_icon_nav_settingsdefaultmasters" x="-30%" y="-30%" width="160%" height="180%"><feGaussianBlur stdDeviation="1.05"/></filter></defs><g transform="translate(0 0)" opacity="1"><ellipse cx="12" cy="21" rx="7.6" ry="1.8" fill="#2B241C" opacity="0.13" filter="url(#ui_icon_nav_settingsdefaultmasters)"/><defs><linearGradient id="ui_icon_nav_settingsdefaultmasterg" x1="0" y1="0" x2="1" y2="1"><stop stop-color="#738F6B"/><stop offset="1" stop-color="#4D724E"/></linearGradient><linearGradient id="ui_icon_nav_settingsdefaultmastera" x1="0" y1="0" x2="1" y2="1"><stop stop-color="#F2C15C"/><stop offset="1" stop-color="#B8792F"/></linearGradient></defs><path d="M10 3.5h4l.6 2.1 1.8.8 2-.9 2 3.4-1.6 1.5.2 2.1 1.7 1.3-2 3.5-2.2-.6-1.7 1.2-.4 2.2h-4l-.6-2.1-1.8-.8-2 .9-2-3.4 1.6-1.5-.2-2.1-1.7-1.3 2-3.5 2.2.6 1.7-1.2z" fill="url(#ui_icon_nav_settingsdefaultmasterg)" stroke="#233F2D" stroke-width=".8" stroke-linejoin="round"/><circle cx="12" cy="12" r="3.6" fill="url(#ui_icon_nav_settingsdefaultmastera)" stroke="#91602D" stroke-width=".8"/><circle cx="12" cy="12" r="1.4" fill="#FFF1C5"/></g></svg><svg x="32" y="0" width="24" height="24" viewBox="0 0 24 24"><defs><filter id="ui_icon_nav_settingspressedmasters" x="-30%" y="-30%" width="160%" height="180%"><feGaussianBlur stdDeviation="1.05"/></filter></defs><g transform="translate(0 1)" opacity="1"><ellipse cx="12" cy="21" rx="7.6" ry="1.8" fill="#2B241C" opacity="0.07" filter="url(#ui_icon_nav_settingspressedmasters)"/><defs><linearGradient id="ui_icon_nav_settingspressedmasterg" x1="0" y1="0" x2="1" y2="1"><stop stop-color="#738F6B"/><stop offset="1" stop-color="#4D724E"/></linearGradient><linearGradient id="ui_icon_nav_settingspressedmastera" x1="0" y1="0" x2="1" y2="1"><stop stop-color="#F2C15C"/><stop offset="1" stop-color="#B8792F"/></linearGradient></defs><path d="M10 3.5h4l.6 2.1 1.8.8 2-.9 2 3.4-1.6 1.5.2 2.1 1.7 1.3-2 3.5-2.2-.6-1.7 1.2-.4 2.2h-4l-.6-2.1-1.8-.8-2 .9-2-3.4 1.6-1.5-.2-2.1-1.7-1.3 2-3.5 2.2.6 1.7-1.2z" fill="url(#ui_icon_nav_settingspressedmasterg)" stroke="#233F2D" stroke-width=".8" stroke-linejoin="round"/><circle cx="12" cy="12" r="3.6" fill="url(#ui_icon_nav_settingspressedmastera)" stroke="#91602D" stroke-width=".8"/><circle cx="12" cy="12" r="1.4" fill="#FFF1C5"/></g></svg><svg x="64" y="0" width="24" height="24" viewBox="0 0 24 24"><defs><filter id="ui_icon_nav_settingsdisabledmasters" x="-30%" y="-30%" width="160%" height="180%"><feGaussianBlur stdDeviation="1.05"/></filter></defs><g transform="translate(0 0)" opacity="0.42"><ellipse cx="12" cy="21" rx="7.6" ry="1.8" fill="#2B241C" opacity="0.04" filter="url(#ui_icon_nav_settingsdisabledmasters)"/><defs><linearGradient id="ui_icon_nav_settingsdisabledmasterg" x1="0" y1="0" x2="1" y2="1"><stop stop-color="#738F6B"/><stop offset="1" stop-color="#4D724E"/></linearGradient><linearGradient id="ui_icon_nav_settingsdisabledmastera" x1="0" y1="0" x2="1" y2="1"><stop stop-color="#F2C15C"/><stop offset="1" stop-color="#B8792F"/></linearGradient></defs><path d="M10 3.5h4l.6 2.1 1.8.8 2-.9 2 3.4-1.6 1.5.2 2.1 1.7 1.3-2 3.5-2.2-.6-1.7 1.2-.4 2.2h-4l-.6-2.1-1.8-.8-2 .9-2-3.4 1.6-1.5-.2-2.1-1.7-1.3 2-3.5 2.2.6 1.7-1.2z" fill="url(#ui_icon_nav_settingsdisabledmasterg)" stroke="#233F2D" stroke-width=".8" stroke-linejoin="round"/><circle cx="12" cy="12" r="3.6" fill="url(#ui_icon_nav_settingsdisabledmastera)" stroke="#91602D" stroke-width=".8"/><circle cx="12" cy="12" r="1.4" fill="#FFF1C5"/></g></svg><svg x="96" y="0" width="24" height="24" viewBox="0 0 24 24"><defs><filter id="ui_icon_nav_settingsfocusedmasters" x="-30%" y="-30%" width="160%" height="180%"><feGaussianBlur stdDeviation="1.05"/></filter></defs><g transform="translate(0 0)" opacity="1"><ellipse cx="12" cy="21" rx="7.6" ry="1.8" fill="#2B241C" opacity="0.13" filter="url(#ui_icon_nav_settingsfocusedmasters)"/><defs><linearGradient id="ui_icon_nav_settingsfocusedmasterg" x1="0" y1="0" x2="1" y2="1"><stop stop-color="#738F6B"/><stop offset="1" stop-color="#4D724E"/></linearGradient><linearGradient id="ui_icon_nav_settingsfocusedmastera" x1="0" y1="0" x2="1" y2="1"><stop stop-color="#F2C15C"/><stop offset="1" stop-color="#B8792F"/></linearGradient></defs><path d="M10 3.5h4l.6 2.1 1.8.8 2-.9 2 3.4-1.6 1.5.2 2.1 1.7 1.3-2 3.5-2.2-.6-1.7 1.2-.4 2.2h-4l-.6-2.1-1.8-.8-2 .9-2-3.4 1.6-1.5-.2-2.1-1.7-1.3 2-3.5 2.2.6 1.7-1.2z" fill="url(#ui_icon_nav_settingsfocusedmasterg)" stroke="#233F2D" stroke-width=".8" stroke-linejoin="round"/><circle cx="12" cy="12" r="3.6" fill="url(#ui_icon_nav_settingsfocusedmastera)" stroke="#91602D" stroke-width=".8"/><circle cx="12" cy="12" r="1.4" fill="#FFF1C5"/></g></svg></svg>
