<?xml version="1.0" encoding="UTF-8"?>
<svg xmlns="http://www.w3.org/2000/svg" width="120" height="24" viewBox="0 0 120 24"><metadata>{"schema":"looper.ui.master.v1","asset_id":"ui_icon_tidy","asset_version":"v001","visual_status":"Approved","states":["default","pressed","disabled","focused"],"style_lock":"Looper UI Style Lock v1.0 Approved","scalable":true,"transparent":true}</metadata><svg x="0" y="0" width="24" height="24" viewBox="0 0 24 24"><defs><filter id="ui_icon_tidydefaultmasters" x="-30%" y="-30%" width="160%" height="180%"><feGaussianBlur stdDeviation="1.05"/></filter></defs><g transform="translate(0 0)" opacity="1"><ellipse cx="12" cy="21" rx="7.6" ry="1.8" fill="#2B241C" opacity="0.13" filter="url(#ui_icon_tidydefaultmasters)"/><defs><linearGradient id="ui_icon_tidydefaultmastera" x1="0" y1="0" x2="1" y2="1"><stop stop-color="#E7A44A"/><stop offset="1" stop-color="#BC6A32"/></linearGradient><linearGradient id="ui_icon_tidydefaultmasterc" x1="0" y1="0" x2="1" y2="1"><stop stop-color="#FFFDF7"/><stop offset="1" stop-color="#EFD5A6"/></linearGradient></defs><path d="M4.2 9.6h15.6l-1.5 9.2H5.7z" fill="url(#ui_icon_tidydefaultmastera)" stroke="#8C5434" stroke-width="1.1" stroke-linejoin="round"/><path d="M7 9.4V7.7A2.7 2.7 0 0 1 9.7 5h4.6A2.7 2.7 0 0 1 17 7.7v1.7" fill="none" stroke="#99643B" stroke-width="1.8" stroke-linecap="round"/><path d="M7.4 11.7h9.2M6.9 14.7h10.2" stroke="#F7C66D" stroke-width="1" stroke-linecap="round" opacity=".66"/><path d="m8 8 2.8-2.3 2.7 2.1 2.5-2.1v4H8z" fill="url(#ui_icon_tidydefaultmasterc)" stroke="#D8AA70" stroke-width=".8" stroke-linejoin="round"/></g></svg><svg x="32" y="0" width="24" height="24" viewBox="0 0 24 24"><defs><filter id="ui_icon_tidypressedmasters" x="-30%" y="-30%" width="160%" height="180%"><feGaussianBlur stdDeviation="1.05"/></filter></defs><g transform="translate(0 1)" opacity="1"><ellipse cx="12" cy="21" rx="7.6" ry="1.8" fill="#2B241C" opacity="0.07" filter="url(#ui_icon_tidypressedmasters)"/><defs><linearGradient id="ui_icon_tidypressedmastera" x1="0" y1="0" x2="1" y2="1"><stop stop-color="#E7A44A"/><stop offset="1" stop-color="#BC6A32"/></linearGradient><linearGradient id="ui_icon_tidypressedmasterc" x1="0" y1="0" x2="1" y2="1"><stop stop-color="#FFFDF7"/><stop offset="1" stop-color="#EFD5A6"/></linearGradient></defs><path d="M4.2 9.6h15.6l-1.5 9.2H5.7z" fill="url(#ui_icon_tidypressedmastera)" stroke="#8C5434" stroke-width="1.1" stroke-linejoin="round"/><path d="M7 9.4V7.7A2.7 2.7 0 0 1 9.7 5h4.6A2.7 2.7 0 0 1 17 7.7v1.7" fill="none" stroke="#99643B" stroke-width="1.8" stroke-linecap="round"/><path d="M7.4 11.7h9.2M6.9 14.7h10.2" stroke="#F7C66D" stroke-width="1" stroke-linecap="round" opacity=".66"/><path d="m8 8 2.8-2.3 2.7 2.1 2.5-2.1v4H8z" fill="url(#ui_icon_tidypressedmasterc)" stroke="#D8AA70" stroke-width=".8" stroke-linejoin="round"/></g></svg><svg x="64" y="0" width="24" height="24" viewBox="0 0 24 24"><defs><filter id="ui_icon_tidydisabledmasters" x="-30%" y="-30%" width="160%" height="180%"><feGaussianBlur stdDeviation="1.05"/></filter></defs><g transform="translate(0 0)" opacity="0.42"><ellipse cx="12" cy="21" rx="7.6" ry="1.8" fill="#2B241C" opacity="0.04" filter="url(#ui_icon_tidydisabledmasters)"/><defs><linearGradient id="ui_icon_tidydisabledmastera" x1="0" y1="0" x2="1" y2="1"><stop stop-color="#E7A44A"/><stop offset="1" stop-color="#BC6A32"/></linearGradient><linearGradient id="ui_icon_tidydisabledmasterc" x1="0" y1="0" x2="1" y2="1"><stop stop-color="#FFFDF7"/><stop offset="1" stop-color="#EFD5A6"/></linearGradient></defs><path d="M4.2 9.6h15.6l-1.5 9.2H5.7z" fill="url(#ui_icon_tidydisabledmastera)" stroke="#8C5434" stroke-width="1.1" stroke-linejoin="round"/><path d="M7 9.4V7.7A2.7 2.7 0 0 1 9.7 5h4.6A2.7 2.7 0 0 1 17 7.7v1.7" fill="none" stroke="#99643B" stroke-width="1.8" stroke-linecap="round"/><path d="M7.4 11.7h9.2M6.9 14.7h10.2" stroke="#F7C66D" stroke-width="1" stroke-linecap="round" opacity=".66"/><path d="m8 8 2.8-2.3 2.7 2.1 2.5-2.1v4H8z" fill="url(#ui_icon_tidydisabledmasterc)" stroke="#D8AA70" stroke-width=".8" stroke-linejoin="round"/></g></svg><svg x="96" y="0" width="24" height="24" viewBox="0 0 24 24"><defs><filter id="ui_icon_tidyfocusedmasters" x="-30%" y="-30%" width="160%" height="180%"><feGaussianBlur stdDeviation="1.05"/></filter></defs><g transform="translate(0 0)" opacity="1"><ellipse cx="12" cy="21" rx="7.6" ry="1.8" fill="#2B241C" opacity="0.13" filter="url(#ui_icon_tidyfocusedmasters)"/><defs><linearGradient id="ui_icon_tidyfocusedmastera" x1="0" y1="0" x2="1" y2="1"><stop stop-color="#E7A44A"/><stop offset="1" stop-color="#BC6A32"/></linearGradient><linearGradient id="ui_icon_tidyfocusedmasterc" x1="0" y1="0" x2="1" y2="1"><stop stop-color="#FFFDF7"/><stop offset="1" stop-color="#EFD5A6"/></linearGradient></defs><path d="M4.2 9.6h15.6l-1.5 9.2H5.7z" fill="url(#ui_icon_tidyfocusedmastera)" stroke="#8C5434" stroke-width="1.1" stroke-linejoin="round"/><path d="M7 9.4V7.7A2.7 2.7 0 0 1 9.7 5h4.6A2.7 2.7 0 0 1 17 7.7v1.7" fill="none" stroke="#99643B" stroke-width="1.8" stroke-linecap="round"/><path d="M7.4 11.7h9.2M6.9 14.7h10.2" stroke="#F7C66D" stroke-width="1" stroke-linecap="round" opacity=".66"/><path d="m8 8 2.8-2.3 2.7 2.1 2.5-2.1v4H8z" fill="url(#ui_icon_tidyfocusedmasterc)" stroke="#D8AA70" stroke-width=".8" stroke-linejoin="round"/></g></svg></svg>
