<?xml version="1.0" encoding="UTF-8"?>
<svg xmlns="http://www.w3.org/2000/svg" width="120" height="24" viewBox="0 0 120 24"><metadata>{"schema":"looper.ui.master.v1","asset_id":"ui_icon_sit","asset_version":"v001","visual_status":"Approved","states":["default","pressed","disabled","focused"],"style_lock":"Looper UI Style Lock v1.0 Approved","scalable":true,"transparent":true}</metadata><svg x="0" y="0" width="24" height="24" viewBox="0 0 24 24"><defs><filter id="ui_icon_sitdefaultmasters" x="-30%" y="-30%" width="160%" height="180%"><feGaussianBlur stdDeviation="1.05"/></filter></defs><g transform="translate(0 0)" opacity="1"><ellipse cx="12" cy="21" rx="7.6" ry="1.8" fill="#2B241C" opacity="0.13" filter="url(#ui_icon_sitdefaultmasters)"/><defs><linearGradient id="ui_icon_sitdefaultmasterg" x1="0" y1="0" x2="1" y2="1"><stop stop-color="#738F6B"/><stop offset="1" stop-color="#4D724E"/></linearGradient><linearGradient id="ui_icon_sitdefaultmasterw" x1="0" y1="0" x2="1" y2="1"><stop stop-color="#D8AA70"/><stop offset="1" stop-color="#99643B"/></linearGradient></defs><rect x="5.1" y="5" width="13.8" height="9.2" rx="4.2" fill="url(#ui_icon_sitdefaultmasterg)" stroke="#233F2D" stroke-width="1.1"/><path d="M4.3 11.2h15.4v5.5a2.2 2.2 0 0 1-2.2 2.2h-11a2.2 2.2 0 0 1-2.2-2.2z" fill="url(#ui_icon_sitdefaultmasterg)" stroke="#233F2D" stroke-width="1.1"/><path d="M7.1 18.5v2M16.9 18.5v2" stroke="url(#ui_icon_sitdefaultmasterw)" stroke-width="2.2" stroke-linecap="round"/><path d="M7.2 7.2h7.6" stroke="#FFFDF7" stroke-width="1.2" stroke-linecap="round" opacity=".42"/></g></svg><svg x="32" y="0" width="24" height="24" viewBox="0 0 24 24"><defs><filter id="ui_icon_sitpressedmasters" x="-30%" y="-30%" width="160%" height="180%"><feGaussianBlur stdDeviation="1.05"/></filter></defs><g transform="translate(0 1)" opacity="1"><ellipse cx="12" cy="21" rx="7.6" ry="1.8" fill="#2B241C" opacity="0.07" filter="url(#ui_icon_sitpressedmasters)"/><defs><linearGradient id="ui_icon_sitpressedmasterg" x1="0" y1="0" x2="1" y2="1"><stop stop-color="#738F6B"/><stop offset="1" stop-color="#4D724E"/></linearGradient><linearGradient id="ui_icon_sitpressedmasterw" x1="0" y1="0" x2="1" y2="1"><stop stop-color="#D8AA70"/><stop offset="1" stop-color="#99643B"/></linearGradient></defs><rect x="5.1" y="5" width="13.8" height="9.2" rx="4.2" fill="url(#ui_icon_sitpressedmasterg)" stroke="#233F2D" stroke-width="1.1"/><path d="M4.3 11.2h15.4v5.5a2.2 2.2 0 0 1-2.2 2.2h-11a2.2 2.2 0 0 1-2.2-2.2z" fill="url(#ui_icon_sitpressedmasterg)" stroke="#233F2D" stroke-width="1.1"/><path d="M7.1 18.5v2M16.9 18.5v2" stroke="url(#ui_icon_sitpressedmasterw)" stroke-width="2.2" stroke-linecap="round"/><path d="M7.2 7.2h7.6" stroke="#FFFDF7" stroke-width="1.2" stroke-linecap="round" opacity=".42"/></g></svg><svg x="64" y="0" width="24" height="24" viewBox="0 0 24 24"><defs><filter id="ui_icon_sitdisabledmasters" x="-30%" y="-30%" width="160%" height="180%"><feGaussianBlur stdDeviation="1.05"/></filter></defs><g transform="translate(0 0)" opacity="0.42"><ellipse cx="12" cy="21" rx="7.6" ry="1.8" fill="#2B241C" opacity="0.04" filter="url(#ui_icon_sitdisabledmasters)"/><defs><linearGradient id="ui_icon_sitdisabledmasterg" x1="0" y1="0" x2="1" y2="1"><stop stop-color="#738F6B"/><stop offset="1" stop-color="#4D724E"/></linearGradient><linearGradient id="ui_icon_sitdisabledmasterw" x1="0" y1="0" x2="1" y2="1"><stop stop-color="#D8AA70"/><stop offset="1" stop-color="#99643B"/></linearGradient></defs><rect x="5.1" y="5" width="13.8" height="9.2" rx="4.2" fill="url(#ui_icon_sitdisabledmasterg)" stroke="#233F2D" stroke-width="1.1"/><path d="M4.3 11.2h15.4v5.5a2.2 2.2 0 0 1-2.2 2.2h-11a2.2 2.2 0 0 1-2.2-2.2z" fill="url(#ui_icon_sitdisabledmasterg)" stroke="#233F2D" stroke-width="1.1"/><path d="M7.1 18.5v2M16.9 18.5v2" stroke="url(#ui_icon_sitdisabledmasterw)" stroke-width="2.2" stroke-linecap="round"/><path d="M7.2 7.2h7.6" stroke="#FFFDF7" stroke-width="1.2" stroke-linecap="round" opacity=".42"/></g></svg><svg x="96" y="0" width="24" height="24" viewBox="0 0 24 24"><defs><filter id="ui_icon_sitfocusedmasters" x="-30%" y="-30%" width="160%" height="180%"><feGaussianBlur stdDeviation="1.05"/></filter></defs><g transform="translate(0 0)" opacity="1"><ellipse cx="12" cy="21" rx="7.6" ry="1.8" fill="#2B241C" opacity="0.13" filter="url(#ui_icon_sitfocusedmasters)"/><defs><linearGradient id="ui_icon_sitfocusedmasterg" x1="0" y1="0" x2="1" y2="1"><stop stop-color="#738F6B"/><stop offset="1" stop-color="#4D724E"/></linearGradient><linearGradient id="ui_icon_sitfocusedmasterw" x1="0" y1="0" x2="1" y2="1"><stop stop-color="#D8AA70"/><stop offset="1" stop-color="#99643B"/></linearGradient></defs><rect x="5.1" y="5" width="13.8" height="9.2" rx="4.2" fill="url(#ui_icon_sitfocusedmasterg)" stroke="#233F2D" stroke-width="1.1"/><path d="M4.3 11.2h15.4v5.5a2.2 2.2 0 0 1-2.2 2.2h-11a2.2 2.2 0 0 1-2.2-2.2z" fill="url(#ui_icon_sitfocusedmasterg)" stroke="#233F2D" stroke-width="1.1"/><path d="M7.1 18.5v2M16.9 18.5v2" stroke="url(#ui_icon_sitfocusedmasterw)" stroke-width="2.2" stroke-linecap="round"/><path d="M7.2 7.2h7.6" stroke="#FFFDF7" stroke-width="1.2" stroke-linecap="round" opacity=".42"/></g></svg></svg>
