<?xml version="1.0" encoding="UTF-8"?>
<svg xmlns="http://www.w3.org/2000/svg" width="120" height="24" viewBox="0 0 120 24"><metadata>{"schema":"looper.ui.master.v1","asset_id":"ui_icon_snack","asset_version":"v001","visual_status":"Approved","states":["default","pressed","disabled","focused"],"style_lock":"Looper UI Style Lock v1.0 Approved","scalable":true,"transparent":true}</metadata><svg x="0" y="0" width="24" height="24" viewBox="0 0 24 24"><defs><filter id="ui_icon_snackdefaultmasters" x="-30%" y="-30%" width="160%" height="180%"><feGaussianBlur stdDeviation="1.05"/></filter></defs><g transform="translate(0 0)" opacity="1"><ellipse cx="12" cy="21" rx="7.6" ry="1.8" fill="#2B241C" opacity="0.13" filter="url(#ui_icon_snackdefaultmasters)"/><defs><linearGradient id="ui_icon_snackdefaultmasterc" x1="0" y1="0" x2="1" y2="1"><stop stop-color="#FFFDF7"/><stop offset="1" stop-color="#F8EEDB"/></linearGradient><linearGradient id="ui_icon_snackdefaultmastera" x1="0" y1="0" x2="1" y2="1"><stop stop-color="#F4BE55"/><stop offset="1" stop-color="#D98530"/></linearGradient></defs><ellipse cx="10.2" cy="10.3" rx="6.8" ry="3.2" fill="url(#ui_icon_snackdefaultmasterc)" stroke="#D8AA70" stroke-width="1.1"/><path d="M3.7 10.4c.6 5.6 2.6 8.3 6.5 8.3s5.9-2.7 6.5-8.3" fill="url(#ui_icon_snackdefaultmasterc)" stroke="#D8AA70" stroke-width="1.1"/><ellipse cx="10.2" cy="10.1" rx="4.8" ry="1.5" fill="#D9A45C"/><circle cx="17.6" cy="7" r="3.1" fill="url(#ui_icon_snackdefaultmastera)" stroke="#A75F2E" stroke-width="1"/><circle cx="16.8" cy="6.3" r=".55" fill="#FFF0C2"/><circle cx="18.6" cy="7.7" r=".5" fill="#FFF0C2"/><path d="M6.3 13.6h7.4" stroke="#fff" stroke-width="1.1" stroke-linecap="round" opacity=".46"/></g></svg><svg x="32" y="0" width="24" height="24" viewBox="0 0 24 24"><defs><filter id="ui_icon_snackpressedmasters" x="-30%" y="-30%" width="160%" height="180%"><feGaussianBlur stdDeviation="1.05"/></filter></defs><g transform="translate(0 1)" opacity="1"><ellipse cx="12" cy="21" rx="7.6" ry="1.8" fill="#2B241C" opacity="0.07" filter="url(#ui_icon_snackpressedmasters)"/><defs><linearGradient id="ui_icon_snackpressedmasterc" x1="0" y1="0" x2="1" y2="1"><stop stop-color="#FFFDF7"/><stop offset="1" stop-color="#F8EEDB"/></linearGradient><linearGradient id="ui_icon_snackpressedmastera" x1="0" y1="0" x2="1" y2="1"><stop stop-color="#F4BE55"/><stop offset="1" stop-color="#D98530"/></linearGradient></defs><ellipse cx="10.2" cy="10.3" rx="6.8" ry="3.2" fill="url(#ui_icon_snackpressedmasterc)" stroke="#D8AA70" stroke-width="1.1"/><path d="M3.7 10.4c.6 5.6 2.6 8.3 6.5 8.3s5.9-2.7 6.5-8.3" fill="url(#ui_icon_snackpressedmasterc)" stroke="#D8AA70" stroke-width="1.1"/><ellipse cx="10.2" cy="10.1" rx="4.8" ry="1.5" fill="#D9A45C"/><circle cx="17.6" cy="7" r="3.1" fill="url(#ui_icon_snackpressedmastera)" stroke="#A75F2E" stroke-width="1"/><circle cx="16.8" cy="6.3" r=".55" fill="#FFF0C2"/><circle cx="18.6" cy="7.7" r=".5" fill="#FFF0C2"/><path d="M6.3 13.6h7.4" stroke="#fff" stroke-width="1.1" stroke-linecap="round" opacity=".46"/></g></svg><svg x="64" y="0" width="24" height="24" viewBox="0 0 24 24"><defs><filter id="ui_icon_snackdisabledmasters" x="-30%" y="-30%" width="160%" height="180%"><feGaussianBlur stdDeviation="1.05"/></filter></defs><g transform="translate(0 0)" opacity="0.42"><ellipse cx="12" cy="21" rx="7.6" ry="1.8" fill="#2B241C" opacity="0.04" filter="url(#ui_icon_snackdisabledmasters)"/><defs><linearGradient id="ui_icon_snackdisabledmasterc" x1="0" y1="0" x2="1" y2="1"><stop stop-color="#FFFDF7"/><stop offset="1" stop-color="#F8EEDB"/></linearGradient><linearGradient id="ui_icon_snackdisabledmastera" x1="0" y1="0" x2="1" y2="1"><stop stop-color="#F4BE55"/><stop offset="1" stop-color="#D98530"/></linearGradient></defs><ellipse cx="10.2" cy="10.3" rx="6.8" ry="3.2" fill="url(#ui_icon_snackdisabledmasterc)" stroke="#D8AA70" stroke-width="1.1"/><path d="M3.7 10.4c.6 5.6 2.6 8.3 6.5 8.3s5.9-2.7 6.5-8.3" fill="url(#ui_icon_snackdisabledmasterc)" stroke="#D8AA70" stroke-width="1.1"/><ellipse cx="10.2" cy="10.1" rx="4.8" ry="1.5" fill="#D9A45C"/><circle cx="17.6" cy="7" r="3.1" fill="url(#ui_icon_snackdisabledmastera)" stroke="#A75F2E" stroke-width="1"/><circle cx="16.8" cy="6.3" r=".55" fill="#FFF0C2"/><circle cx="18.6" cy="7.7" r=".5" fill="#FFF0C2"/><path d="M6.3 13.6h7.4" stroke="#fff" stroke-width="1.1" stroke-linecap="round" opacity=".46"/></g></svg><svg x="96" y="0" width="24" height="24" viewBox="0 0 24 24"><defs><filter id="ui_icon_snackfocusedmasters" x="-30%" y="-30%" width="160%" height="180%"><feGaussianBlur stdDeviation="1.05"/></filter></defs><g transform="translate(0 0)" opacity="1"><ellipse cx="12" cy="21" rx="7.6" ry="1.8" fill="#2B241C" opacity="0.13" filter="url(#ui_icon_snackfocusedmasters)"/><defs><linearGradient id="ui_icon_snackfocusedmasterc" x1="0" y1="0" x2="1" y2="1"><stop stop-color="#FFFDF7"/><stop offset="1" stop-color="#F8EEDB"/></linearGradient><linearGradient id="ui_icon_snackfocusedmastera" x1="0" y1="0" x2="1" y2="1"><stop stop-color="#F4BE55"/><stop offset="1" stop-color="#D98530"/></linearGradient></defs><ellipse cx="10.2" cy="10.3" rx="6.8" ry="3.2" fill="url(#ui_icon_snackfocusedmasterc)" stroke="#D8AA70" stroke-width="1.1"/><path d="M3.7 10.4c.6 5.6 2.6 8.3 6.5 8.3s5.9-2.7 6.5-8.3" fill="url(#ui_icon_snackfocusedmasterc)" stroke="#D8AA70" stroke-width="1.1"/><ellipse cx="10.2" cy="10.1" rx="4.8" ry="1.5" fill="#D9A45C"/><circle cx="17.6" cy="7" r="3.1" fill="url(#ui_icon_snackfocusedmastera)" stroke="#A75F2E" stroke-width="1"/><circle cx="16.8" cy="6.3" r=".55" fill="#FFF0C2"/><circle cx="18.6" cy="7.7" r=".5" fill="#FFF0C2"/><path d="M6.3 13.6h7.4" stroke="#fff" stroke-width="1.1" stroke-linecap="round" opacity=".46"/></g></svg></svg>
