<?xml version="1.0"?><svg xmlns="http://www.w3.org/2000/svg" xmlns:xlink="http://www.w3.org/1999/xlink" width="144" height="24" viewBox="0 0 144 24"><metadata>{&quot;schema&quot;:&quot;looper.ui.master.v1&quot;,&quot;asset_id&quot;:&quot;ui_icon_vouchers&quot;,&quot;asset_version&quot;:&quot;v001&quot;,&quot;visual_status&quot;:&quot;Approved&quot;,&quot;states&quot;:[&quot;default&quot;,&quot;pressed&quot;,&quot;disabled&quot;,&quot;focused&quot;],&quot;style_lock&quot;:&quot;Looper UI Style Lock v1.0 Approved&quot;,&quot;scalable&quot;:true,&quot;transparent&quot;:true}</metadata><svg x="0" width="24" height="24" viewBox="0 0 24 24"><defs><linearGradient id="uiiconvouchersdefaultmcream" x1="0" y1="0" x2="1" y2="1"><stop stop-color="#FFFDF7"/><stop offset="1" stop-color="#F8EEDB"/></linearGradient><linearGradient id="uiiconvouchersdefaultmwood" x1="0" y1="0" x2="1" y2="1"><stop stop-color="#D8AA70"/><stop offset="1" stop-color="#99643B"/></linearGradient><linearGradient id="uiiconvouchersdefaultmgreen" x1="0" y1="0" x2="1" y2="1"><stop stop-color="#738F6B"/><stop offset="1" stop-color="#4D724E"/></linearGradient><linearGradient id="uiiconvouchersdefaultmamber" x1="0" y1="0" x2="1" y2="1"><stop stop-color="#F2C15C"/><stop offset="1" stop-color="#C77B32"/></linearGradient><filter id="uiiconvouchersdefaultmshadow" x="-20%" y="-20%" width="140%" height="160%"><feGaussianBlur stdDeviation="3"/></filter></defs><g transform="translate(0 0)" opacity="1"><ellipse cx="12" cy="20.3" rx="7.4" ry="1.5" fill="#3A2A1E" opacity=".13" filter="url(#uiiconvouchersdefaultmshadow)"/><path d="M5 7.2h13.2v3a2.1 2.1 0 0 0 0 4.2v3.2H5v-3.2a2.1 2.1 0 0 0 0-4.2z" fill="url(#uiiconvouchersdefaultmwood)" stroke="#74503B" stroke-width="1" transform="rotate(-7 12 12)"/><path d="M5.8 5.8h13.2v3a2.1 2.1 0 0 0 0 4.2v3.2H5.8V13a2.1 2.1 0 0 0 0-4.2z" fill="url(#uiiconvouchersdefaultmcream)" stroke="#B7814A" stroke-width="1"/><path d="M13.8 7.2v7.6" stroke="#C99557" stroke-width="1" stroke-dasharray="1.4 1.4"/><circle cx="9.2" cy="11" r="2.2" fill="url(#uiiconvouchersdefaultmgreen)"/><path d="M8.2 11h2" stroke="#EEF3DA" stroke-width=".8" stroke-linecap="round"/></g></svg><svg x="40" width="24" height="24" viewBox="0 0 24 24"><defs><linearGradient id="uiiconvoucherspressedmcream" x1="0" y1="0" x2="1" y2="1"><stop stop-color="#FFFDF7"/><stop offset="1" stop-color="#F8EEDB"/></linearGradient><linearGradient id="uiiconvoucherspressedmwood" x1="0" y1="0" x2="1" y2="1"><stop stop-color="#D8AA70"/><stop offset="1" stop-color="#99643B"/></linearGradient><linearGradient id="uiiconvoucherspressedmgreen" x1="0" y1="0" x2="1" y2="1"><stop stop-color="#738F6B"/><stop offset="1" stop-color="#4D724E"/></linearGradient><linearGradient id="uiiconvoucherspressedmamber" x1="0" y1="0" x2="1" y2="1"><stop stop-color="#F2C15C"/><stop offset="1" stop-color="#C77B32"/></linearGradient><filter id="uiiconvoucherspressedmshadow" x="-20%" y="-20%" width="140%" height="160%"><feGaussianBlur stdDeviation="3"/></filter></defs><g transform="translate(0 1.2)" opacity="1"><ellipse cx="12" cy="20.3" rx="7.4" ry="1.5" fill="#3A2A1E" opacity=".13" filter="url(#uiiconvoucherspressedmshadow)"/><path d="M5 7.2h13.2v3a2.1 2.1 0 0 0 0 4.2v3.2H5v-3.2a2.1 2.1 0 0 0 0-4.2z" fill="url(#uiiconvoucherspressedmwood)" stroke="#74503B" stroke-width="1" transform="rotate(-7 12 12)"/><path d="M5.8 5.8h13.2v3a2.1 2.1 0 0 0 0 4.2v3.2H5.8V13a2.1 2.1 0 0 0 0-4.2z" fill="url(#uiiconvoucherspressedmcream)" stroke="#B7814A" stroke-width="1"/><path d="M13.8 7.2v7.6" stroke="#C99557" stroke-width="1" stroke-dasharray="1.4 1.4"/><circle cx="9.2" cy="11" r="2.2" fill="url(#uiiconvoucherspressedmgreen)"/><path d="M8.2 11h2" stroke="#EEF3DA" stroke-width=".8" stroke-linecap="round"/></g></svg><svg x="80" width="24" height="24" viewBox="0 0 24 24"><defs><linearGradient id="uiiconvouchersdisabledmcream" x1="0" y1="0" x2="1" y2="1"><stop stop-color="#FFFDF7"/><stop offset="1" stop-color="#F8EEDB"/></linearGradient><linearGradient id="uiiconvouchersdisabledmwood" x1="0" y1="0" x2="1" y2="1"><stop stop-color="#D8AA70"/><stop offset="1" stop-color="#99643B"/></linearGradient><linearGradient id="uiiconvouchersdisabledmgreen" x1="0" y1="0" x2="1" y2="1"><stop stop-color="#738F6B"/><stop offset="1" stop-color="#4D724E"/></linearGradient><linearGradient id="uiiconvouchersdisabledmamber" x1="0" y1="0" x2="1" y2="1"><stop stop-color="#F2C15C"/><stop offset="1" stop-color="#C77B32"/></linearGradient><filter id="uiiconvouchersdisabledmshadow" x="-20%" y="-20%" width="140%" height="160%"><feGaussianBlur stdDeviation="3"/></filter></defs><g transform="translate(0 0)" opacity="0.42"><ellipse cx="12" cy="20.3" rx="7.4" ry="1.5" fill="#3A2A1E" opacity=".13" filter="url(#uiiconvouchersdisabledmshadow)"/><path d="M5 7.2h13.2v3a2.1 2.1 0 0 0 0 4.2v3.2H5v-3.2a2.1 2.1 0 0 0 0-4.2z" fill="url(#uiiconvouchersdisabledmwood)" stroke="#74503B" stroke-width="1" transform="rotate(-7 12 12)"/><path d="M5.8 5.8h13.2v3a2.1 2.1 0 0 0 0 4.2v3.2H5.8V13a2.1 2.1 0 0 0 0-4.2z" fill="url(#uiiconvouchersdisabledmcream)" stroke="#B7814A" stroke-width="1"/><path d="M13.8 7.2v7.6" stroke="#C99557" stroke-width="1" stroke-dasharray="1.4 1.4"/><circle cx="9.2" cy="11" r="2.2" fill="url(#uiiconvouchersdisabledmgreen)"/><path d="M8.2 11h2" stroke="#EEF3DA" stroke-width=".8" stroke-linecap="round"/></g></svg><svg x="120" width="24" height="24" viewBox="0 0 24 24"><defs><linearGradient id="uiiconvouchersfocusedmcream" x1="0" y1="0" x2="1" y2="1"><stop stop-color="#FFFDF7"/><stop offset="1" stop-color="#F8EEDB"/></linearGradient><linearGradient id="uiiconvouchersfocusedmwood" x1="0" y1="0" x2="1" y2="1"><stop stop-color="#D8AA70"/><stop offset="1" stop-color="#99643B"/></linearGradient><linearGradient id="uiiconvouchersfocusedmgreen" x1="0" y1="0" x2="1" y2="1"><stop stop-color="#738F6B"/><stop offset="1" stop-color="#4D724E"/></linearGradient><linearGradient id="uiiconvouchersfocusedmamber" x1="0" y1="0" x2="1" y2="1"><stop stop-color="#F2C15C"/><stop offset="1" stop-color="#C77B32"/></linearGradient><filter id="uiiconvouchersfocusedmshadow" x="-20%" y="-20%" width="140%" height="160%"><feGaussianBlur stdDeviation="3"/></filter></defs><g transform="translate(0 0)" opacity="1"><rect x="1.2" y="1.2" width="21.6" height="21.6" rx="7" fill="none" stroke="#E1BB62" stroke-width="1.5"/><ellipse cx="12" cy="20.3" rx="7.4" ry="1.5" fill="#3A2A1E" opacity=".13" filter="url(#uiiconvouchersfocusedmshadow)"/><path d="M5 7.2h13.2v3a2.1 2.1 0 0 0 0 4.2v3.2H5v-3.2a2.1 2.1 0 0 0 0-4.2z" fill="url(#uiiconvouchersfocusedmwood)" stroke="#74503B" stroke-width="1" transform="rotate(-7 12 12)"/><path d="M5.8 5.8h13.2v3a2.1 2.1 0 0 0 0 4.2v3.2H5.8V13a2.1 2.1 0 0 0 0-4.2z" fill="url(#uiiconvouchersfocusedmcream)" stroke="#B7814A" stroke-width="1"/><path d="M13.8 7.2v7.6" stroke="#C99557" stroke-width="1" stroke-dasharray="1.4 1.4"/><circle cx="9.2" cy="11" r="2.2" fill="url(#uiiconvouchersfocusedmgreen)"/><path d="M8.2 11h2" stroke="#EEF3DA" stroke-width=".8" stroke-linecap="round"/></g></svg></svg>