<?xml version="1.0"?><svg xmlns="http://www.w3.org/2000/svg" xmlns:xlink="http://www.w3.org/1999/xlink" width="512" height="56" viewBox="0 0 512 56"><metadata>{&quot;schema&quot;:&quot;looper.ui.master.v1&quot;,&quot;asset_id&quot;:&quot;ui_inventory_tab&quot;,&quot;asset_version&quot;:&quot;v001&quot;,&quot;visual_status&quot;:&quot;Approved&quot;,&quot;states&quot;:[&quot;default&quot;,&quot;selected&quot;,&quot;disabled&quot;],&quot;style_lock&quot;:&quot;Looper UI Style Lock v1.0 Approved&quot;,&quot;scalable&quot;:true,&quot;transparent&quot;:true}</metadata><svg x="0" width="160" height="56" viewBox="0 0 160 56"><defs><linearGradient id="uiinventorytabdefaultmcream" x1="0" y1="0" x2="1" y2="1"><stop stop-color="#FFFDF7"/><stop offset="1" stop-color="#F8EEDB"/></linearGradient><linearGradient id="uiinventorytabdefaultmwood" x1="0" y1="0" x2="1" y2="1"><stop stop-color="#D8AA70"/><stop offset="1" stop-color="#99643B"/></linearGradient><linearGradient id="uiinventorytabdefaultmgreen" x1="0" y1="0" x2="1" y2="1"><stop stop-color="#738F6B"/><stop offset="1" stop-color="#4D724E"/></linearGradient><linearGradient id="uiinventorytabdefaultmamber" x1="0" y1="0" x2="1" y2="1"><stop stop-color="#F2C15C"/><stop offset="1" stop-color="#C77B32"/></linearGradient><filter id="uiinventorytabdefaultmshadow" x="-20%" y="-20%" width="140%" height="160%"><feGaussianBlur stdDeviation="3"/></filter></defs><g opacity="1"><ellipse cx="80" cy="51" rx="55" ry="4" fill="#3A2A1E" opacity=".12" filter="url(#uiinventorytabdefaultmshadow)"/><rect x="4" y="8" width="152" height="42" rx="21" fill="#99643B"/><rect x="4" y="5" width="152" height="42" rx="21" fill="url(#uiinventorytabdefaultmcream)" stroke="#D8AA70" stroke-width="1.5"/><circle cx="28" cy="26" r="9" fill="#D9B97D"/><path d="M24 26h8M28 22v8" stroke="#8C623D" stroke-width="2" stroke-linecap="round"/><rect x="49" y="21" width="72" height="10" rx="5" fill="#D7C09A" opacity=".7"/></g></svg><svg x="176" width="160" height="56" viewBox="0 0 160 56"><defs><linearGradient id="uiinventorytabselectedmcream" x1="0" y1="0" x2="1" y2="1"><stop stop-color="#FFFDF7"/><stop offset="1" stop-color="#F8EEDB"/></linearGradient><linearGradient id="uiinventorytabselectedmwood" x1="0" y1="0" x2="1" y2="1"><stop stop-color="#D8AA70"/><stop offset="1" stop-color="#99643B"/></linearGradient><linearGradient id="uiinventorytabselectedmgreen" x1="0" y1="0" x2="1" y2="1"><stop stop-color="#738F6B"/><stop offset="1" stop-color="#4D724E"/></linearGradient><linearGradient id="uiinventorytabselectedmamber" x1="0" y1="0" x2="1" y2="1"><stop stop-color="#F2C15C"/><stop offset="1" stop-color="#C77B32"/></linearGradient><filter id="uiinventorytabselectedmshadow" x="-20%" y="-20%" width="140%" height="160%"><feGaussianBlur stdDeviation="3"/></filter></defs><g opacity="1"><ellipse cx="80" cy="51" rx="55" ry="4" fill="#3A2A1E" opacity=".12" filter="url(#uiinventorytabselectedmshadow)"/><rect x="4" y="8" width="152" height="42" rx="21" fill="#99643B"/><rect x="4" y="2" width="152" height="42" rx="21" fill="url(#uiinventorytabselectedmgreen)" stroke="#233F2D" stroke-width="1.5"/><circle cx="28" cy="23" r="9" fill="#F3E8C9"/><path d="M24 23h8M28 19v8" stroke="#233F2D" stroke-width="2" stroke-linecap="round"/><rect x="49" y="18" width="72" height="10" rx="5" fill="#E9F0D5" opacity=".7"/><circle cx="139" cy="23" r="4" fill="#F1C45E"/></g></svg><svg x="352" width="160" height="56" viewBox="0 0 160 56"><defs><linearGradient id="uiinventorytabdisabledmcream" x1="0" y1="0" x2="1" y2="1"><stop stop-color="#FFFDF7"/><stop offset="1" stop-color="#F8EEDB"/></linearGradient><linearGradient id="uiinventorytabdisabledmwood" x1="0" y1="0" x2="1" y2="1"><stop stop-color="#D8AA70"/><stop offset="1" stop-color="#99643B"/></linearGradient><linearGradient id="uiinventorytabdisabledmgreen" x1="0" y1="0" x2="1" y2="1"><stop stop-color="#738F6B"/><stop offset="1" stop-color="#4D724E"/></linearGradient><linearGradient id="uiinventorytabdisabledmamber" x1="0" y1="0" x2="1" y2="1"><stop stop-color="#F2C15C"/><stop offset="1" stop-color="#C77B32"/></linearGradient><filter id="uiinventorytabdisabledmshadow" x="-20%" y="-20%" width="140%" height="160%"><feGaussianBlur stdDeviation="3"/></filter></defs><g opacity="0.45"><ellipse cx="80" cy="51" rx="55" ry="4" fill="#3A2A1E" opacity=".12" filter="url(#uiinventorytabdisabledmshadow)"/><rect x="4" y="8" width="152" height="42" rx="21" fill="#99643B"/><rect x="4" y="5" width="152" height="42" rx="21" fill="url(#uiinventorytabdisabledmcream)" stroke="#D8AA70" stroke-width="1.5"/><circle cx="28" cy="26" r="9" fill="#D9B97D"/><path d="M24 26h8M28 22v8" stroke="#8C623D" stroke-width="2" stroke-linecap="round"/><rect x="49" y="21" width="72" height="10" rx="5" fill="#D7C09A" opacity=".7"/></g></svg></svg>