<?xml version="1.0"?><svg xmlns="http://www.w3.org/2000/svg" xmlns:xlink="http://www.w3.org/1999/xlink" width="1168" height="160" viewBox="0 0 1168 160"><metadata>{&quot;schema&quot;:&quot;looper.ui.master.v1&quot;,&quot;asset_id&quot;:&quot;ui_settlement_card&quot;,&quot;asset_version&quot;:&quot;v001&quot;,&quot;visual_status&quot;:&quot;Approved&quot;,&quot;states&quot;:[&quot;pending&quot;,&quot;settled&quot;,&quot;reversed&quot;,&quot;corrected&quot;],&quot;style_lock&quot;:&quot;Looper UI Style Lock v1.0 Approved&quot;,&quot;scalable&quot;:true,&quot;transparent&quot;:true}</metadata><svg x="0" width="280" height="160" viewBox="0 0 280 160"><defs><linearGradient id="uisettlementcardpendingmcream" x1="0" y1="0" x2="1" y2="1"><stop stop-color="#FFFDF7"/><stop offset="1" stop-color="#F8EEDB"/></linearGradient><linearGradient id="uisettlementcardpendingmwood" x1="0" y1="0" x2="1" y2="1"><stop stop-color="#D8AA70"/><stop offset="1" stop-color="#99643B"/></linearGradient><linearGradient id="uisettlementcardpendingmgreen" x1="0" y1="0" x2="1" y2="1"><stop stop-color="#738F6B"/><stop offset="1" stop-color="#4D724E"/></linearGradient><linearGradient id="uisettlementcardpendingmamber" x1="0" y1="0" x2="1" y2="1"><stop stop-color="#F2C15C"/><stop offset="1" stop-color="#C77B32"/></linearGradient><filter id="uisettlementcardpendingmshadow" x="-20%" y="-20%" width="140%" height="160%"><feGaussianBlur stdDeviation="3"/></filter></defs><g opacity="1"><ellipse cx="140" cy="151" rx="112" ry="7" fill="#3A2A1E" opacity=".12" filter="url(#uisettlementcardpendingmshadow)"/><rect x="7" y="9" width="266" height="136" rx="24" fill="#99643B"/><rect x="7" y="5" width="266" height="136" rx="24" fill="url(#uisettlementcardpendingmcream)" stroke="#D8AA70" stroke-width="1.5"/><rect x="24" y="23" width="62" height="96" rx="18" fill="#F0DFC1"/><path d="M43 52h24v28H43zM47 46h16v8" fill="none" stroke="#9B7048" stroke-width="2" stroke-linejoin="round"/><circle cx="55" cy="91" r="9" fill="url(#uisettlementcardpendingmamber)"/><path d="M51 91h8" stroke="#FFF3C5" stroke-width="2" stroke-linecap="round"/><rect x="105" y="31" width="128" height="14" rx="7" fill="#D9C09A" opacity=".55"/><rect x="105" y="58" width="92" height="10" rx="5" fill="#D9C09A" opacity=".36"/><rect x="105" y="81" width="112" height="10" rx="5" fill="#D9C09A" opacity=".36"/><rect x="105" y="108" width="75" height="13" rx="6.5" fill="#E8D2A9"/><g transform="translate(229 92)"><circle cx="12" cy="12" r="11" fill="#D99034" stroke="#7A5438" stroke-width="1.2"/><path d="M12 6v6l4 2M12 3a9 9 0 1 0 9 9" fill="none" stroke="#FFF4D2" stroke-width="2" stroke-linecap="round" stroke-linejoin="round"/></g></g></svg><svg x="296" width="280" height="160" viewBox="0 0 280 160"><defs><linearGradient id="uisettlementcardsettledmcream" x1="0" y1="0" x2="1" y2="1"><stop stop-color="#FFFDF7"/><stop offset="1" stop-color="#F8EEDB"/></linearGradient><linearGradient id="uisettlementcardsettledmwood" x1="0" y1="0" x2="1" y2="1"><stop stop-color="#D8AA70"/><stop offset="1" stop-color="#99643B"/></linearGradient><linearGradient id="uisettlementcardsettledmgreen" x1="0" y1="0" x2="1" y2="1"><stop stop-color="#738F6B"/><stop offset="1" stop-color="#4D724E"/></linearGradient><linearGradient id="uisettlementcardsettledmamber" x1="0" y1="0" x2="1" y2="1"><stop stop-color="#F2C15C"/><stop offset="1" stop-color="#C77B32"/></linearGradient><filter id="uisettlementcardsettledmshadow" x="-20%" y="-20%" width="140%" height="160%"><feGaussianBlur stdDeviation="3"/></filter></defs><g opacity="1"><ellipse cx="140" cy="151" rx="112" ry="7" fill="#3A2A1E" opacity=".12" filter="url(#uisettlementcardsettledmshadow)"/><rect x="7" y="9" width="266" height="136" rx="24" fill="#99643B"/><rect x="7" y="5" width="266" height="136" rx="24" fill="url(#uisettlementcardsettledmcream)" stroke="#D8AA70" stroke-width="1.5"/><rect x="24" y="23" width="62" height="96" rx="18" fill="#F0DFC1"/><path d="M43 52h24v28H43zM47 46h16v8" fill="none" stroke="#9B7048" stroke-width="2" stroke-linejoin="round"/><circle cx="55" cy="91" r="9" fill="url(#uisettlementcardsettledmamber)"/><path d="M51 91h8" stroke="#FFF3C5" stroke-width="2" stroke-linecap="round"/><rect x="105" y="31" width="128" height="14" rx="7" fill="#D9C09A" opacity=".55"/><rect x="105" y="58" width="92" height="10" rx="5" fill="#D9C09A" opacity=".36"/><rect x="105" y="81" width="112" height="10" rx="5" fill="#D9C09A" opacity=".36"/><rect x="105" y="108" width="75" height="13" rx="6.5" fill="#E8D2A9"/><g transform="translate(229 92)"><circle cx="12" cy="12" r="11" fill="#628257" stroke="#7A5438" stroke-width="1.2"/><path d="m6 12 4 4 8-9" fill="none" stroke="#FFF4D2" stroke-width="2" stroke-linecap="round" stroke-linejoin="round"/></g></g></svg><svg x="592" width="280" height="160" viewBox="0 0 280 160"><defs><linearGradient id="uisettlementcardreversedmcream" x1="0" y1="0" x2="1" y2="1"><stop stop-color="#FFFDF7"/><stop offset="1" stop-color="#F8EEDB"/></linearGradient><linearGradient id="uisettlementcardreversedmwood" x1="0" y1="0" x2="1" y2="1"><stop stop-color="#D8AA70"/><stop offset="1" stop-color="#99643B"/></linearGradient><linearGradient id="uisettlementcardreversedmgreen" x1="0" y1="0" x2="1" y2="1"><stop stop-color="#738F6B"/><stop offset="1" stop-color="#4D724E"/></linearGradient><linearGradient id="uisettlementcardreversedmamber" x1="0" y1="0" x2="1" y2="1"><stop stop-color="#F2C15C"/><stop offset="1" stop-color="#C77B32"/></linearGradient><filter id="uisettlementcardreversedmshadow" x="-20%" y="-20%" width="140%" height="160%"><feGaussianBlur stdDeviation="3"/></filter></defs><g opacity="1"><ellipse cx="140" cy="151" rx="112" ry="7" fill="#3A2A1E" opacity=".12" filter="url(#uisettlementcardreversedmshadow)"/><rect x="7" y="9" width="266" height="136" rx="24" fill="#99643B"/><rect x="7" y="5" width="266" height="136" rx="24" fill="url(#uisettlementcardreversedmcream)" stroke="#D8AA70" stroke-width="1.5"/><rect x="24" y="23" width="62" height="96" rx="18" fill="#F0DFC1"/><path d="M43 52h24v28H43zM47 46h16v8" fill="none" stroke="#9B7048" stroke-width="2" stroke-linejoin="round"/><circle cx="55" cy="91" r="9" fill="url(#uisettlementcardreversedmamber)"/><path d="M51 91h8" stroke="#FFF3C5" stroke-width="2" stroke-linecap="round"/><rect x="105" y="31" width="128" height="14" rx="7" fill="#D9C09A" opacity=".55"/><rect x="105" y="58" width="92" height="10" rx="5" fill="#D9C09A" opacity=".36"/><rect x="105" y="81" width="112" height="10" rx="5" fill="#D9C09A" opacity=".36"/><rect x="105" y="108" width="75" height="13" rx="6.5" fill="#E8D2A9"/><g transform="translate(229 92)"><circle cx="12" cy="12" r="11" fill="#A55B46" stroke="#7A5438" stroke-width="1.2"/><path d="M8 7H4v-4m0 4a8 8 0 1 1-1 8" fill="none" stroke="#FFF4D2" stroke-width="2" stroke-linecap="round" stroke-linejoin="round"/></g></g></svg><svg x="888" width="280" height="160" viewBox="0 0 280 160"><defs><linearGradient id="uisettlementcardcorrectedmcream" x1="0" y1="0" x2="1" y2="1"><stop stop-color="#FFFDF7"/><stop offset="1" stop-color="#F8EEDB"/></linearGradient><linearGradient id="uisettlementcardcorrectedmwood" x1="0" y1="0" x2="1" y2="1"><stop stop-color="#D8AA70"/><stop offset="1" stop-color="#99643B"/></linearGradient><linearGradient id="uisettlementcardcorrectedmgreen" x1="0" y1="0" x2="1" y2="1"><stop stop-color="#738F6B"/><stop offset="1" stop-color="#4D724E"/></linearGradient><linearGradient id="uisettlementcardcorrectedmamber" x1="0" y1="0" x2="1" y2="1"><stop stop-color="#F2C15C"/><stop offset="1" stop-color="#C77B32"/></linearGradient><filter id="uisettlementcardcorrectedmshadow" x="-20%" y="-20%" width="140%" height="160%"><feGaussianBlur stdDeviation="3"/></filter></defs><g opacity="1"><ellipse cx="140" cy="151" rx="112" ry="7" fill="#3A2A1E" opacity=".12" filter="url(#uisettlementcardcorrectedmshadow)"/><rect x="7" y="9" width="266" height="136" rx="24" fill="#99643B"/><rect x="7" y="5" width="266" height="136" rx="24" fill="url(#uisettlementcardcorrectedmcream)" stroke="#D8AA70" stroke-width="1.5"/><rect x="24" y="23" width="62" height="96" rx="18" fill="#F0DFC1"/><path d="M43 52h24v28H43zM47 46h16v8" fill="none" stroke="#9B7048" stroke-width="2" stroke-linejoin="round"/><circle cx="55" cy="91" r="9" fill="url(#uisettlementcardcorrectedmamber)"/><path d="M51 91h8" stroke="#FFF3C5" stroke-width="2" stroke-linecap="round"/><rect x="105" y="31" width="128" height="14" rx="7" fill="#D9C09A" opacity=".55"/><rect x="105" y="58" width="92" height="10" rx="5" fill="#D9C09A" opacity=".36"/><rect x="105" y="81" width="112" height="10" rx="5" fill="#D9C09A" opacity=".36"/><rect x="105" y="108" width="75" height="13" rx="6.5" fill="#E8D2A9"/><g transform="translate(229 92)"><circle cx="12" cy="12" r="11" fill="#80607E" stroke="#7A5438" stroke-width="1.2"/><path d="m6 16 1-4 8-8 3 3-8 8z" fill="none" stroke="#FFF4D2" stroke-width="2" stroke-linecap="round" stroke-linejoin="round"/></g></g></svg></svg>