<?xml version="1.0"?><svg xmlns="http://www.w3.org/2000/svg" xmlns:xlink="http://www.w3.org/1999/xlink" width="576" height="160" viewBox="0 0 576 160"><metadata>{&quot;schema&quot;:&quot;looper.ui.master.v1&quot;,&quot;asset_id&quot;:&quot;ui_skeleton&quot;,&quot;asset_version&quot;:&quot;v001&quot;,&quot;visual_status&quot;:&quot;Approved&quot;,&quot;states&quot;:[&quot;static&quot;,&quot;reduced_motion&quot;],&quot;style_lock&quot;:&quot;Looper UI Style Lock v1.0 Approved&quot;,&quot;scalable&quot;:true,&quot;transparent&quot;:true}</metadata><svg x="0" width="280" height="160" viewBox="0 0 280 160"><defs><linearGradient id="uiskeletonstaticmcream" x1="0" y1="0" x2="1" y2="1"><stop stop-color="#FFFDF7"/><stop offset="1" stop-color="#F8EEDB"/></linearGradient><linearGradient id="uiskeletonstaticmwood" x1="0" y1="0" x2="1" y2="1"><stop stop-color="#D8AA70"/><stop offset="1" stop-color="#99643B"/></linearGradient><linearGradient id="uiskeletonstaticmgreen" x1="0" y1="0" x2="1" y2="1"><stop stop-color="#738F6B"/><stop offset="1" stop-color="#4D724E"/></linearGradient><linearGradient id="uiskeletonstaticmamber" x1="0" y1="0" x2="1" y2="1"><stop stop-color="#F2C15C"/><stop offset="1" stop-color="#C77B32"/></linearGradient><filter id="uiskeletonstaticmshadow" x="-20%" y="-20%" width="140%" height="160%"><feGaussianBlur stdDeviation="3"/></filter></defs><g><rect x="7" y="7" width="266" height="140" rx="24" fill="url(#uiskeletonstaticmcream)" stroke="#D8C4A5" stroke-width="1.2"/><rect x="23" y="24" width="86" height="102" rx="18" fill="#E7D7BD"/><circle cx="66" cy="60" r="20" fill="#D7C19E" opacity=".7"/><path d="M39 110c8-20 18-29 27-29 11 0 22 10 31 29" fill="#D7C19E" opacity=".7"/><rect x="130" y="30" width="112" height="14" rx="7" fill="#D8C09A" opacity=".72"/><rect x="130" y="59" width="86" height="11" rx="5.5" fill="#D8C09A" opacity=".52"/><rect x="130" y="84" width="101" height="11" rx="5.5" fill="#D8C09A" opacity=".52"/><rect x="130" y="111" width="64" height="16" rx="8" fill="#CCB184" opacity=".58"/><path d="M24 18h220" stroke="#FFF8E8" stroke-width="4" opacity=".35"/></g></svg><svg x="296" width="280" height="160" viewBox="0 0 280 160"><defs><linearGradient id="uiskeletonreducedmotionmcream" x1="0" y1="0" x2="1" y2="1"><stop stop-color="#FFFDF7"/><stop offset="1" stop-color="#F8EEDB"/></linearGradient><linearGradient id="uiskeletonreducedmotionmwood" x1="0" y1="0" x2="1" y2="1"><stop stop-color="#D8AA70"/><stop offset="1" stop-color="#99643B"/></linearGradient><linearGradient id="uiskeletonreducedmotionmgreen" x1="0" y1="0" x2="1" y2="1"><stop stop-color="#738F6B"/><stop offset="1" stop-color="#4D724E"/></linearGradient><linearGradient id="uiskeletonreducedmotionmamber" x1="0" y1="0" x2="1" y2="1"><stop stop-color="#F2C15C"/><stop offset="1" stop-color="#C77B32"/></linearGradient><filter id="uiskeletonreducedmotionmshadow" x="-20%" y="-20%" width="140%" height="160%"><feGaussianBlur stdDeviation="3"/></filter></defs><g><rect x="7" y="7" width="266" height="140" rx="24" fill="url(#uiskeletonreducedmotionmcream)" stroke="#D8C4A5" stroke-width="1.2"/><rect x="23" y="24" width="86" height="102" rx="18" fill="#E7D7BD"/><circle cx="66" cy="60" r="20" fill="#D7C19E" opacity=".7"/><path d="M39 110c8-20 18-29 27-29 11 0 22 10 31 29" fill="#D7C19E" opacity=".7"/><rect x="130" y="30" width="112" height="14" rx="7" fill="#D8C09A" opacity=".72"/><rect x="130" y="59" width="86" height="11" rx="5.5" fill="#D8C09A" opacity=".52"/><rect x="130" y="84" width="101" height="11" rx="5.5" fill="#D8C09A" opacity=".52"/><rect x="130" y="111" width="64" height="16" rx="8" fill="#CCB184" opacity=".58"/></g></svg></svg>