<?xml version="1.0" encoding="UTF-8"?>
<svg xmlns="http://www.w3.org/2000/svg" xmlns:xlink="http://www.w3.org/1999/xlink" width="340" height="110" viewBox="0 0 340 110"><metadata>{&quot;schema&quot;:&quot;looper.ui.asset.v1&quot;,&quot;asset_id&quot;:&quot;ui_weekly_progress&quot;,&quot;asset_version&quot;:&quot;v001&quot;,&quot;visual_status&quot;:&quot;Approved&quot;,&quot;state&quot;:&quot;reset&quot;,&quot;states&quot;:[&quot;empty&quot;,&quot;partial&quot;,&quot;complete&quot;,&quot;settled&quot;,&quot;reset&quot;],&quot;style_lock&quot;:&quot;Looper UI Style Lock v1.0 Approved&quot;,&quot;scalable&quot;:true,&quot;transparent&quot;:true,&quot;baked_text&quot;:false,&quot;live_slots&quot;:true}</metadata><defs><linearGradient id="uiweeklyprogressresetcream" x1="0" y1="0" x2="1" y2="1"><stop stop-color="#FFFDF7"/><stop offset="1" stop-color="#F8EEDB"/></linearGradient><linearGradient id="uiweeklyprogressresetwood" x1="0" y1="0" x2="1" y2="1"><stop stop-color="#D8AA70"/><stop offset="1" stop-color="#99643B"/></linearGradient><linearGradient id="uiweeklyprogressresetgreen" x1="0" y1="0" x2="1" y2="1"><stop stop-color="#738F6B"/><stop offset="1" stop-color="#4D724E"/></linearGradient><linearGradient id="uiweeklyprogressresetamber" x1="0" y1="0" x2="1" y2="1"><stop stop-color="#F2C15C"/><stop offset="1" stop-color="#C77B32"/></linearGradient><filter id="uiweeklyprogressresetshadow" x="-20%" y="-20%" width="140%" height="160%"><feGaussianBlur stdDeviation="3"/></filter></defs><g><ellipse cx="170" cy="101" rx="130" ry="5" fill="#3A2A1E" opacity=".11" filter="url(#uiweeklyprogressresetshadow)"/><rect x="7" y="10" width="326" height="84" rx="30" fill="#99643B"/><rect x="7" y="5" width="326" height="84" rx="30" fill="url(#uiweeklyprogressresetcream)" stroke="#D8AA70" stroke-width="1.5"/><path d="M48 49h244" stroke="#D8C5A4" stroke-width="8" stroke-linecap="round"/><circle cx="48" cy="49" r="14" fill="#E8D9BE" stroke="#CDB693" stroke-width="1.2"/><circle cx="88.6" cy="49" r="14" fill="#E8D9BE" stroke="#CDB693" stroke-width="1.2"/><circle cx="129.2" cy="49" r="14" fill="#E8D9BE" stroke="#CDB693" stroke-width="1.2"/><circle cx="169.8" cy="49" r="14" fill="#E8D9BE" stroke="#CDB693" stroke-width="1.2"/><circle cx="210.4" cy="49" r="14" fill="#E8D9BE" stroke="#CDB693" stroke-width="1.2"/><circle cx="251" cy="49" r="14" fill="#E8D9BE" stroke="#CDB693" stroke-width="1.2"/><circle cx="291.6" cy="49" r="14" fill="#E8D9BE" stroke="#CDB693" stroke-width="1.2"/><path d="M303 25a13 13 0 1 1-5 23m5-23v10h-10" fill="none" stroke="#A56C3C" stroke-width="2" stroke-linecap="round" stroke-linejoin="round"/></g></svg>
