<?xml version="1.0" encoding="UTF-8"?>
<svg xmlns="http://www.w3.org/2000/svg" xmlns:xlink="http://www.w3.org/1999/xlink" width="340" height="110" viewBox="0 0 340 110"><metadata>{&quot;schema&quot;:&quot;looper.ui.asset.v1&quot;,&quot;asset_id&quot;:&quot;ui_weekly_progress&quot;,&quot;asset_version&quot;:&quot;v001&quot;,&quot;visual_status&quot;:&quot;Approved&quot;,&quot;state&quot;:&quot;settled&quot;,&quot;states&quot;:[&quot;empty&quot;,&quot;partial&quot;,&quot;complete&quot;,&quot;settled&quot;,&quot;reset&quot;],&quot;style_lock&quot;:&quot;Looper UI Style Lock v1.0 Approved&quot;,&quot;scalable&quot;:true,&quot;transparent&quot;:true,&quot;baked_text&quot;:false,&quot;live_slots&quot;:true}</metadata><defs><linearGradient id="uiweeklyprogresssettledcream" x1="0" y1="0" x2="1" y2="1"><stop stop-color="#FFFDF7"/><stop offset="1" stop-color="#F8EEDB"/></linearGradient><linearGradient id="uiweeklyprogresssettledwood" x1="0" y1="0" x2="1" y2="1"><stop stop-color="#D8AA70"/><stop offset="1" stop-color="#99643B"/></linearGradient><linearGradient id="uiweeklyprogresssettledgreen" x1="0" y1="0" x2="1" y2="1"><stop stop-color="#738F6B"/><stop offset="1" stop-color="#4D724E"/></linearGradient><linearGradient id="uiweeklyprogresssettledamber" x1="0" y1="0" x2="1" y2="1"><stop stop-color="#F2C15C"/><stop offset="1" stop-color="#C77B32"/></linearGradient><filter id="uiweeklyprogresssettledshadow" x="-20%" y="-20%" width="140%" height="160%"><feGaussianBlur stdDeviation="3"/></filter></defs><g><ellipse cx="170" cy="101" rx="130" ry="5" fill="#3A2A1E" opacity=".11" filter="url(#uiweeklyprogresssettledshadow)"/><rect x="7" y="10" width="326" height="84" rx="30" fill="#99643B"/><rect x="7" y="5" width="326" height="84" rx="30" fill="url(#uiweeklyprogresssettledcream)" stroke="#D5A947" stroke-width="2.5"/><path d="M48 49h244" stroke="#D8C5A4" stroke-width="8" stroke-linecap="round"/><circle cx="48" cy="49" r="14" fill="url(#uiweeklyprogresssettledgreen)" stroke="#233F2D" stroke-width="1.2"/><path d="m43 49 4 4 7-8" fill="none" stroke="#F4F5DC" stroke-width="2" stroke-linecap="round" stroke-linejoin="round"/><circle cx="88.6" cy="49" r="14" fill="url(#uiweeklyprogresssettledgreen)" stroke="#233F2D" stroke-width="1.2"/><path d="m83.6 49 4 4 7-8" fill="none" stroke="#F4F5DC" stroke-width="2" stroke-linecap="round" stroke-linejoin="round"/><circle cx="129.2" cy="49" r="14" fill="url(#uiweeklyprogresssettledgreen)" stroke="#233F2D" stroke-width="1.2"/><path d="m124.19999999999999 49 4 4 7-8" fill="none" stroke="#F4F5DC" stroke-width="2" stroke-linecap="round" stroke-linejoin="round"/><circle cx="169.8" cy="49" r="14" fill="url(#uiweeklyprogresssettledgreen)" stroke="#233F2D" stroke-width="1.2"/><path d="m164.8 49 4 4 7-8" fill="none" stroke="#F4F5DC" stroke-width="2" stroke-linecap="round" stroke-linejoin="round"/><circle cx="210.4" cy="49" r="14" fill="url(#uiweeklyprogresssettledgreen)" stroke="#233F2D" stroke-width="1.2"/><path d="m205.4 49 4 4 7-8" fill="none" stroke="#F4F5DC" stroke-width="2" stroke-linecap="round" stroke-linejoin="round"/><circle cx="251" cy="49" r="14" fill="url(#uiweeklyprogresssettledgreen)" stroke="#233F2D" stroke-width="1.2"/><path d="m246 49 4 4 7-8" fill="none" stroke="#F4F5DC" stroke-width="2" stroke-linecap="round" stroke-linejoin="round"/><circle cx="291.6" cy="49" r="14" fill="url(#uiweeklyprogresssettledgreen)" stroke="#233F2D" stroke-width="1.2"/><path d="m286.6 49 4 4 7-8" fill="none" stroke="#F4F5DC" stroke-width="2" stroke-linecap="round" stroke-linejoin="round"/></g></svg>
