<?xml version="1.0" encoding="UTF-8"?>
<svg xmlns="http://www.w3.org/2000/svg" width="24" height="24" viewBox="0 0 24 24"><metadata>{"schema":"looper.ui.asset.v1","asset_id":"ui_icon_nav_settings","asset_version":"v001","visual_status":"Approved","state":"disabled","states":["default","pressed","disabled","focused"],"style_lock":"Looper UI Style Lock v1.0 Approved","visual_grid":"24px","baked_text":false,"hit_target_external":true}</metadata><defs><filter id="ui_icon_nav_settingsdisableds" x="-30%" y="-30%" width="160%" height="180%"><feGaussianBlur stdDeviation="1.05"/></filter></defs><g transform="translate(0 0)" opacity="0.42"><ellipse cx="12" cy="21" rx="7.6" ry="1.8" fill="#2B241C" opacity="0.04" filter="url(#ui_icon_nav_settingsdisableds)"/><defs><linearGradient id="ui_icon_nav_settingsdisabledg" x1="0" y1="0" x2="1" y2="1"><stop stop-color="#738F6B"/><stop offset="1" stop-color="#4D724E"/></linearGradient><linearGradient id="ui_icon_nav_settingsdisableda" x1="0" y1="0" x2="1" y2="1"><stop stop-color="#F2C15C"/><stop offset="1" stop-color="#B8792F"/></linearGradient></defs><path d="M10 3.5h4l.6 2.1 1.8.8 2-.9 2 3.4-1.6 1.5.2 2.1 1.7 1.3-2 3.5-2.2-.6-1.7 1.2-.4 2.2h-4l-.6-2.1-1.8-.8-2 .9-2-3.4 1.6-1.5-.2-2.1-1.7-1.3 2-3.5 2.2.6 1.7-1.2z" fill="url(#ui_icon_nav_settingsdisabledg)" stroke="#233F2D" stroke-width=".8" stroke-linejoin="round"/><circle cx="12" cy="12" r="3.6" fill="url(#ui_icon_nav_settingsdisableda)" stroke="#91602D" stroke-width=".8"/><circle cx="12" cy="12" r="1.4" fill="#FFF1C5"/></g></svg>
