<?xml version="1.0" encoding="UTF-8"?>
<svg xmlns="http://www.w3.org/2000/svg" width="120" height="24" viewBox="0 0 120 24"><metadata>{"schema":"looper.ui.master.v1","asset_id":"ui_icon_error","asset_version":"v001","visual_status":"Approved","states":["default","pressed","disabled","focused"],"style_lock":"Looper UI Style Lock v1.0 Approved","scalable":true,"transparent":true}</metadata><svg x="0" y="0" width="24" height="24" viewBox="0 0 24 24"><defs><linearGradient id="ui_icon_errordefaultmasterg" x1="0" y1="0" x2="1" y2="1"><stop stop-color="#F17A5D"/><stop offset="1" stop-color="#C64E39"/></linearGradient><filter id="ui_icon_errordefaultmasters" x="-30%" y="-30%" width="160%" height="180%"><feGaussianBlur stdDeviation="1.1"/></filter></defs><g transform="translate(0 0)" opacity="1"><ellipse cx="12" cy="21" rx="7.5" ry="1.8" fill="#2B241C" opacity="0.13" filter="url(#ui_icon_errordefaultmasters)"/><path d="M8 2.3h8l5.7 5.7v8L16 21.7H8L2.3 16V8z" fill="url(#ui_icon_errordefaultmasterg)" stroke="#C64E39" stroke-width="1.1" stroke-linejoin="round"/><path d="M6.4 6.2A7 7 0 0 1 14.5 4" fill="none" stroke="#FFFDF7" stroke-width="1.3" stroke-linecap="round" opacity=".34"/><path d="M8.2 8.2l7.6 7.6M15.8 8.2l-7.6 7.6" fill="none" stroke="#FFFDF7" stroke-width="2.8" stroke-linecap="round"/></g></svg><svg x="32" y="0" width="24" height="24" viewBox="0 0 24 24"><defs><linearGradient id="ui_icon_errorpressedmasterg" x1="0" y1="0" x2="1" y2="1"><stop stop-color="#F17A5D"/><stop offset="1" stop-color="#C64E39"/></linearGradient><filter id="ui_icon_errorpressedmasters" x="-30%" y="-30%" width="160%" height="180%"><feGaussianBlur stdDeviation="1.1"/></filter></defs><g transform="translate(0 1)" opacity="1"><ellipse cx="12" cy="21" rx="7.5" ry="1.8" fill="#2B241C" opacity="0.07" filter="url(#ui_icon_errorpressedmasters)"/><path d="M8 2.3h8l5.7 5.7v8L16 21.7H8L2.3 16V8z" fill="url(#ui_icon_errorpressedmasterg)" stroke="#C64E39" stroke-width="1.1" stroke-linejoin="round"/><path d="M6.4 6.2A7 7 0 0 1 14.5 4" fill="none" stroke="#FFFDF7" stroke-width="1.3" stroke-linecap="round" opacity=".34"/><path d="M8.2 8.2l7.6 7.6M15.8 8.2l-7.6 7.6" fill="none" stroke="#FFFDF7" stroke-width="2.8" stroke-linecap="round"/></g></svg><svg x="64" y="0" width="24" height="24" viewBox="0 0 24 24"><defs><linearGradient id="ui_icon_errordisabledmasterg" x1="0" y1="0" x2="1" y2="1"><stop stop-color="#F17A5D"/><stop offset="1" stop-color="#C64E39"/></linearGradient><filter id="ui_icon_errordisabledmasters" x="-30%" y="-30%" width="160%" height="180%"><feGaussianBlur stdDeviation="1.1"/></filter></defs><g transform="translate(0 0)" opacity="0.42"><ellipse cx="12" cy="21" rx="7.5" ry="1.8" fill="#2B241C" opacity="0.04" filter="url(#ui_icon_errordisabledmasters)"/><path d="M8 2.3h8l5.7 5.7v8L16 21.7H8L2.3 16V8z" fill="url(#ui_icon_errordisabledmasterg)" stroke="#C64E39" stroke-width="1.1" stroke-linejoin="round"/><path d="M6.4 6.2A7 7 0 0 1 14.5 4" fill="none" stroke="#FFFDF7" stroke-width="1.3" stroke-linecap="round" opacity=".34"/><path d="M8.2 8.2l7.6 7.6M15.8 8.2l-7.6 7.6" fill="none" stroke="#FFFDF7" stroke-width="2.8" stroke-linecap="round"/></g></svg><svg x="96" y="0" width="24" height="24" viewBox="0 0 24 24"><defs><linearGradient id="ui_icon_errorfocusedmasterg" x1="0" y1="0" x2="1" y2="1"><stop stop-color="#F17A5D"/><stop offset="1" stop-color="#C64E39"/></linearGradient><filter id="ui_icon_errorfocusedmasters" x="-30%" y="-30%" width="160%" height="180%"><feGaussianBlur stdDeviation="1.1"/></filter></defs><g transform="translate(0 0)" opacity="1"><ellipse cx="12" cy="21" rx="7.5" ry="1.8" fill="#2B241C" opacity="0.13" filter="url(#ui_icon_errorfocusedmasters)"/><path d="M8 2.3h8l5.7 5.7v8L16 21.7H8L2.3 16V8z" fill="url(#ui_icon_errorfocusedmasterg)" stroke="#C64E39" stroke-width="1.1" stroke-linejoin="round"/><path d="M6.4 6.2A7 7 0 0 1 14.5 4" fill="none" stroke="#FFFDF7" stroke-width="1.3" stroke-linecap="round" opacity=".34"/><path d="M8.2 8.2l7.6 7.6M15.8 8.2l-7.6 7.6" fill="none" stroke="#FFFDF7" stroke-width="2.8" stroke-linecap="round"/></g></svg></svg>
