<?xml version="1.0" encoding="UTF-8"?>
<svg xmlns="http://www.w3.org/2000/svg" width="120" height="24" viewBox="0 0 120 24"><metadata>{"schema":"looper.ui.master.v1","asset_id":"ui_icon_info","asset_version":"v001","visual_status":"Approved","states":["default","pressed","disabled","focused"],"style_lock":"Looper UI Style Lock v1.0 Approved","scalable":true,"transparent":true}</metadata><svg x="0" y="0" width="24" height="24" viewBox="0 0 24 24"><defs><linearGradient id="ui_icon_infodefaultmasterg" x1="0" y1="0" x2="1" y2="1"><stop stop-color="#738F6B"/><stop offset="1" stop-color="#4D724E"/></linearGradient><filter id="ui_icon_infodefaultmasters" x="-30%" y="-30%" width="160%" height="180%"><feGaussianBlur stdDeviation="1.1"/></filter></defs><g transform="translate(0 0)" opacity="1"><ellipse cx="12" cy="21" rx="7" ry="1.8" fill="#2B241C" opacity="0.13" filter="url(#ui_icon_infodefaultmasters)"/><circle cx="12" cy="11.5" r="9" fill="url(#ui_icon_infodefaultmasterg)" stroke="#233F2D" stroke-width="1.1"/><path d="M7 6.5a7.4 7.4 0 0 1 8-1.5" fill="none" stroke="#FFFDF7" stroke-width="1.4" stroke-linecap="round" opacity=".32"/><circle cx="12" cy="7.8" r="1.35" fill="#FFFDF7"/><rect x="10.6" y="10.4" width="2.8" height="7" rx="1.4" fill="#FFFDF7"/></g></svg><svg x="32" y="0" width="24" height="24" viewBox="0 0 24 24"><defs><linearGradient id="ui_icon_infopressedmasterg" x1="0" y1="0" x2="1" y2="1"><stop stop-color="#738F6B"/><stop offset="1" stop-color="#4D724E"/></linearGradient><filter id="ui_icon_infopressedmasters" x="-30%" y="-30%" width="160%" height="180%"><feGaussianBlur stdDeviation="1.1"/></filter></defs><g transform="translate(0 1)" opacity="1"><ellipse cx="12" cy="21" rx="7" ry="1.8" fill="#2B241C" opacity="0.07" filter="url(#ui_icon_infopressedmasters)"/><circle cx="12" cy="11.5" r="9" fill="url(#ui_icon_infopressedmasterg)" stroke="#233F2D" stroke-width="1.1"/><path d="M7 6.5a7.4 7.4 0 0 1 8-1.5" fill="none" stroke="#FFFDF7" stroke-width="1.4" stroke-linecap="round" opacity=".32"/><circle cx="12" cy="7.8" r="1.35" fill="#FFFDF7"/><rect x="10.6" y="10.4" width="2.8" height="7" rx="1.4" fill="#FFFDF7"/></g></svg><svg x="64" y="0" width="24" height="24" viewBox="0 0 24 24"><defs><linearGradient id="ui_icon_infodisabledmasterg" x1="0" y1="0" x2="1" y2="1"><stop stop-color="#738F6B"/><stop offset="1" stop-color="#4D724E"/></linearGradient><filter id="ui_icon_infodisabledmasters" x="-30%" y="-30%" width="160%" height="180%"><feGaussianBlur stdDeviation="1.1"/></filter></defs><g transform="translate(0 0)" opacity="0.42"><ellipse cx="12" cy="21" rx="7" ry="1.8" fill="#2B241C" opacity="0.04" filter="url(#ui_icon_infodisabledmasters)"/><circle cx="12" cy="11.5" r="9" fill="url(#ui_icon_infodisabledmasterg)" stroke="#233F2D" stroke-width="1.1"/><path d="M7 6.5a7.4 7.4 0 0 1 8-1.5" fill="none" stroke="#FFFDF7" stroke-width="1.4" stroke-linecap="round" opacity=".32"/><circle cx="12" cy="7.8" r="1.35" fill="#FFFDF7"/><rect x="10.6" y="10.4" width="2.8" height="7" rx="1.4" fill="#FFFDF7"/></g></svg><svg x="96" y="0" width="24" height="24" viewBox="0 0 24 24"><defs><linearGradient id="ui_icon_infofocusedmasterg" x1="0" y1="0" x2="1" y2="1"><stop stop-color="#738F6B"/><stop offset="1" stop-color="#4D724E"/></linearGradient><filter id="ui_icon_infofocusedmasters" x="-30%" y="-30%" width="160%" height="180%"><feGaussianBlur stdDeviation="1.1"/></filter></defs><g transform="translate(0 0)" opacity="1"><ellipse cx="12" cy="21" rx="7" ry="1.8" fill="#2B241C" opacity="0.13" filter="url(#ui_icon_infofocusedmasters)"/><circle cx="12" cy="11.5" r="9" fill="url(#ui_icon_infofocusedmasterg)" stroke="#233F2D" stroke-width="1.1"/><path d="M7 6.5a7.4 7.4 0 0 1 8-1.5" fill="none" stroke="#FFFDF7" stroke-width="1.4" stroke-linecap="round" opacity=".32"/><circle cx="12" cy="7.8" r="1.35" fill="#FFFDF7"/><rect x="10.6" y="10.4" width="2.8" height="7" rx="1.4" fill="#FFFDF7"/></g></svg></svg>
