<?xml version="1.0" encoding="UTF-8"?>
<svg xmlns="http://www.w3.org/2000/svg" xmlns:xlink="http://www.w3.org/1999/xlink" width="360" height="76" viewBox="0 0 360 76" role="status" data-asset-id="ui_toast" data-state="error" data-version="v002"><title>ui_toast error v002</title><desc>Short lightweight cream Looper toast with sturdy semantic medallion. Message remains live UI.</desc><metadata>{&quot;asset_id&quot;:&quot;ui_toast&quot;,&quot;asset_version&quot;:&quot;v002&quot;,&quot;visual_status&quot;:&quot;Approved&quot;,&quot;state&quot;:&quot;error&quot;,&quot;states&quot;:[&quot;info&quot;,&quot;success&quot;,&quot;warning&quot;,&quot;error&quot;],&quot;live_text_required&quot;:true,&quot;text_and_values_baked&quot;:false,&quot;default_locale&quot;:&quot;zh-Hant&quot;,&quot;semantic_role&quot;:&quot;status&quot;,&quot;announcement_priority&quot;:&quot;assertive_if_blocking&quot;}</metadata><defs>
  <linearGradient id="ui_toasterror-cream" x1="0" y1="0" x2="1" y2="1"><stop stop-color="#FFFDF7"/><stop offset="1" stop-color="#F8EEDB"/></linearGradient>
  <linearGradient id="ui_toasterror-sand" x1="0" y1="0" x2="1" y2="1"><stop stop-color="#FFF4DD"/><stop offset="1" stop-color="#EFD5A6"/></linearGradient>
  <linearGradient id="ui_toasterror-green" x1="0" y1="0" x2="1" y2="1"><stop stop-color="#738F6B"/><stop offset="1" stop-color="#4D724E"/></linearGradient>
  <linearGradient id="ui_toasterror-amber" x1="0" y1="0" x2="1" y2="1"><stop stop-color="#FFB743"/><stop offset="1" stop-color="#E87A19"/></linearGradient>
  <linearGradient id="ui_toasterror-violet" x1="0" y1="0" x2="1" y2="1"><stop stop-color="#A779B0"/><stop offset="1" stop-color="#6C4C78"/></linearGradient>
  <linearGradient id="ui_toasterror-coral" x1="0" y1="0" x2="1" y2="1"><stop stop-color="#F17A5D"/><stop offset="1" stop-color="#C64E39"/></linearGradient>
  <linearGradient id="ui_toasterror-wood" x1="0" y1="0" x2="0" y2="1"><stop stop-color="#D8AA70"/><stop offset="1" stop-color="#99643B"/></linearGradient>
  <pattern id="ui_toasterror-grain" width="22" height="22" patternUnits="userSpaceOnUse"><circle cx="5" cy="6" r="1" fill="#fff" opacity=".16"/><path d="M2 17q7-4 15 0" fill="none" stroke="#4C3323" opacity=".09"/></pattern>
  <filter id="ui_toasterror-shadow" x="-25%" y="-45%" width="150%" height="210%"><feGaussianBlur stdDeviation="3.2"/></filter>
</defs><rect x="15" y="18" width="330" height="51" rx="23" fill="#2A2219" opacity=".13" filter="url(#ui_toasterror-shadow)"/><rect x="8" y="13" width="344" height="56" rx="24" fill="#B6844C"/><rect x="8" y="7" width="344" height="56" rx="24" fill="url(#ui_toasterror-cream)" stroke="#D4AD72" stroke-width="1.5"/><circle cx="42" cy="35" r="20" fill="#C64E39" stroke="#E1C18A" stroke-width="2"/><g transform="translate(42 35)" fill="none" stroke="#FFFDF7" stroke-width="4.5" stroke-linecap="round" stroke-linejoin="round"><path d="M-9-9l18 18M9-9L-9 9"/></g><rect data-live-message-slot="true" x="74" y="17" width="262" height="36" fill="none"/></svg>