<?xml version="1.0" encoding="UTF-8"?>
<svg xmlns="http://www.w3.org/2000/svg" width="120" height="24" viewBox="0 0 120 24"><metadata>{"schema":"looper.ui.master.v1","asset_id":"ui_icon_coupon","asset_version":"v001","visual_status":"Approved","states":["default","pressed","disabled","focused"],"style_lock":"Looper UI Style Lock v1.0 Approved","scalable":true,"transparent":true}</metadata><svg x="0" y="0" width="24" height="24" viewBox="0 0 24 24"><defs><filter id="ui_icon_coupondefaultmasters" x="-30%" y="-30%" width="160%" height="180%"><feGaussianBlur stdDeviation="1.05"/></filter></defs><g transform="translate(0 0)" opacity="1"><ellipse cx="12" cy="21" rx="7.6" ry="1.8" fill="#2B241C" opacity="0.13" filter="url(#ui_icon_coupondefaultmasters)"/><defs><linearGradient id="ui_icon_coupondefaultmasterc" x1="0" y1="0" x2="1" y2="1"><stop stop-color="#FFFDF7"/><stop offset="1" stop-color="#EFD5A6"/></linearGradient><linearGradient id="ui_icon_coupondefaultmastera" x1="0" y1="0" x2="1" y2="1"><stop stop-color="#F2B84F"/><stop offset="1" stop-color="#D17831"/></linearGradient></defs><path d="M4.2 6.2h15.6v3a2.6 2.6 0 0 0 0 5.2v3.4H4.2v-3.4a2.6 2.6 0 0 0 0-5.2z" fill="url(#ui_icon_coupondefaultmasterc)" stroke="#D8AA70" stroke-width="1.1" stroke-linejoin="round"/><path d="M13.8 7.5v9" stroke="#C58B48" stroke-width="1.2" stroke-dasharray="1.7 1.7"/><rect x="6.2" y="9" width="5.1" height="5.8" rx="1.4" fill="url(#ui_icon_coupondefaultmastera)"/><path d="M5.8 7.7h6.1" stroke="#fff" stroke-width="1" stroke-linecap="round" opacity=".55"/></g></svg><svg x="32" y="0" width="24" height="24" viewBox="0 0 24 24"><defs><filter id="ui_icon_couponpressedmasters" x="-30%" y="-30%" width="160%" height="180%"><feGaussianBlur stdDeviation="1.05"/></filter></defs><g transform="translate(0 1)" opacity="1"><ellipse cx="12" cy="21" rx="7.6" ry="1.8" fill="#2B241C" opacity="0.07" filter="url(#ui_icon_couponpressedmasters)"/><defs><linearGradient id="ui_icon_couponpressedmasterc" x1="0" y1="0" x2="1" y2="1"><stop stop-color="#FFFDF7"/><stop offset="1" stop-color="#EFD5A6"/></linearGradient><linearGradient id="ui_icon_couponpressedmastera" x1="0" y1="0" x2="1" y2="1"><stop stop-color="#F2B84F"/><stop offset="1" stop-color="#D17831"/></linearGradient></defs><path d="M4.2 6.2h15.6v3a2.6 2.6 0 0 0 0 5.2v3.4H4.2v-3.4a2.6 2.6 0 0 0 0-5.2z" fill="url(#ui_icon_couponpressedmasterc)" stroke="#D8AA70" stroke-width="1.1" stroke-linejoin="round"/><path d="M13.8 7.5v9" stroke="#C58B48" stroke-width="1.2" stroke-dasharray="1.7 1.7"/><rect x="6.2" y="9" width="5.1" height="5.8" rx="1.4" fill="url(#ui_icon_couponpressedmastera)"/><path d="M5.8 7.7h6.1" stroke="#fff" stroke-width="1" stroke-linecap="round" opacity=".55"/></g></svg><svg x="64" y="0" width="24" height="24" viewBox="0 0 24 24"><defs><filter id="ui_icon_coupondisabledmasters" x="-30%" y="-30%" width="160%" height="180%"><feGaussianBlur stdDeviation="1.05"/></filter></defs><g transform="translate(0 0)" opacity="0.42"><ellipse cx="12" cy="21" rx="7.6" ry="1.8" fill="#2B241C" opacity="0.04" filter="url(#ui_icon_coupondisabledmasters)"/><defs><linearGradient id="ui_icon_coupondisabledmasterc" x1="0" y1="0" x2="1" y2="1"><stop stop-color="#FFFDF7"/><stop offset="1" stop-color="#EFD5A6"/></linearGradient><linearGradient id="ui_icon_coupondisabledmastera" x1="0" y1="0" x2="1" y2="1"><stop stop-color="#F2B84F"/><stop offset="1" stop-color="#D17831"/></linearGradient></defs><path d="M4.2 6.2h15.6v3a2.6 2.6 0 0 0 0 5.2v3.4H4.2v-3.4a2.6 2.6 0 0 0 0-5.2z" fill="url(#ui_icon_coupondisabledmasterc)" stroke="#D8AA70" stroke-width="1.1" stroke-linejoin="round"/><path d="M13.8 7.5v9" stroke="#C58B48" stroke-width="1.2" stroke-dasharray="1.7 1.7"/><rect x="6.2" y="9" width="5.1" height="5.8" rx="1.4" fill="url(#ui_icon_coupondisabledmastera)"/><path d="M5.8 7.7h6.1" stroke="#fff" stroke-width="1" stroke-linecap="round" opacity=".55"/></g></svg><svg x="96" y="0" width="24" height="24" viewBox="0 0 24 24"><defs><filter id="ui_icon_couponfocusedmasters" x="-30%" y="-30%" width="160%" height="180%"><feGaussianBlur stdDeviation="1.05"/></filter></defs><g transform="translate(0 0)" opacity="1"><ellipse cx="12" cy="21" rx="7.6" ry="1.8" fill="#2B241C" opacity="0.13" filter="url(#ui_icon_couponfocusedmasters)"/><defs><linearGradient id="ui_icon_couponfocusedmasterc" x1="0" y1="0" x2="1" y2="1"><stop stop-color="#FFFDF7"/><stop offset="1" stop-color="#EFD5A6"/></linearGradient><linearGradient id="ui_icon_couponfocusedmastera" x1="0" y1="0" x2="1" y2="1"><stop stop-color="#F2B84F"/><stop offset="1" stop-color="#D17831"/></linearGradient></defs><path d="M4.2 6.2h15.6v3a2.6 2.6 0 0 0 0 5.2v3.4H4.2v-3.4a2.6 2.6 0 0 0 0-5.2z" fill="url(#ui_icon_couponfocusedmasterc)" stroke="#D8AA70" stroke-width="1.1" stroke-linejoin="round"/><path d="M13.8 7.5v9" stroke="#C58B48" stroke-width="1.2" stroke-dasharray="1.7 1.7"/><rect x="6.2" y="9" width="5.1" height="5.8" rx="1.4" fill="url(#ui_icon_couponfocusedmastera)"/><path d="M5.8 7.7h6.1" stroke="#fff" stroke-width="1" stroke-linecap="round" opacity=".55"/></g></svg></svg>
