<?xml version="1.0" encoding="UTF-8"?>
<svg xmlns="http://www.w3.org/2000/svg" width="120" height="24" viewBox="0 0 120 24"><metadata>{"schema":"looper.ui.master.v1","asset_id":"ui_icon_check","asset_version":"v001","visual_status":"Approved","states":["default","pressed","disabled","focused"],"style_lock":"Looper UI Style Lock v1.0 Approved","scalable":true,"transparent":true}</metadata><svg x="0" y="0" width="24" height="24" viewBox="0 0 24 24"><defs><filter id="ui_icon_checkdefaultmasters" x="-30%" y="-30%" width="160%" height="180%"><feGaussianBlur stdDeviation="1.05"/></filter></defs><g transform="translate(0 0)" opacity="1"><ellipse cx="12" cy="21" rx="7.6" ry="1.8" fill="#2B241C" opacity="0.13" filter="url(#ui_icon_checkdefaultmasters)"/><defs><linearGradient id="ui_icon_checkdefaultmasterg" x1="0" y1="0" x2="1" y2="1"><stop stop-color="#89A67D"/><stop offset="1" stop-color="#4D724E"/></linearGradient></defs><path d="m4.6 12.5 4.6 4.6L19.6 6.8" fill="none" stroke="#233F2D" stroke-width="5" stroke-linecap="round" stroke-linejoin="round" opacity=".32" transform="translate(0 .8)"/><path d="m4.6 12.5 4.6 4.6L19.6 6.8" fill="none" stroke="url(#ui_icon_checkdefaultmasterg)" stroke-width="4" stroke-linecap="round" stroke-linejoin="round"/><path d="m6.1 11.9 3.2 3.2 8.2-8.2" fill="none" stroke="#DCE9C9" stroke-width="1" stroke-linecap="round" opacity=".65"/></g></svg><svg x="32" y="0" width="24" height="24" viewBox="0 0 24 24"><defs><filter id="ui_icon_checkpressedmasters" x="-30%" y="-30%" width="160%" height="180%"><feGaussianBlur stdDeviation="1.05"/></filter></defs><g transform="translate(0 1)" opacity="1"><ellipse cx="12" cy="21" rx="7.6" ry="1.8" fill="#2B241C" opacity="0.07" filter="url(#ui_icon_checkpressedmasters)"/><defs><linearGradient id="ui_icon_checkpressedmasterg" x1="0" y1="0" x2="1" y2="1"><stop stop-color="#89A67D"/><stop offset="1" stop-color="#4D724E"/></linearGradient></defs><path d="m4.6 12.5 4.6 4.6L19.6 6.8" fill="none" stroke="#233F2D" stroke-width="5" stroke-linecap="round" stroke-linejoin="round" opacity=".32" transform="translate(0 .8)"/><path d="m4.6 12.5 4.6 4.6L19.6 6.8" fill="none" stroke="url(#ui_icon_checkpressedmasterg)" stroke-width="4" stroke-linecap="round" stroke-linejoin="round"/><path d="m6.1 11.9 3.2 3.2 8.2-8.2" fill="none" stroke="#DCE9C9" stroke-width="1" stroke-linecap="round" opacity=".65"/></g></svg><svg x="64" y="0" width="24" height="24" viewBox="0 0 24 24"><defs><filter id="ui_icon_checkdisabledmasters" x="-30%" y="-30%" width="160%" height="180%"><feGaussianBlur stdDeviation="1.05"/></filter></defs><g transform="translate(0 0)" opacity="0.42"><ellipse cx="12" cy="21" rx="7.6" ry="1.8" fill="#2B241C" opacity="0.04" filter="url(#ui_icon_checkdisabledmasters)"/><defs><linearGradient id="ui_icon_checkdisabledmasterg" x1="0" y1="0" x2="1" y2="1"><stop stop-color="#89A67D"/><stop offset="1" stop-color="#4D724E"/></linearGradient></defs><path d="m4.6 12.5 4.6 4.6L19.6 6.8" fill="none" stroke="#233F2D" stroke-width="5" stroke-linecap="round" stroke-linejoin="round" opacity=".32" transform="translate(0 .8)"/><path d="m4.6 12.5 4.6 4.6L19.6 6.8" fill="none" stroke="url(#ui_icon_checkdisabledmasterg)" stroke-width="4" stroke-linecap="round" stroke-linejoin="round"/><path d="m6.1 11.9 3.2 3.2 8.2-8.2" fill="none" stroke="#DCE9C9" stroke-width="1" stroke-linecap="round" opacity=".65"/></g></svg><svg x="96" y="0" width="24" height="24" viewBox="0 0 24 24"><defs><filter id="ui_icon_checkfocusedmasters" x="-30%" y="-30%" width="160%" height="180%"><feGaussianBlur stdDeviation="1.05"/></filter></defs><g transform="translate(0 0)" opacity="1"><ellipse cx="12" cy="21" rx="7.6" ry="1.8" fill="#2B241C" opacity="0.13" filter="url(#ui_icon_checkfocusedmasters)"/><defs><linearGradient id="ui_icon_checkfocusedmasterg" x1="0" y1="0" x2="1" y2="1"><stop stop-color="#89A67D"/><stop offset="1" stop-color="#4D724E"/></linearGradient></defs><path d="m4.6 12.5 4.6 4.6L19.6 6.8" fill="none" stroke="#233F2D" stroke-width="5" stroke-linecap="round" stroke-linejoin="round" opacity=".32" transform="translate(0 .8)"/><path d="m4.6 12.5 4.6 4.6L19.6 6.8" fill="none" stroke="url(#ui_icon_checkfocusedmasterg)" stroke-width="4" stroke-linecap="round" stroke-linejoin="round"/><path d="m6.1 11.9 3.2 3.2 8.2-8.2" fill="none" stroke="#DCE9C9" stroke-width="1" stroke-linecap="round" opacity=".65"/></g></svg></svg>
