<?xml version="1.0" encoding="UTF-8"?>
<svg xmlns="http://www.w3.org/2000/svg" xmlns:xlink="http://www.w3.org/1999/xlink" width="300" height="160" viewBox="0 0 300 160"><metadata>{&quot;schema&quot;:&quot;looper.ui.asset.v1&quot;,&quot;asset_id&quot;:&quot;ui_speech_bubble_right&quot;,&quot;asset_version&quot;:&quot;v001&quot;,&quot;visual_status&quot;:&quot;Approved&quot;,&quot;state&quot;:&quot;default&quot;,&quot;states&quot;:[&quot;default&quot;,&quot;large_text&quot;],&quot;style_lock&quot;:&quot;Looper UI Style Lock v1.0 Approved&quot;,&quot;scalable&quot;:true,&quot;transparent&quot;:true,&quot;baked_text&quot;:false,&quot;live_slots&quot;:true}</metadata><defs><linearGradient id="uispeechbubblerightdefaultcream" x1="0" y1="0" x2="1" y2="1"><stop stop-color="#FFFDF7"/><stop offset="1" stop-color="#F8EEDB"/></linearGradient><linearGradient id="uispeechbubblerightdefaultwood" x1="0" y1="0" x2="1" y2="1"><stop stop-color="#D8AA70"/><stop offset="1" stop-color="#99643B"/></linearGradient><linearGradient id="uispeechbubblerightdefaultgreen" x1="0" y1="0" x2="1" y2="1"><stop stop-color="#738F6B"/><stop offset="1" stop-color="#4D724E"/></linearGradient><linearGradient id="uispeechbubblerightdefaultamber" x1="0" y1="0" x2="1" y2="1"><stop stop-color="#F2C15C"/><stop offset="1" stop-color="#C77B32"/></linearGradient><filter id="uispeechbubblerightdefaultshadow" x="-20%" y="-20%" width="140%" height="160%"><feGaussianBlur stdDeviation="3"/></filter></defs><g><ellipse cx="150" cy="152" rx="112" ry="6" fill="#3A2A1E" opacity=".11" filter="url(#uispeechbubblerightdefaultshadow)"/><rect x="10" y="24" width="280" height="108" rx="28" fill="#99643B"/><rect x="10" y="18" width="280" height="108" rx="28" fill="url(#uispeechbubblerightdefaultcream)" stroke="#D8AA70" stroke-width="1.5"/><path d="M246 124l24 20-5-28" fill="url(#uispeechbubblerightdefaultcream)" stroke="#D8AA70" stroke-width="1.4" stroke-linejoin="round"/><circle cx="258" cy="52" r="15" fill="url(#uispeechbubblerightdefaultamber)" stroke="#76503A" stroke-width="1"/><circle cx="258" cy="48" r="4" fill="#FFF2D2"/><path d="M250 61q8-8 16 0" fill="#FFF2D2"/><rect x="32" y="46" width="142" height="13" rx="6.5" fill="#D8C09A" opacity=".56"/><rect x="58" y="73" width="166" height="10" rx="5" fill="#D8C09A" opacity=".38"/><rect x="78" y="97" width="130" height="10" rx="5" fill="#D8C09A" opacity=".38"/></g></svg>
