<?xml version="1.0"?><svg xmlns="http://www.w3.org/2000/svg" xmlns:xlink="http://www.w3.org/1999/xlink" width="616" height="120" viewBox="0 0 616 120"><metadata>{&quot;schema&quot;:&quot;looper.ui.master.v1&quot;,&quot;asset_id&quot;:&quot;ui_speech_bubble_system&quot;,&quot;asset_version&quot;:&quot;v001&quot;,&quot;visual_status&quot;:&quot;Approved&quot;,&quot;states&quot;:[&quot;default&quot;,&quot;warning&quot;],&quot;style_lock&quot;:&quot;Looper UI Style Lock v1.0 Approved&quot;,&quot;scalable&quot;:true,&quot;transparent&quot;:true}</metadata><svg x="0" width="300" height="120" viewBox="0 0 300 120"><defs><linearGradient id="uispeechbubblesystemdefaultmcream" x1="0" y1="0" x2="1" y2="1"><stop stop-color="#FFFDF7"/><stop offset="1" stop-color="#F8EEDB"/></linearGradient><linearGradient id="uispeechbubblesystemdefaultmwood" x1="0" y1="0" x2="1" y2="1"><stop stop-color="#D8AA70"/><stop offset="1" stop-color="#99643B"/></linearGradient><linearGradient id="uispeechbubblesystemdefaultmgreen" x1="0" y1="0" x2="1" y2="1"><stop stop-color="#738F6B"/><stop offset="1" stop-color="#4D724E"/></linearGradient><linearGradient id="uispeechbubblesystemdefaultmamber" x1="0" y1="0" x2="1" y2="1"><stop stop-color="#F2C15C"/><stop offset="1" stop-color="#C77B32"/></linearGradient><filter id="uispeechbubblesystemdefaultmshadow" x="-20%" y="-20%" width="140%" height="160%"><feGaussianBlur stdDeviation="3"/></filter></defs><g><ellipse cx="150" cy="111" rx="108" ry="5" fill="#3A2A1E" opacity=".1" filter="url(#uispeechbubblesystemdefaultmshadow)"/><rect x="9" y="11" width="282" height="96" rx="27" fill="#99643B"/><rect x="9" y="6" width="282" height="96" rx="27" fill="url(#uispeechbubblesystemdefaultmcream)" stroke="#D8AA70" stroke-width="1.5"/><circle cx="43" cy="54" r="18" fill="url(#uispeechbubblesystemdefaultmgreen)" stroke="#76503A" stroke-width="1"/><path d="M43 43v2m0 7v16" stroke="#FFF3CF" stroke-width="3" stroke-linecap="round"/><rect x="78" y="32" width="154" height="13" rx="6.5" fill="#D8C09A" opacity=".55"/><rect x="78" y="59" width="183" height="10" rx="5" fill="#D8C09A" opacity=".38"/></g></svg><svg x="316" width="300" height="120" viewBox="0 0 300 120"><defs><linearGradient id="uispeechbubblesystemwarningmcream" x1="0" y1="0" x2="1" y2="1"><stop stop-color="#FFFDF7"/><stop offset="1" stop-color="#F8EEDB"/></linearGradient><linearGradient id="uispeechbubblesystemwarningmwood" x1="0" y1="0" x2="1" y2="1"><stop stop-color="#D8AA70"/><stop offset="1" stop-color="#99643B"/></linearGradient><linearGradient id="uispeechbubblesystemwarningmgreen" x1="0" y1="0" x2="1" y2="1"><stop stop-color="#738F6B"/><stop offset="1" stop-color="#4D724E"/></linearGradient><linearGradient id="uispeechbubblesystemwarningmamber" x1="0" y1="0" x2="1" y2="1"><stop stop-color="#F2C15C"/><stop offset="1" stop-color="#C77B32"/></linearGradient><filter id="uispeechbubblesystemwarningmshadow" x="-20%" y="-20%" width="140%" height="160%"><feGaussianBlur stdDeviation="3"/></filter></defs><g><ellipse cx="150" cy="111" rx="108" ry="5" fill="#3A2A1E" opacity=".1" filter="url(#uispeechbubblesystemwarningmshadow)"/><rect x="9" y="11" width="282" height="96" rx="27" fill="#99643B"/><rect x="9" y="6" width="282" height="96" rx="27" fill="url(#uispeechbubblesystemwarningmcream)" stroke="#D89436" stroke-width="2.5"/><circle cx="43" cy="54" r="18" fill="url(#uispeechbubblesystemwarningmamber)" stroke="#76503A" stroke-width="1"/><path d="M43 42v15m0 9v1" stroke="#FFF3CF" stroke-width="3" stroke-linecap="round"/><rect x="78" y="32" width="154" height="13" rx="6.5" fill="#D8C09A" opacity=".55"/><rect x="78" y="59" width="183" height="10" rx="5" fill="#D8C09A" opacity=".38"/></g></svg></svg>