<?xml version="1.0"?><svg xmlns="http://www.w3.org/2000/svg" xmlns:xlink="http://www.w3.org/1999/xlink" width="2336" height="180" viewBox="0 0 2336 180"><metadata>{&quot;schema&quot;:&quot;looper.ui.master.v1&quot;,&quot;asset_id&quot;:&quot;ui_task_card&quot;,&quot;asset_version&quot;:&quot;v001&quot;,&quot;visual_status&quot;:&quot;Approved&quot;,&quot;states&quot;:[&quot;loading&quot;,&quot;available&quot;,&quot;in_progress&quot;,&quot;completed&quot;,&quot;claimed&quot;,&quot;unavailable&quot;,&quot;expired&quot;],&quot;style_lock&quot;:&quot;Looper UI Style Lock v1.0 Approved&quot;,&quot;scalable&quot;:true,&quot;transparent&quot;:true}</metadata><svg x="0" width="320" height="180" viewBox="0 0 320 180"><defs><linearGradient id="uitaskcardloadingmcream" x1="0" y1="0" x2="1" y2="1"><stop stop-color="#FFFDF7"/><stop offset="1" stop-color="#F8EEDB"/></linearGradient><linearGradient id="uitaskcardloadingmwood" x1="0" y1="0" x2="1" y2="1"><stop stop-color="#D8AA70"/><stop offset="1" stop-color="#99643B"/></linearGradient><linearGradient id="uitaskcardloadingmgreen" x1="0" y1="0" x2="1" y2="1"><stop stop-color="#738F6B"/><stop offset="1" stop-color="#4D724E"/></linearGradient><linearGradient id="uitaskcardloadingmamber" x1="0" y1="0" x2="1" y2="1"><stop stop-color="#F2C15C"/><stop offset="1" stop-color="#C77B32"/></linearGradient><filter id="uitaskcardloadingmshadow" x="-20%" y="-20%" width="140%" height="160%"><feGaussianBlur stdDeviation="3"/></filter></defs><g opacity="1"><ellipse cx="160" cy="171" rx="128" ry="7" fill="#3A2A1E" opacity=".12" filter="url(#uitaskcardloadingmshadow)"/><rect x="8" y="10" width="304" height="154" rx="26" fill="#99643B"/><rect x="8" y="5" width="304" height="154" rx="26" fill="url(#uitaskcardloadingmcream)" stroke="#D8AA70" stroke-width="1.5"/><rect x="24" y="23" width="72" height="104" rx="20" fill="#F0DFC1"/><path d="M47 48h26v34H47zM52 41h16v8" fill="none" stroke="#956A43" stroke-width="2"/><circle cx="60" cy="96" r="10" fill="url(#uitaskcardloadingmamber)"/><path d="M55 96h10" fill="none" stroke="#FFF3CC" stroke-width="2" stroke-linecap="round" stroke-linejoin="round"/><rect x="118" y="29" width="134" height="14" rx="7" fill="#D8C09A" opacity="0.35"/><rect x="118" y="57" width="103" height="10" rx="5" fill="#D8C09A" opacity=".4"/><rect x="118" y="82" width="124" height="10" rx="5" fill="#D8C09A" opacity=".4"/><rect x="118" y="117" width="154" height="16" rx="8" fill="#E4D1AE"/><rect x="118" y="117" width="0" height="16" rx="8" fill="url(#uitaskcardloadingmgreen)"/><g transform="translate(272 18)"><circle cx="12" cy="12" r="11" fill="#BFA270" stroke="#76503A"/><path d="M7 12h10M12 7v10" fill="none" stroke="#FFF3D3" stroke-width="2" stroke-linecap="round" stroke-linejoin="round"/></g></g></svg><svg x="336" width="320" height="180" viewBox="0 0 320 180"><defs><linearGradient id="uitaskcardavailablemcream" x1="0" y1="0" x2="1" y2="1"><stop stop-color="#FFFDF7"/><stop offset="1" stop-color="#F8EEDB"/></linearGradient><linearGradient id="uitaskcardavailablemwood" x1="0" y1="0" x2="1" y2="1"><stop stop-color="#D8AA70"/><stop offset="1" stop-color="#99643B"/></linearGradient><linearGradient id="uitaskcardavailablemgreen" x1="0" y1="0" x2="1" y2="1"><stop stop-color="#738F6B"/><stop offset="1" stop-color="#4D724E"/></linearGradient><linearGradient id="uitaskcardavailablemamber" x1="0" y1="0" x2="1" y2="1"><stop stop-color="#F2C15C"/><stop offset="1" stop-color="#C77B32"/></linearGradient><filter id="uitaskcardavailablemshadow" x="-20%" y="-20%" width="140%" height="160%"><feGaussianBlur stdDeviation="3"/></filter></defs><g opacity="1"><ellipse cx="160" cy="171" rx="128" ry="7" fill="#3A2A1E" opacity=".12" filter="url(#uitaskcardavailablemshadow)"/><rect x="8" y="10" width="304" height="154" rx="26" fill="#99643B"/><rect x="8" y="5" width="304" height="154" rx="26" fill="url(#uitaskcardavailablemcream)" stroke="#D8AA70" stroke-width="1.5"/><rect x="24" y="23" width="72" height="104" rx="20" fill="#F0DFC1"/><path d="M47 48h26v34H47zM52 41h16v8" fill="none" stroke="#956A43" stroke-width="2"/><circle cx="60" cy="96" r="10" fill="url(#uitaskcardavailablemamber)"/><path d="M55 96h10" fill="none" stroke="#FFF3CC" stroke-width="2" stroke-linecap="round" stroke-linejoin="round"/><rect x="118" y="29" width="134" height="14" rx="7" fill="#D8C09A" opacity="0.58"/><rect x="118" y="57" width="103" height="10" rx="5" fill="#D8C09A" opacity=".4"/><rect x="118" y="82" width="124" height="10" rx="5" fill="#D8C09A" opacity=".4"/><rect x="118" y="117" width="154" height="16" rx="8" fill="#E4D1AE"/><rect x="118" y="117" width="20" height="16" rx="8" fill="url(#uitaskcardavailablemgreen)"/><g transform="translate(272 18)"><circle cx="12" cy="12" r="11" fill="#D99034" stroke="#76503A"/><path d="M8 12h8M12 8v8" fill="none" stroke="#FFF3D3" stroke-width="2" stroke-linecap="round" stroke-linejoin="round"/></g></g></svg><svg x="672" width="320" height="180" viewBox="0 0 320 180"><defs><linearGradient id="uitaskcardinprogressmcream" x1="0" y1="0" x2="1" y2="1"><stop stop-color="#FFFDF7"/><stop offset="1" stop-color="#F8EEDB"/></linearGradient><linearGradient id="uitaskcardinprogressmwood" x1="0" y1="0" x2="1" y2="1"><stop stop-color="#D8AA70"/><stop offset="1" stop-color="#99643B"/></linearGradient><linearGradient id="uitaskcardinprogressmgreen" x1="0" y1="0" x2="1" y2="1"><stop stop-color="#738F6B"/><stop offset="1" stop-color="#4D724E"/></linearGradient><linearGradient id="uitaskcardinprogressmamber" x1="0" y1="0" x2="1" y2="1"><stop stop-color="#F2C15C"/><stop offset="1" stop-color="#C77B32"/></linearGradient><filter id="uitaskcardinprogressmshadow" x="-20%" y="-20%" width="140%" height="160%"><feGaussianBlur stdDeviation="3"/></filter></defs><g opacity="1"><ellipse cx="160" cy="171" rx="128" ry="7" fill="#3A2A1E" opacity=".12" filter="url(#uitaskcardinprogressmshadow)"/><rect x="8" y="10" width="304" height="154" rx="26" fill="#99643B"/><rect x="8" y="5" width="304" height="154" rx="26" fill="url(#uitaskcardinprogressmcream)" stroke="#D8AA70" stroke-width="1.5"/><rect x="24" y="23" width="72" height="104" rx="20" fill="#F0DFC1"/><path d="M47 48h26v34H47zM52 41h16v8" fill="none" stroke="#956A43" stroke-width="2"/><circle cx="60" cy="96" r="10" fill="url(#uitaskcardinprogressmamber)"/><path d="M55 96h10" fill="none" stroke="#FFF3CC" stroke-width="2" stroke-linecap="round" stroke-linejoin="round"/><rect x="118" y="29" width="134" height="14" rx="7" fill="#D8C09A" opacity="0.58"/><rect x="118" y="57" width="103" height="10" rx="5" fill="#D8C09A" opacity=".4"/><rect x="118" y="82" width="124" height="10" rx="5" fill="#D8C09A" opacity=".4"/><rect x="118" y="117" width="154" height="16" rx="8" fill="#E4D1AE"/><rect x="118" y="117" width="88" height="16" rx="8" fill="url(#uitaskcardinprogressmgreen)"/><g transform="translate(272 18)"><circle cx="12" cy="12" r="11" fill="#628257" stroke="#76503A"/><path d="M6 13l4 3 8-9" fill="none" stroke="#FFF3D3" stroke-width="2" stroke-linecap="round" stroke-linejoin="round"/></g></g></svg><svg x="1008" width="320" height="180" viewBox="0 0 320 180"><defs><linearGradient id="uitaskcardcompletedmcream" x1="0" y1="0" x2="1" y2="1"><stop stop-color="#FFFDF7"/><stop offset="1" stop-color="#F8EEDB"/></linearGradient><linearGradient id="uitaskcardcompletedmwood" x1="0" y1="0" x2="1" y2="1"><stop stop-color="#D8AA70"/><stop offset="1" stop-color="#99643B"/></linearGradient><linearGradient id="uitaskcardcompletedmgreen" x1="0" y1="0" x2="1" y2="1"><stop stop-color="#738F6B"/><stop offset="1" stop-color="#4D724E"/></linearGradient><linearGradient id="uitaskcardcompletedmamber" x1="0" y1="0" x2="1" y2="1"><stop stop-color="#F2C15C"/><stop offset="1" stop-color="#C77B32"/></linearGradient><filter id="uitaskcardcompletedmshadow" x="-20%" y="-20%" width="140%" height="160%"><feGaussianBlur stdDeviation="3"/></filter></defs><g opacity="1"><ellipse cx="160" cy="171" rx="128" ry="7" fill="#3A2A1E" opacity=".12" filter="url(#uitaskcardcompletedmshadow)"/><rect x="8" y="10" width="304" height="154" rx="26" fill="#99643B"/><rect x="8" y="5" width="304" height="154" rx="26" fill="url(#uitaskcardcompletedmcream)" stroke="#D5A947" stroke-width="2.5"/><rect x="24" y="23" width="72" height="104" rx="20" fill="#F0DFC1"/><path d="M47 48h26v34H47zM52 41h16v8" fill="none" stroke="#956A43" stroke-width="2"/><circle cx="60" cy="96" r="10" fill="url(#uitaskcardcompletedmgreen)"/><path d="m55 96 4 4 7-8" fill="none" stroke="#FFF3CC" stroke-width="2" stroke-linecap="round" stroke-linejoin="round"/><rect x="118" y="29" width="134" height="14" rx="7" fill="#D8C09A" opacity="0.58"/><rect x="118" y="57" width="103" height="10" rx="5" fill="#D8C09A" opacity=".4"/><rect x="118" y="82" width="124" height="10" rx="5" fill="#D8C09A" opacity=".4"/><rect x="118" y="117" width="154" height="16" rx="8" fill="#E4D1AE"/><rect x="118" y="117" width="154" height="16" rx="8" fill="url(#uitaskcardcompletedmgreen)"/><g transform="translate(272 18)"><circle cx="12" cy="12" r="11" fill="#628257" stroke="#76503A"/><path d="M6 12l4 4 8-9" fill="none" stroke="#FFF3D3" stroke-width="2" stroke-linecap="round" stroke-linejoin="round"/></g></g></svg><svg x="1344" width="320" height="180" viewBox="0 0 320 180"><defs><linearGradient id="uitaskcardclaimedmcream" x1="0" y1="0" x2="1" y2="1"><stop stop-color="#FFFDF7"/><stop offset="1" stop-color="#F8EEDB"/></linearGradient><linearGradient id="uitaskcardclaimedmwood" x1="0" y1="0" x2="1" y2="1"><stop stop-color="#D8AA70"/><stop offset="1" stop-color="#99643B"/></linearGradient><linearGradient id="uitaskcardclaimedmgreen" x1="0" y1="0" x2="1" y2="1"><stop stop-color="#738F6B"/><stop offset="1" stop-color="#4D724E"/></linearGradient><linearGradient id="uitaskcardclaimedmamber" x1="0" y1="0" x2="1" y2="1"><stop stop-color="#F2C15C"/><stop offset="1" stop-color="#C77B32"/></linearGradient><filter id="uitaskcardclaimedmshadow" x="-20%" y="-20%" width="140%" height="160%"><feGaussianBlur stdDeviation="3"/></filter></defs><g opacity="1"><ellipse cx="160" cy="171" rx="128" ry="7" fill="#3A2A1E" opacity=".12" filter="url(#uitaskcardclaimedmshadow)"/><rect x="8" y="10" width="304" height="154" rx="26" fill="#99643B"/><rect x="8" y="5" width="304" height="154" rx="26" fill="url(#uitaskcardclaimedmcream)" stroke="#D5A947" stroke-width="2.5"/><rect x="24" y="23" width="72" height="104" rx="20" fill="#F0DFC1"/><path d="M47 48h26v34H47zM52 41h16v8" fill="none" stroke="#956A43" stroke-width="2"/><circle cx="60" cy="96" r="10" fill="url(#uitaskcardclaimedmgreen)"/><path d="m55 96 4 4 7-8" fill="none" stroke="#FFF3CC" stroke-width="2" stroke-linecap="round" stroke-linejoin="round"/><rect x="118" y="29" width="134" height="14" rx="7" fill="#D8C09A" opacity="0.58"/><rect x="118" y="57" width="103" height="10" rx="5" fill="#D8C09A" opacity=".4"/><rect x="118" y="82" width="124" height="10" rx="5" fill="#D8C09A" opacity=".4"/><rect x="118" y="117" width="154" height="16" rx="8" fill="#E4D1AE"/><rect x="118" y="117" width="154" height="16" rx="8" fill="url(#uitaskcardclaimedmgreen)"/><g transform="translate(272 18)"><circle cx="12" cy="12" r="11" fill="#80607E" stroke="#76503A"/><path d="M7 12l3 3 7-7" fill="none" stroke="#FFF3D3" stroke-width="2" stroke-linecap="round" stroke-linejoin="round"/></g></g></svg><svg x="1680" width="320" height="180" viewBox="0 0 320 180"><defs><linearGradient id="uitaskcardunavailablemcream" x1="0" y1="0" x2="1" y2="1"><stop stop-color="#FFFDF7"/><stop offset="1" stop-color="#F8EEDB"/></linearGradient><linearGradient id="uitaskcardunavailablemwood" x1="0" y1="0" x2="1" y2="1"><stop stop-color="#D8AA70"/><stop offset="1" stop-color="#99643B"/></linearGradient><linearGradient id="uitaskcardunavailablemgreen" x1="0" y1="0" x2="1" y2="1"><stop stop-color="#738F6B"/><stop offset="1" stop-color="#4D724E"/></linearGradient><linearGradient id="uitaskcardunavailablemamber" x1="0" y1="0" x2="1" y2="1"><stop stop-color="#F2C15C"/><stop offset="1" stop-color="#C77B32"/></linearGradient><filter id="uitaskcardunavailablemshadow" x="-20%" y="-20%" width="140%" height="160%"><feGaussianBlur stdDeviation="3"/></filter></defs><g opacity="0.48"><ellipse cx="160" cy="171" rx="128" ry="7" fill="#3A2A1E" opacity=".12" filter="url(#uitaskcardunavailablemshadow)"/><rect x="8" y="10" width="304" height="154" rx="26" fill="#99643B"/><rect x="8" y="5" width="304" height="154" rx="26" fill="url(#uitaskcardunavailablemcream)" stroke="#D8AA70" stroke-width="1.5"/><rect x="24" y="23" width="72" height="104" rx="20" fill="#F0DFC1"/><path d="M47 48h26v34H47zM52 41h16v8" fill="none" stroke="#956A43" stroke-width="2"/><circle cx="60" cy="96" r="10" fill="url(#uitaskcardunavailablemamber)"/><path d="M55 96h10" fill="none" stroke="#FFF3CC" stroke-width="2" stroke-linecap="round" stroke-linejoin="round"/><rect x="118" y="29" width="134" height="14" rx="7" fill="#D8C09A" opacity="0.58"/><rect x="118" y="57" width="103" height="10" rx="5" fill="#D8C09A" opacity=".4"/><rect x="118" y="82" width="124" height="10" rx="5" fill="#D8C09A" opacity=".4"/><rect x="118" y="117" width="154" height="16" rx="8" fill="#E4D1AE"/><rect x="118" y="117" width="0" height="16" rx="8" fill="url(#uitaskcardunavailablemgreen)"/><g transform="translate(272 18)"><circle cx="12" cy="12" r="11" fill="#9B8A75" stroke="#76503A"/><path d="M7 7l10 10m0-10L7 17" fill="none" stroke="#FFF3D3" stroke-width="2" stroke-linecap="round" stroke-linejoin="round"/></g></g></svg><svg x="2016" width="320" height="180" viewBox="0 0 320 180"><defs><linearGradient id="uitaskcardexpiredmcream" x1="0" y1="0" x2="1" y2="1"><stop stop-color="#FFFDF7"/><stop offset="1" stop-color="#F8EEDB"/></linearGradient><linearGradient id="uitaskcardexpiredmwood" x1="0" y1="0" x2="1" y2="1"><stop stop-color="#D8AA70"/><stop offset="1" stop-color="#99643B"/></linearGradient><linearGradient id="uitaskcardexpiredmgreen" x1="0" y1="0" x2="1" y2="1"><stop stop-color="#738F6B"/><stop offset="1" stop-color="#4D724E"/></linearGradient><linearGradient id="uitaskcardexpiredmamber" x1="0" y1="0" x2="1" y2="1"><stop stop-color="#F2C15C"/><stop offset="1" stop-color="#C77B32"/></linearGradient><filter id="uitaskcardexpiredmshadow" x="-20%" y="-20%" width="140%" height="160%"><feGaussianBlur stdDeviation="3"/></filter></defs><g opacity="0.48"><ellipse cx="160" cy="171" rx="128" ry="7" fill="#3A2A1E" opacity=".12" filter="url(#uitaskcardexpiredmshadow)"/><rect x="8" y="10" width="304" height="154" rx="26" fill="#99643B"/><rect x="8" y="5" width="304" height="154" rx="26" fill="url(#uitaskcardexpiredmcream)" stroke="#D8AA70" stroke-width="1.5"/><rect x="24" y="23" width="72" height="104" rx="20" fill="#F0DFC1"/><path d="M47 48h26v34H47zM52 41h16v8" fill="none" stroke="#956A43" stroke-width="2"/><circle cx="60" cy="96" r="10" fill="url(#uitaskcardexpiredmamber)"/><path d="M55 96h10" fill="none" stroke="#FFF3CC" stroke-width="2" stroke-linecap="round" stroke-linejoin="round"/><rect x="118" y="29" width="134" height="14" rx="7" fill="#D8C09A" opacity="0.58"/><rect x="118" y="57" width="103" height="10" rx="5" fill="#D8C09A" opacity=".4"/><rect x="118" y="82" width="124" height="10" rx="5" fill="#D8C09A" opacity=".4"/><rect x="118" y="117" width="154" height="16" rx="8" fill="#E4D1AE"/><rect x="118" y="117" width="0" height="16" rx="8" fill="url(#uitaskcardexpiredmgreen)"/><g transform="translate(272 18)"><circle cx="12" cy="12" r="11" fill="#A55B46" stroke="#76503A"/><path d="M12 6v6l4 2M12 3a9 9 0 1 0 9 9" fill="none" stroke="#FFF3D3" stroke-width="2" stroke-linecap="round" stroke-linejoin="round"/></g></g></svg></svg>