<?xml version="1.0" encoding="UTF-8"?>
<svg xmlns="http://www.w3.org/2000/svg" width="120" height="24" viewBox="0 0 120 24" fill="none">
  <metadata>{"schema":"looper.ui.master.v1","asset_id":"ui_icon_close","asset_version":"v001","visual_status":"Approved","states":["default","pressed","disabled","focused"],"style_lock":"Looper UI Style Lock v1.0 Approved","scalable":true,"transparent":true,"note":"24px visual grid; the 44pt/48dp hit target belongs to the native control container"}</metadata>
  <g id="default" transform="translate(0 0)" opacity="1"><path d="M6 6l12 12M18 6 6 18" stroke="#233F2D" stroke-width="3.5" stroke-linecap="round" stroke-linejoin="round"/><path d="M6 6l12 12M18 6 6 18" stroke="#FFFDF7" stroke-width="1" stroke-linecap="round" stroke-linejoin="round" opacity="0.18" transform="translate(-0.35 -0.45)"/></g><g id="pressed" transform="translate(32 1)" opacity="1"><path d="M6 6l12 12M18 6 6 18" stroke="#233F2D" stroke-width="3.5" stroke-linecap="round" stroke-linejoin="round"/><path d="M6 6l12 12M18 6 6 18" stroke="#FFFDF7" stroke-width="1" stroke-linecap="round" stroke-linejoin="round" opacity="0.18" transform="translate(-0.35 -0.45)"/></g><g id="disabled" transform="translate(64 0)" opacity="0.54"><path d="M6 6l12 12M18 6 6 18" stroke="#8C8376" stroke-width="3.5" stroke-linecap="round" stroke-linejoin="round"/><path d="M6 6l12 12M18 6 6 18" stroke="#FFFDF7" stroke-width="1" stroke-linecap="round" stroke-linejoin="round" opacity="0.08" transform="translate(-0.35 -0.45)"/></g><g id="focused" transform="translate(96 0)" opacity="1"><path d="M6 6l12 12M18 6 6 18" stroke="#233F2D" stroke-width="3.5" stroke-linecap="round" stroke-linejoin="round"/><path d="M6 6l12 12M18 6 6 18" stroke="#FFFDF7" stroke-width="1" stroke-linecap="round" stroke-linejoin="round" opacity="0.18" transform="translate(-0.35 -0.45)"/></g>
</svg>
